{
.appVersion = "3316";
.formatVersion = 3;
DisplayStrings = (
"/shaddaFathatan-ar/shaddaDammatan-ar/shaddaKasratan-ar ّ/shaddaFatha-ar/shaddaDamma-ar/shaddaKasra-ar/shaddaAlefabove-ar"
);
axes = (
{
name = Weight;
tag = wght;
}
);
classes = (
{
automatic = 1;

glyphs = (
{
color = 4;
glyphname = A;
kernLeft = A;
kernRight = A;
layers = (
{
anchors = (
{
name = bottom;
pos = (491,0);
},
{
name = ogonek;
pos = (958,0);
},
{
name = top;
pos = (508,990);
}
);
layerId = "8D9E6227-A940-4CC2-85D6-810E74B12C63";
shapes = (
{
closed = 1;
nodes = (
(534,999,o),
(470,998,o),
(423,991,c),
(457,927,l),
(737,75,l),
(750,103,l),
(704,94,o),
(661,81,o),
(631,68,c),
(626,0,l),
(1000,0,l),
(1005,66,l),
(874,94,l),
(918,65,l),
(589,996,l)
);
},
{
closed = 1;
nodes = (
(423,991,l),
(96,65,l),
(141,102,l),
(97,94,o),
(54,81,o),
(21,64,c),
(16,0,l),
(331,0,l),
(336,66,l),
(214,95,l),
(221,65,l),
(529,990,l)
);
},
{
closed = 1;
nodes = (
(738,281,l),
(704,377,l),
(279,377,l),
(246,281,l)
);
}
);
width = 1014;
},
{
anchors = (
{
name = bottom;
pos = (491,0);
},
{
name = ogonek;
pos = (966,0);
},
{
name = top;
pos = (508,990);
}
);
layerId = "106916A4-8C74-485A-AD82-F5ABB18EF495";
shapes = (
{
closed = 1;
nodes = (
(541,1000,o),
(453,998,o),
(383,991,c),
(423,928,l),
(691,99,l),
(711,126,l),
(665,117,o),
(625,105,o),
(597,92,c),
(590,0,l),
(1008,0,l),
(1015,90,l),
(888,114,l),
(946,89,l),
(629,996,l)
);
},
{
closed = 1;
nodes = (
(383,991,l),
(68,89,l),
(131,126,l),
(81,115,o),
(38,102,o),
(13,88,c),
(6,0,l),
(324,0,l),
(331,90,l),
(203,117,l),
(226,89,l),
(520,990,l)
);
},
{
closed = 1;
nodes = (
(758,265,l),
(724,389,l),
(243,389,l),
(210,265,l)
);
}
);
width = 1014;
}
);
unicode = 65;
},
{
color = 4;
glyphname = AE;
kernLeft = AE;
kernRight = E;
layers = (
{
anchors = (
{
name = top;
pos = (768,990);
}
);
layerId = "8D9E6227-A940-4CC2-85D6-810E74B12C63";
shapes = (
{
closed = 1;
nodes = (
(321,0,l),
(326,66,l),
(204,95,l),
(203,61,l),
(709,990,l),
(593,990,l),
(69,64,l),
(121,102,l),
(77,94,o),
(34,81,o),
(1,64,c),
(-4,0,l)
);
},
{
closed = 1;
nodes = (
(939,0,l),
(944,66,l),
(811,95,l),
(828,28,l),
(828,168,l),
(662,168,l),
(662,28,l),
(682,103,l),
(635,92,o),
(589,78,o),
(555,64,c),
(550,0,l)
);
},
{
closed = 1;
nodes = (
(741,300,l),
(741,398,l),
(299,398,l),
(256,300,l)
);
},
{
closed = 1;
nodes = (
(1279,0,l),
(1255,100,l),
(672,100,l),
(672,0,l)
);
},
{
closed = 1;
nodes = (
(828,15,l),
(828,976,l),
(662,976,l),
(662,15,l)
);
},
{
closed = 1;
nodes = (
(1307,99,o),
(1322,215,o),
(1320,285,c),
(1243,285,l),
(1120,53,l),
(1279,0,l)
);
},
{
closed = 1;
nodes = (
(1130,455,l),
(1138,561,l),
(731,561,l),
(731,455,l)
);
},
{
closed = 1;
nodes = (
(640,990,l),
(409,990,l),
(404,924,l),
(560,895,l)
);
},
{
closed = 1;
nodes = (
(1249,890,l),
(1268,990,l),
(662,990,l),
(592,893,l),
(680,890,l)
);
},
{
closed = 1;
nodes = (
(1286,723,l),
(1292,804,o),
(1286,900,o),
(1268,990,c),
(1117,933,l),
(1207,723,l)
);
}
);
width = 1372;
},
{
anchors = (
{
name = top;
pos = (789,990);
}
);
layerId = "106916A4-8C74-485A-AD82-F5ABB18EF495";
shapes = (
{
closed = 1;
nodes = (
(320,0,l),
(327,90,l),
(199,117,l),
(215,85,l),
(702,990,l),
(550,990,l),
(42,87,l),
(111,126,l),
(61,115,o),
(18,102,o),
(-7,88,c),
(-14,0,l)
);
},
{
closed = 1;
nodes = (
(965,0,l),
(972,90,l),
(839,119,l),
(874,25,l),
(874,182,l),
(636,182,l),
(636,25,l),
(674,127,l),
(627,116,o),
(581,102,o),
(549,88,c),
(542,0,l)
);
},
{
closed = 1;
nodes = (
(737,284,l),
(737,410,l),
(293,410,l),
(250,284,l)
);
},
{
closed = 1;
nodes = (
(1305,0,l),
(1281,130,l),
(761,130,l),
(761,0,l)
);
},
{
closed = 1;
nodes = (
(874,15,l),
(874,976,l),
(636,976,l),
(636,15,l)
);
},
{
closed = 1;
nodes = (
(1337,111,o),
(1353,224,o),
(1350,315,c),
(1243,315,l),
(1110,83,l),
(1305,0,l)
);
},
{
closed = 1;
nodes = (
(1157,441,l),
(1167,575,l),
(745,575,l),
(745,441,l)
);
},
{
closed = 1;
nodes = (
(586,990,l),
(365,990,l),
(358,900,l),
(521,873,l)
);
},
{
closed = 1;
nodes = (
(1275,860,l),
(1294,990,l),
(605,990,l),
(560,864,l),
(678,860,l)
);
},
{
closed = 1;
nodes = (
(1316,693,l),
(1322,788,o),
(1315,894,o),
(1294,990,c),
(1107,903,l),
(1207,693,l)
);
}
);
width = 1392;
}
);
metricLeft = "=A-20";
metricRight = E;
unicode = 198;
},
{
color = 4;
glyphname = B;
kernLeft = H;
kernRight = O;
layers = (
{
layerId = "8D9E6227-A940-4CC2-85D6-810E74B12C63";
shapes = (
{
closed = 1;
nodes = (
(458,0,ls),
(718,0,o),
(884,115,o),
(884,296,cs),
(884,461,o),
(745,541,o),
(457,541,cs),
(251,541,l),
(251,459,l),
(449,459,ls),
(618,459,o),
(700,399,o),
(700,274,cs),
(700,157,o),
(628,100,o),
(478,100,cs),
(251,100,l),
(241,0,l)
);
},
{
closed = 1;
nodes = (
(338,15,l),
(338,976,l),
(170,976,l),
(170,15,l)
);
},
{
closed = 1;
nodes = (
(452,490,ls),
(694,490,o),
(828,581,o),
(828,745,cs),
(828,902,o),
(705,990,o),
(484,990,cs),
(236,990,l),
(236,890,l),
(475,890,ls),
(592,890,o),
(648,836,o),
(648,723,cs),
(648,606,o),
(589,549,o),
(467,549,cs),
(241,549,l),
(222,490,l)
);
},
{
pos = (1,0);
ref = _serif.cap;
},
{
angle = 180;
pos = (507,990);
ref = _serif.cap;
}
);
width = 948;
},
{
layerId = "106916A4-8C74-485A-AD82-F5ABB18EF495";
shapes = (
{
closed = 1;
nodes = (
(468,0,ls),
(755,0,o),
(936,117,o),
(936,301,cs),
(936,470,o),
(785,551,o),
(474,551,cs),
(265,551,l),
(265,447,l),
(460,447,ls),
(604,447,o),
(674,393,o),
(674,280,cs),
(674,176,o),
(615,126,o),
(492,126,cs),
(265,126,l),
(255,0,l)
);
},
{
closed = 1;
nodes = (
(382,15,l),
(382,976,l),
(142,976,l),
(142,15,l)
);
},
{
closed = 1;
nodes = (
(463,490,ls),
(731,490,o),
(880,581,o),
(880,746,cs),
(880,903,o),
(745,990,o),
(501,990,cs),
(250,990,l),
(250,864,l),
(489,864,ls),
(579,864,o),
(622,815,o),
(622,714,cs),
(622,611,o),
(577,561,o),
(484,561,cs),
(255,561,l),
(236,490,l)
);
},
{
pos = (9,0);
ref = _serif.cap;
},
{
angle = 180;
pos = (515,990);
ref = _serif.cap;
}
);
width = 974;
}
);
metricLeft = H;
metricRight = "=O-4";
unicode = 66;
},
{
color = 4;
glyphname = C;
kernLeft = O;
kernRight = C;
layers = (
{
anchors = (
{
name = bottom;
pos = (554,0);
},
{
name = top;
pos = (516,990);
}
);
layerId = "8D9E6227-A940-4CC2-85D6-810E74B12C63";
shapes = (
{
closed = 1;
nodes = (
(689,-17,o),
(793,6,o),
(861,45,c),
(883,134,o),
(894,224,o),
(893,297,c),
(816,297,l),
(693,65,l),
(826,77,l),
(832,135,l),
(762,97,o),
(688,79,o),
(604,79,cs),
(372,79,o),
(260,219,o),
(260,510,cs),
(260,780,o),
(357,911,o),
(558,911,cs),
(637,911,o),
(718,891,o),
(786,856,c),
(697,933,l),
(793,709,l),
(866,709,l),
(871,787,o),
(867,871,o),
(856,946,c),
(790,983,o),
(681,1007,o),
(576,1007,cs),
(265,1007,o),
(68,800,o),
(68,474,cs),
(68,158,o),
(253,-17,o),
(586,-17,cs)
);
}
);
width = 959;
},
{
anchors = (
{
name = bottom;
pos = (566,0);
},
{
name = top;
pos = (518,990);
}
);
layerId = "106916A4-8C74-485A-AD82-F5ABB18EF495";
shapes = (
{
closed = 1;
nodes = (
(715,-17,o),
(833,9,o),
(901,51,c),
(924,144,o),
(936,245,o),
(935,333,c),
(828,333,l),
(695,101,l),
(838,77,l),
(843,165,l),
(773,127,o),
(699,109,o),
(615,109,cs),
(412,109,o),
(314,240,o),
(314,510,cs),
(314,760,o),
(398,881,o),
(571,881,cs),
(650,881,o),
(731,861,o),
(799,826,c),
(699,897,l),
(805,673,l),
(908,673,l),
(913,756,o),
(909,851,o),
(896,940,c),
(826,981,o),
(706,1007,o),
(588,1007,cs),
(254,1007,o),
(42,800,o),
(42,474,cs),
(42,158,o),
(241,-17,o),
(598,-17,cs)
);
}
);
width = 975;
}
);
metricLeft = O;
metricRight = "=O-2";
unicode = 67;
},
{
color = 4;
glyphname = D;
kernLeft = H;
kernRight = O;
layers = (
{
anchors = (
{
name = bar;
pos = (310,507);
},
{
name = bottom;
pos = (500,0);
},
{
name = top;
pos = (490,990);
}
);
layerId = "8D9E6227-A940-4CC2-85D6-810E74B12C63";
shapes = (
{
closed = 1;
nodes = (
(478,0,ls),
(781,0,o),
(974,199,o),
(974,512,cs),
(974,819,o),
(788,990,o),
(454,990,cs),
(256,990,l),
(256,890,l),
(445,890,ls),
(672,890,o),
(782,762,o),
(782,496,cs),
(782,241,o),
(681,100,o),
(498,100,cs),
(256,100,l),
(256,0,l)
);
},
{
closed = 1;
nodes = (
(338,15,l),
(338,976,l),
(170,976,l),
(170,15,l)
);
},
{
pos = (1,0);
ref = _serif.cap;
},
{
angle = 180;
pos = (507,990);
ref = _serif.cap;
}
);
width = 1038;
},
{
anchors = (
{
name = bar;
pos = (307,507);
},
{
name = bottom;
pos = (514,0);
},
{
name = top;
pos = (504,990);
}
);
layerId = "106916A4-8C74-485A-AD82-F5ABB18EF495";
shapes = (
{
closed = 1;
nodes = (
(492,0,ls),
(819,0,o),
(1026,199,o),
(1026,512,cs),
(1026,819,o),
(827,990,o),
(468,990,cs),
(270,990,l),
(270,860,l),
(459,860,ls),
(658,860,o),
(754,741,o),
(754,494,cs),
(754,260,o),
(668,130,o),
(512,130,cs),
(270,130,l),
(270,0,l)
);
},
{
closed = 1;
nodes = (
(382,15,l),
(382,976,l),
(142,976,l),
(142,15,l)
);
},
{
pos = (9,0);
ref = _serif.cap;
},
{
angle = 180;
pos = (515,990);
ref = _serif.cap;
}
);
width = 1064;
}
);
metricLeft = H;
metricRight = "=O-4";
unicode = 68;
},
{
color = 4;
glyphname = E;
kernLeft = H;
kernRight = E;
layers = (
{
anchors = (
{
name = bottom;
pos = (500,0);
},
{
name = ogonek;
pos = (829,0);
},
{
name = top;
pos = (474,990);
}
);
layerId = "8D9E6227-A940-4CC2-85D6-810E74B12C63";
shapes = (
{
closed = 1;
nodes = (
(338,15,l),
(338,976,l),
(170,976,l),
(170,15,l)
);
},
{
closed = 1;
nodes = (
(819,0,l),
(795,100,l),
(255,100,l),
(255,0,l)
);
},
{
closed = 1;
nodes = (
(847,99,o),
(862,215,o),
(860,285,c),
(783,285,l),
(660,53,l),
(819,0,l)
);
},
{
closed = 1;
nodes = (
(670,454,l),
(678,562,l),
(239,562,l),
(239,454,l)
);
},
{
closed = 1;
nodes = (
(789,890,l),
(808,990,l),
(197,990,l),
(197,890,l)
);
},
{
closed = 1;
nodes = (
(826,723,l),
(832,804,o),
(826,900,o),
(808,990,c),
(657,933,l),
(747,723,l)
);
},
{
pos = (1,0);
ref = _serif.cap;
},
{
angle = 180;
pos = (507,990);
ref = _serif.cap;
}
);
width = 912;
},
{
anchors = (
{
name = bottom;
pos = (504,0);
},
{
name = ogonek;
pos = (843,0);
},
{
name = top;
pos = (472,990);
}
);
layerId = "106916A4-8C74-485A-AD82-F5ABB18EF495";
shapes = (
{
closed = 1;
nodes = (
(382,15,l),
(382,976,l),
(142,976,l),
(142,15,l)
);
},
{
closed = 1;
nodes = (
(843,0,l),
(819,130,l),
(269,130,l),
(269,0,l)
);
},
{
closed = 1;
nodes = (
(875,111,o),
(891,224,o),
(888,315,c),
(781,315,l),
(648,83,l),
(843,0,l)
);
},
{
closed = 1;
nodes = (
(695,440,l),
(705,576,l),
(253,576,l),
(253,440,l)
);
},
{
closed = 1;
nodes = (
(813,860,l),
(832,990,l),
(211,990,l),
(211,860,l)
);
},
{
closed = 1;
nodes = (
(854,693,l),
(860,788,o),
(853,894,o),
(832,990,c),
(645,903,l),
(745,693,l)
);
},
{
pos = (9,0);
ref = _serif.cap;
},
{
angle = 180;
pos = (515,990);
ref = _serif.cap;
}
);
width = 930;
}
);
metricLeft = H;
unicode = 69;
},
{
color = 4;
glyphname = Eogonek;
kernLeft = H;
kernRight = E;
layers = (
{
layerId = "8D9E6227-A940-4CC2-85D6-810E74B12C63";
shapes = (
{
closed = 1;
nodes = (
(758,-343,o),
(807,-332,o),
(845,-311,c),
(850,-237,l),
(814,-246,o),
(779,-251,o),
(755,-251,cs),
(702,-251,o),
(676,-228,o),
(676,-179,cs),
(676,-110,o),
(727,-46,o),
(819,0,c),
(809,37,l),
(643,2,o),
(538,-94,o),
(538,-209,cs),
(538,-295,o),
(598,-343,o),
(707,-343,cs)
);
},
{
ref = E;
}
);
width = 912;
},
{
layerId = "106916A4-8C74-485A-AD82-F5ABB18EF495";
shapes = (
{
closed = 1;
nodes = (
(775,-349,o),
(829,-336,o),
(868,-312,c),
(874,-227,l),
(838,-235,o),
(806,-239,o),
(785,-239,cs),
(738,-239,o),
(716,-218,o),
(716,-173,cs),
(716,-107,o),
(761,-45,o),
(843,0,c),
(831,47,l),
(638,-1,o),
(530,-93,o),
(530,-209,cs),
(530,-299,o),
(596,-349,o),
(715,-349,cs)
);
},
{
ref = E;
}
);
width = 930;
}
);
metricLeft = E;
unicode = 280;
},
{
color = 4;
glyphname = Schwa;
kernLeft = O;
kernRight = O;
layers = (
{
layerId = "8D9E6227-A940-4CC2-85D6-810E74B12C63";
shapes = (
{
closed = 1;
nodes = (
(751,-18,o),
(933,179,o),
(933,490,cs),
(933,807,o),
(751,1008,o),
(465,1008,cs),
(351,1008,o),
(214,973,o),
(117,917,c),
(185,831,l),
(268,880,o),
(364,907,o),
(452,907,cs),
(650,907,o),
(745,764,o),
(745,467,cs),
(745,206,o),
(665,80,o),
(498,80,cs),
(332,80,o),
(263,198,o),
(263,482,c),
(70,511,l),
(65,486,o),
(64,472,o),
(64,445,cs),
(64,147,o),
(207,-18,o),
(464,-18,cs)
);
},
{
closed = 1;
nodes = (
(884,418,l),
(884,511,l),
(70,511,l),
(93,418,l)
);
},
{
closed = 1;
nodes = (
(183,709,l),
(279,933,l),
(117,917,l),
(108,858,o),
(105,784,o),
(110,709,c)
);
}
);
userData = {
RMXScaler = {
height = 134;
verticalShift = 6;
weight = -6;
width = 145;
};
};
width = 1001;
},
{
layerId = "106916A4-8C74-485A-AD82-F5ABB18EF495";
shapes = (
{
closed = 1;
nodes = (
(785,-18,o),
(982,183,o),
(982,500,cs),
(982,811,o),
(786,1008,o),
(477,1008,cs),
(346,1008,o),
(197,970,o),
(98,910,c),
(188,802,l),
(272,850,o),
(366,876,o),
(450,876,cs),
(628,876,o),
(714,737,o),
(714,449,cs),
(714,220,o),
(647,110,o),
(508,110,cs),
(368,110,o),
(310,219,o),
(310,482,c),
(48,528,l),
(43,503,o),
(42,472,o),
(42,446,cs),
(42,148,o),
(197,-18,o),
(476,-18,cs)
);
},
{
closed = 1;
nodes = (
(888,415,l),
(888,528,l),
(48,528,l),
(70,415,l)
);
},
{
closed = 1;
nodes = (
(192,673,l),
(298,897,l),
(98,910,l),
(87,844,o),
(84,760,o),
(89,673,c)
);
}
);
userData = {
RMXScaler = {
height = 130.2;
verticalShift = 5;
weight = -2;
width = 142.2;
};
};
width = 1024;
}
);
metricLeft = "=schwa+6";
metricRight = "=schwa+6";
unicode = 399;
userData = {
RMXScaler = {
source = schwa;
};
};
},
{
color = 4;
glyphname = F;
kernLeft = H;
kernRight = F;
layers = (
{
layerId = "8D9E6227-A940-4CC2-85D6-810E74B12C63";
shapes = (
{
closed = 1;
nodes = (
(338,15,l),
(338,976,l),
(170,976,l),
(170,15,l)
);
},
{
closed = 1;
nodes = (
(650,424,l),
(658,532,l),
(239,532,l),
(239,424,l)
);
},
{
closed = 1;
nodes = (
(745,890,l),
(764,990,l),
(197,990,l),
(197,890,l)
);
},
{
closed = 1;
nodes = (
(782,709,l),
(788,801,o),
(782,902,o),
(764,990,c),
(613,933,l),
(709,709,l)
);
},
{
closed = 1;
nodes = (
(479,0,l),
(484,66,l),
(316,95,l),
(338,28,l),
(338,168,l),
(170,168,l),
(170,28,l),
(190,103,l),
(143,92,o),
(97,78,o),
(63,64,c),
(58,0,l)
);
},
{
angle = 180;
pos = (507,990);
ref = _serif.cap;
}
);
width = 828;
},
{
layerId = "106916A4-8C74-485A-AD82-F5ABB18EF495";
shapes = (
{
closed = 1;
nodes = (
(382,15,l),
(382,976,l),
(142,976,l),
(142,15,l)
);
},
{
closed = 1;
nodes = (
(675,406,l),
(685,542,l),
(253,542,l),
(253,406,l)
);
},
{
closed = 1;
nodes = (
(769,860,l),
(788,990,l),
(211,990,l),
(211,860,l)
);
},
{
closed = 1;
nodes = (
(810,679,l),
(816,785,o),
(809,896,o),
(788,990,c),
(601,903,l),
(707,679,l)
);
},
{
closed = 1;
nodes = (
(503,0,l),
(510,90,l),
(347,117,l),
(382,25,l),
(382,182,l),
(142,182,l),
(142,25,l),
(180,127,l),
(133,116,o),
(87,102,o),
(55,88,c),
(48,0,l)
);
},
{
angle = 180;
pos = (515,990);
ref = _serif.cap;
}
);
width = 846;
}
);
metricLeft = H;
unicode = 70;
},
{
color = 4;
glyphname = G;
kernLeft = O;
kernRight = G;
layers = (
{
anchors = (
{
name = bottom;
pos = (558,0);
},
{
name = top;
pos = (534,990);
}
);
layerId = "8D9E6227-A940-4CC2-85D6-810E74B12C63";
shapes = (
{
closed = 1;
nodes = (
(719,-17,o),
(824,4,o),
(893,43,c),
(864,133,l),
(786,97,o),
(706,79,o),
(618,79,cs),
(374,79,o),
(256,219,o),
(256,509,cs),
(256,780,o),
(359,911,o),
(572,911,cs),
(652,911,o),
(727,893,o),
(802,856,c),
(715,933,l),
(806,721,l),
(882,721,l),
(887,788,o),
(883,868,o),
(872,946,c),
(808,983,o),
(699,1007,o),
(590,1007,cs),
(271,1007,o),
(68,800,o),
(68,473,cs),
(68,158,o),
(258,-17,o),
(600,-17,cs)
);
},
{
closed = 1;
nodes = (
(893,43,l),
(893,391,l),
(733,391,l),
(733,41,l)
);
},
{
closed = 1;
nodes = (
(893,291,l),
(893,431,l),
(874,354,l),
(906,361,o),
(937,372,o),
(959,383,c),
(965,457,l),
(572,457,l),
(567,391,l),
(751,363,l),
(733,431,l),
(733,291,l)
);
}
);
width = 1019;
},
{
anchors = (
{
name = bottom;
pos = (570,0);
},
{
name = top;
pos = (536,990);
}
);
layerId = "106916A4-8C74-485A-AD82-F5ABB18EF495";
shapes = (
{
closed = 1;
nodes = (
(748,-17,o),
(867,7,o),
(947,51,c),
(876,173,l),
(798,137,o),
(718,119,o),
(630,119,cs),
(413,119,o),
(310,248,o),
(310,513,cs),
(310,760,o),
(399,881,o),
(584,881,cs),
(664,881,o),
(739,863,o),
(814,826,c),
(713,897,l),
(814,685,l),
(920,685,l),
(925,756,o),
(921,848,o),
(908,940,c),
(843,981,o),
(724,1007,o),
(602,1007,cs),
(260,1007,o),
(42,800,o),
(42,473,cs),
(42,158,o),
(246,-17,o),
(612,-17,cs)
);
},
{
closed = 1;
nodes = (
(947,51,l),
(947,397,l),
(709,397,l),
(709,41,l)
);
},
{
closed = 1;
nodes = (
(947,297,l),
(947,437,l),
(909,360,l),
(945,368,o),
(975,379,o),
(993,389,c),
(1001,487,l),
(578,487,l),
(571,397,l),
(739,371,l),
(709,437,l),
(709,297,l)
);
}
);
width = 1029;
}
);
metricLeft = O;
metricRight = "=O-14";
unicode = 71;
},
{
color = 4;
glyphname = H;
kernLeft = H;
kernRight = H;
layers = (
{
anchors = (
{
name = bottom;
pos = (546,0);
},
{
name = top;
pos = (546,990);
}
);
layerId = "8D9E6227-A940-4CC2-85D6-810E74B12C63";
shapes = (
{
closed = 1;
nodes = (
(922,15,l),
(922,976,l),
(754,976,l),
(754,15,l)
);
},
{
closed = 1;
nodes = (
(338,15,l),
(338,976,l),
(170,976,l),
(170,15,l)
);
},
{
closed = 1;
nodes = (
(841,450,l),
(841,548,l),
(244,548,l),
(244,450,l)
);
},
{
pos = (1,0);
ref = _serif.cap;
},
{
pos = (585,0);
ref = _serif.cap;
},
{
angle = 180;
pos = (1091,990);
ref = _serif.cap;
},
{
angle = 180;
pos = (507,990);
ref = _serif.cap;
}
);
width = 1092;
},
{
anchors = (
{
name = bottom;
pos = (560,0);
},
{
name = top;
pos = (560,990);
}
);
layerId = "106916A4-8C74-485A-AD82-F5ABB18EF495";
shapes = (
{
closed = 1;
nodes = (
(978,15,l),
(978,976,l),
(738,976,l),
(738,15,l)
);
},
{
closed = 1;
nodes = (
(382,15,l),
(382,976,l),
(142,976,l),
(142,15,l)
);
},
{
closed = 1;
nodes = (
(855,435,l),
(855,563,l),
(258,563,l),
(258,435,l)
);
},
{
pos = (9,0);
ref = _serif.cap;
},
{
pos = (605,0);
ref = _serif.cap;
},
{
angle = 180;
pos = (1111,990);
ref = _serif.cap;
},
{
angle = 180;
pos = (515,990);
ref = _serif.cap;
}
);
width = 1120;
}
);
unicode = 72;
},
{
color = 4;
glyphname = I;
kernLeft = H;
kernRight = H;
layers = (
{
anchors = (
{
name = bottom;
pos = (256,0);
},
{
name = ogonek;
pos = (418,0);
},
{
name = top;
pos = (256,990);
}
);
layerId = "8D9E6227-A940-4CC2-85D6-810E74B12C63";
shapes = (
{
closed = 1;
nodes = (
(340,15,l),
(340,976,l),
(172,976,l),
(172,15,l)
);
},
{
pos = (3,0);
ref = _serif.cap;
},
{
angle = 180;
pos = (509,990);
ref = _serif.cap;
}
);
width = 512;
},
{
anchors = (
{
name = bottom;
pos = (264,0);
},
{
name = ogonek;
pos = (426,0);
},
{
name = top;
pos = (264,990);
}
);
layerId = "106916A4-8C74-485A-AD82-F5ABB18EF495";
shapes = (
{
closed = 1;
nodes = (
(384,15,l),
(384,976,l),
(144,976,l),
(144,15,l)
);
},
{
pos = (11,0);
ref = _serif.cap;
},
{
angle = 180;
pos = (517,990);
ref = _serif.cap;
}
);
width = 528;
}
);
metricLeft = "=H+2";
metricRight = "=H+2";
unicode = 73;
},
{
color = 4;
glyphname = Iogonek;
kernLeft = H;
kernRight = H;
layers = (
{
layerId = "8D9E6227-A940-4CC2-85D6-810E74B12C63";
shapes = (
{
closed = 1;
nodes = (
(327,-343,o),
(376,-332,o),
(414,-311,c),
(419,-237,l),
(383,-246,o),
(348,-251,o),
(324,-251,cs),
(271,-251,o),
(245,-228,o),
(245,-179,cs),
(245,-110,o),
(296,-46,o),
(388,0,c),
(378,37,l),
(212,2,o),
(107,-94,o),
(107,-209,cs),
(107,-295,o),
(167,-343,o),
(276,-343,cs)
);
},
{
ref = I;
}
);
width = 512;
},
{
layerId = "106916A4-8C74-485A-AD82-F5ABB18EF495";
shapes = (
{
closed = 1;
nodes = (
(344,-349,o),
(398,-336,o),
(437,-312,c),
(443,-227,l),
(407,-235,o),
(375,-239,o),
(354,-239,cs),
(307,-239,o),
(285,-217,o),
(285,-172,cs),
(285,-106,o),
(333,-44,o),
(420,0,c),
(408,47,l),
(209,-1,o),
(99,-92,o),
(99,-209,cs),
(99,-299,o),
(165,-349,o),
(284,-349,cs)
);
},
{
ref = I;
}
);
width = 528;
}
);
metricLeft = I;
metricRight = I;
unicode = 302;
},
{
color = 4;
glyphname = J;
kernLeft = J;
kernRight = U;
layers = (
{
anchors = (
{
name = top;
pos = (468,990);
}
);
layerId = "8D9E6227-A940-4CC2-85D6-810E74B12C63";
shapes = (
{
closed = 1;
nodes = (
(446,-16,o),
(564,80,o),
(564,230,c),
(396,246,l),
(396,135,o),
(352,82,o),
(261,82,cs),
(224,82,o),
(179,91,o),
(136,107,c),
(209,57,l),
(126,251,l),
(46,251,l),
(41,173,o),
(46,91,o),
(60,20,c),
(120,-3,o),
(192,-16,o),
(261,-16,cs)
);
},
{
closed = 1;
nodes = (
(564,976,l),
(396,976,l),
(396,246,l),
(564,230,l)
);
},
{
closed = 1;
nodes = (
(251,990,l),
(246,924,l),
(418,895,l),
(396,962,l),
(396,822,l),
(564,822,l),
(564,962,l),
(545,887,l),
(591,898,o),
(632,912,o),
(661,926,c),
(666,990,l)
);
}
);
width = 706;
},
{
anchors = (
{
name = top;
pos = (476,990);
}
);
layerId = "106916A4-8C74-485A-AD82-F5ABB18EF495";
shapes = (
{
closed = 1;
nodes = (
(488,-16,o),
(608,72,o),
(608,230,c),
(368,256,l),
(368,159,o),
(332,112,o),
(259,112,cs),
(228,112,o),
(187,121,o),
(144,137,c),
(239,87,l),
(146,281,l),
(36,281,l),
(30,194,o),
(36,101,o),
(52,20,c),
(112,-3,o),
(191,-16,o),
(273,-16,cs)
);
},
{
closed = 1;
nodes = (
(608,976,l),
(368,976,l),
(368,256,l),
(608,230,l)
);
},
{
closed = 1;
nodes = (
(243,990,l),
(236,900,l),
(403,873,l),
(368,965,l),
(368,808,l),
(608,808,l),
(608,965,l),
(570,862,l),
(619,875,o),
(660,889,o),
(685,902,c),
(692,990,l)
);
}
);
width = 722;
}
);
metricLeft = "=U+4";
metricRight = "=U";
unicode = 74;
},
{
color = 4;
glyphname = K;
kernLeft = H;
kernRight = X;
layers = (
{
anchors = (
{
name = bottom;
pos = (550,0);
}
);
layerId = "8D9E6227-A940-4CC2-85D6-810E74B12C63";
shapes = (
{
closed = 1;
nodes = (
(967,0,l),
(972,70,l),
(838,97,l),
(908,65,l),
(504,561,l),
(512,484,l),
(884,932,l),
(825,888,l),
(869,896,o),
(912,909,o),
(945,926,c),
(950,990,l),
(585,990,l),
(580,924,l),
(714,895,l),
(735,938,l),
(385,514,l),
(385,458,l),
(742,0,l)
);
},
{
closed = 1;
nodes = (
(338,15,l),
(338,974,l),
(170,974,l),
(170,15,l)
);
},
{
closed = 1;
nodes = (
(517,435,l),
(517,539,l),
(255,539,l),
(255,435,l)
);
},
{
pos = (1,0);
ref = _serif.cap;
},
{
angle = 180;
pos = (507,990);
ref = _serif.cap;
}
);
width = 986;
},
{
anchors = (
{
name = bottom;
pos = (564,0);
}
);
layerId = "106916A4-8C74-485A-AD82-F5ABB18EF495";
shapes = (
{
closed = 1;
nodes = (
(1017,0,l),
(1024,94,l),
(890,119,l),
(980,89,l),
(621,561,l),
(561,484,l),
(956,908,l),
(877,864,l),
(927,875,o),
(970,888,o),
(995,902,c),
(1002,990,l),
(623,990,l),
(616,900,l),
(756,873,l),
(763,914,l),
(410,526,l),
(410,451,l),
(736,0,l)
);
},
{
closed = 1;
nodes = (
(382,15,l),
(382,974,l),
(142,974,l),
(142,15,l)
);
},
{
closed = 1;
nodes = (
(531,422,l),
(531,552,l),
(269,552,l),
(269,422,l)
);
},
{
pos = (9,0);
ref = _serif.cap;
},
{
angle = 180;
pos = (515,990);
ref = _serif.cap;
}
);
width = 1018;
}
);
metricLeft = H;
unicode = 75;
},
{
color = 4;
glyphname = L;
kernLeft = H;
kernRight = L;
layers = (
{
anchors = (
{
name = bottom;
pos = (480,0);
},
{
name = top;
pos = (270,990);
},
{
name = topright;
pos = (522,746);
}
);
layerId = "8D9E6227-A940-4CC2-85D6-810E74B12C63";
shapes = (
{
closed = 1;
nodes = (
(338,15,l),
(338,976,l),
(170,976,l),
(170,15,l)
);
},
{
closed = 1;
nodes = (
(796,0,l),
(755,100,l),
(254,100,l),
(254,0,l)
);
},
{
closed = 1;
nodes = (
(824,99,o),
(839,215,o),
(839,325,c),
(775,325,l),
(631,53,l),
(796,0,l)
);
},
{
closed = 1;
nodes = (
(59,990,l),
(54,924,l),
(187,895,l),
(170,962,l),
(170,822,l),
(338,822,l),
(338,962,l),
(318,889,l),
(379,897,o),
(439,911,o),
(485,926,c),
(490,990,l)
);
},
{
pos = (1,0);
ref = _serif.cap;
}
);
width = 881;
},
{
anchors = (
{
name = bottom;
pos = (484,0);
},
{
name = top;
pos = (284,990);
},
{
name = topright;
pos = (532,746);
}
);
layerId = "106916A4-8C74-485A-AD82-F5ABB18EF495";
shapes = (
{
closed = 1;
nodes = (
(382,15,l),
(382,976,l),
(142,976,l),
(142,15,l)
);
},
{
closed = 1;
nodes = (
(810,0,l),
(773,130,l),
(268,130,l),
(268,0,l)
);
},
{
closed = 1;
nodes = (
(840,105,o),
(857,232,o),
(857,355,c),
(763,355,l),
(609,83,l),
(810,0,l)
);
},
{
closed = 1;
nodes = (
(51,990,l),
(44,900,l),
(177,871,l),
(142,965,l),
(142,808,l),
(382,808,l),
(382,965,l),
(344,866,l),
(412,877,o),
(471,890,o),
(509,902,c),
(516,990,l)
);
},
{
pos = (9,0);
ref = _serif.cap;
}
);
width = 889;
}
);
metricLeft = H;
unicode = 76;
},
{
color = 4;
glyphname = Lslash;
kernLeft = H;
kernRight = L;
layers = (
{
layerId = "8D9E6227-A940-4CC2-85D6-810E74B12C63";
shapes = (
{
closed = 1;
nodes = (
(280,402,l),
(288,397,l),
(651,561,l),
(658,671,l),
(288,503,l),
(280,508,l),
(43,401,l),
(36,291,l)
);
},
{
pos = (20,0);
ref = L;
}
);
width = 901;
},
{
layerId = "106916A4-8C74-485A-AD82-F5ABB18EF495";
shapes = (
{
closed = 1;
nodes = (
(288,397,l),
(296,392,l),
(669,559,l),
(676,689,l),
(296,514,l),
(288,519,l),
(35,407,l),
(28,277,l)
);
},
{
pos = (24,0);
ref = L;
}
);
width = 913;
}
);
metricRight = L;
unicode = 321;
},
{
color = 4;
glyphname = M;
kernLeft = H;
kernRight = H;
layers = (
{
anchors = (
{
name = bottom;
pos = (672,0);
}
);
guides = (
{
pos = (281,822);
}
);
layerId = "8D9E6227-A940-4CC2-85D6-810E74B12C63";
shapes = (
{
closed = 1;
nodes = (
(652,37,o),
(698,39,o),
(737,44,c),
(733,127,l),
(424,990,l),
(252,990,l),
(607,40,l)
);
},
{
closed = 1;
nodes = (
(396,0,l),
(401,66,l),
(256,95,l),
(272,38,l),
(324,990,l),
(85,990,l),
(80,924,l),
(220,895,l),
(205,944,l),
(146,36,l),
(170,103,l),
(125,93,o),
(82,79,o),
(49,64,c),
(44,0,l)
);
},
{
closed = 1;
nodes = (
(1090,990,l),
(962,990,l),
(636,66,l),
(737,44,l)
);
},
{
closed = 1;
nodes = (
(1339,0,l),
(1344,66,l),
(1218,95,l),
(1237,46,l),
(1178,935,l),
(1161,888,l),
(1212,898,o),
(1260,912,o),
(1294,926,c),
(1299,990,l),
(1021,990,l),
(1072,43,l),
(1089,102,l),
(1039,93,o),
(990,80,o),
(952,64,c),
(947,0,l)
);
}
);
width = 1388;
},
{
anchors = (
{
name = bottom;
pos = (667,0);
}
);
guides = (
{
pos = (320,768);
}
);
layerId = "106916A4-8C74-485A-AD82-F5ABB18EF495";
shapes = (
{
closed = 1;
nodes = (
(633,46,o),
(700,48,o),
(760,54,c),
(778,138,l),
(474,990,l),
(228,990,l),
(574,50,l)
);
},
{
closed = 1;
nodes = (
(382,0,l),
(389,90,l),
(246,118,l),
(277,38,l),
(329,990,l),
(75,990,l),
(68,900,l),
(208,871,l),
(176,944,l),
(117,36,l),
(160,127,l),
(113,116,o),
(72,103,o),
(41,88,c),
(34,0,l)
);
},
{
closed = 1;
nodes = (
(1105,990,l),
(938,990,l),
(625,72,l),
(760,54,l)
);
},
{
closed = 1;
nodes = (
(1375,0,l),
(1382,90,l),
(1256,119,l),
(1294,46,l),
(1235,935,l),
(1197,864,l),
(1248,874,o),
(1296,888,o),
(1330,902,c),
(1337,990,l),
(1006,990,l),
(1057,43,l),
(1091,126,l),
(1041,116,o),
(992,102,o),
(956,88,c),
(949,0,l)
);
}
);
width = 1416;
}
);
metricLeft = "=H-10";
metricRight = "=H-10";
unicode = 77;
},
{
color = 4;
glyphname = N;
kernLeft = H;
kernRight = N;
layers = (
{
anchors = (
{
name = bottom;
pos = (560,0);
},
{
name = top;
pos = (548,990);
}
);
layerId = "8D9E6227-A940-4CC2-85D6-810E74B12C63";
shapes = (
{
closed = 1;
nodes = (
(855,-10,o),
(896,-8,o),
(930,-1,c),
(922,96,l),
(290,990,l),
(178,886,l),
(810,-6,l)
);
},
{
closed = 1;
nodes = (
(296,15,l),
(296,917,l),
(170,976,l),
(170,15,l)
);
},
{
closed = 1;
nodes = (
(290,990,l),
(59,990,l),
(54,924,l),
(187,877,l),
(304,818,l)
);
},
{
closed = 1;
nodes = (
(930,976,l),
(804,976,l),
(804,44,l),
(930,-1,l)
);
},
{
closed = 1;
nodes = (
(421,0,l),
(426,66,l),
(277,95,l),
(296,28,l),
(296,168,l),
(170,168,l),
(170,28,l),
(190,103,l),
(143,92,o),
(97,78,o),
(63,64,c),
(58,0,l)
);
},
{
closed = 1;
nodes = (
(693,990,l),
(688,924,l),
(821,895,l),
(804,962,l),
(804,822,l),
(930,822,l),
(930,962,l),
(909,887,l),
(951,896,o),
(994,910,o),
(1031,926,c),
(1036,990,l)
);
}
);
width = 1076;
},
{
anchors = (
{
name = bottom;
pos = (569,0);
},
{
name = top;
pos = (555,990);
}
);
layerId = "106916A4-8C74-485A-AD82-F5ABB18EF495";
shapes = (
{
closed = 1;
nodes = (
(880,-9,o),
(934,-7,o),
(974,-1,c),
(964,174,l),
(296,990,l),
(154,808,l),
(822,-6,l)
);
},
{
closed = 1;
nodes = (
(304,15,l),
(304,917,l),
(144,976,l),
(144,15,l)
);
},
{
closed = 1;
nodes = (
(296,990,l),
(51,990,l),
(44,900,l),
(177,853,l),
(292,818,l)
);
},
{
closed = 1;
nodes = (
(974,976,l),
(814,976,l),
(814,84,l),
(974,-1,l)
);
},
{
closed = 1;
nodes = (
(409,0,l),
(416,90,l),
(269,118,l),
(304,25,l),
(304,182,l),
(144,182,l),
(144,25,l),
(182,127,l),
(135,116,o),
(89,102,o),
(57,88,c),
(50,0,l)
);
},
{
closed = 1;
nodes = (
(723,990,l),
(716,900,l),
(849,871,l),
(814,965,l),
(814,808,l),
(974,808,l),
(974,965,l),
(936,863,l),
(981,873,o),
(1023,887,o),
(1055,902,c),
(1062,990,l)
);
}
);
width = 1092;
}
);
metricLeft = H;
metricRight = "=H-14";
unicode = 78;
},
{
color = 4;
glyphname = Nhookleft;
kernRight = H;
layers = (
{
anchors = (
{
name = bottom;
pos = (560,0);
},
{
name = top;
pos = (552,990);
}
);
layerId = "8D9E6227-A940-4CC2-85D6-810E74B12C63";
shapes = (
{
closed = 1;
nodes = (
(855,-10,o),
(896,-8,o),
(930,-1,c),
(922,96,l),
(290,990,l),
(178,886,l),
(810,-6,l)
);
},
{
closed = 1;
nodes = (
(181,-304,o),
(248,-224,o),
(277,-119,cs),
(291,-68,o),
(298,4,o),
(298,105,cs),
(298,333,l),
(170,333,l),
(170,70,ls),
(170,-77,o),
(139,-176,o),
(66,-265,cs),
(37,-300,l),
(88,-342,l)
);
},
{
closed = 1;
nodes = (
(298,155,l),
(298,917,l),
(170,976,l),
(170,155,l)
);
},
{
closed = 1;
nodes = (
(290,990,l),
(59,990,l),
(54,924,l),
(187,877,l),
(304,818,l)
);
},
{
closed = 1;
nodes = (
(930,976,l),
(804,976,l),
(804,44,l),
(930,-1,l)
);
},
{
closed = 1;
nodes = (
(930,822,l),
(930,962,l),
(909,887,l),
(951,896,o),
(994,910,o),
(1031,926,c),
(1036,990,l),
(693,990,l),
(688,924,l),
(821,895,l),
(804,962,l),
(804,822,l)
);
}
);
width = 1076;
},
{
anchors = (
{
name = bottom;
pos = (569,0);
},
{
name = top;
pos = (561,990);
}
);
layerId = "106916A4-8C74-485A-AD82-F5ABB18EF495";
shapes = (
{
closed = 1;
nodes = (
(880,-9,o),
(934,-7,o),
(974,-1,c),
(964,174,l),
(296,990,l),
(154,808,l),
(822,-6,l)
);
},
{
closed = 1;
nodes = (
(187,-308,o),
(256,-226,o),
(287,-119,cs),
(302,-67,o),
(308,8,o),
(308,113,cs),
(308,311,l),
(144,261,l),
(144,62,ls),
(144,-81,o),
(113,-177,o),
(40,-265,cs),
(20,-289,l),
(92,-348,l)
);
},
{
closed = 1;
nodes = (
(308,125,l),
(308,917,l),
(144,976,l),
(144,125,l)
);
},
{
closed = 1;
nodes = (
(296,990,l),
(51,990,l),
(44,900,l),
(177,853,l),
(292,818,l)
);
},
{
closed = 1;
nodes = (
(974,976,l),
(814,976,l),
(814,84,l),
(974,-1,l)
);
},
{
closed = 1;
nodes = (
(974,808,l),
(974,965,l),
(936,863,l),
(981,873,o),
(1023,887,o),
(1055,902,c),
(1062,990,l),
(723,990,l),
(716,900,l),
(849,871,l),
(814,965,l),
(814,808,l)
);
}
);
width = 1092;
}
);
metricRight = N;
unicode = 413;
},
{
color = 4;
glyphname = Eng;
kernLeft = H;
kernRight = H;
layers = (
{
layerId = "8D9E6227-A940-4CC2-85D6-810E74B12C63";
shapes = (
{
closed = 1;
nodes = (
(922,96,l),
(290,990,l),
(178,886,l),
(810,-6,l)
);
},
{
closed = 1;
nodes = (
(421,0,l),
(426,66,l),
(277,95,l),
(296,28,l),
(296,168,l),
(170,168,l),
(170,28,l),
(190,103,l),
(143,92,o),
(97,78,o),
(63,64,c),
(58,0,l)
);
},
{
closed = 1;
nodes = (
(296,15,l),
(296,917,l),
(170,976,l),
(170,15,l)
);
},
{
closed = 1;
nodes = (
(817,-298,o),
(881,-220,o),
(909,-119,cs),
(923,-68,o),
(930,4,o),
(930,105,cs),
(930,378,l),
(790,178,l),
(790,70,ls),
(790,-81,o),
(761,-180,o),
(690,-265,cs),
(661,-300,l),
(712,-342,l)
);
},
{
closed = 1;
nodes = (
(290,990,l),
(59,990,l),
(54,924,l),
(187,877,l),
(304,818,l)
);
},
{
closed = 1;
nodes = (
(930,129,l),
(930,976,l),
(804,976,l),
(804,44,l)
);
},
{
closed = 1;
nodes = (
(930,822,l),
(930,962,l),
(909,887,l),
(951,896,o),
(994,910,o),
(1031,926,c),
(1036,990,l),
(693,990,l),
(688,924,l),
(821,895,l),
(804,962,l),
(804,822,l)
);
}
);
width = 1076;
},
{
layerId = "106916A4-8C74-485A-AD82-F5ABB18EF495";
shapes = (
{
closed = 1;
nodes = (
(964,174,l),
(296,990,l),
(154,808,l),
(822,-6,l)
);
},
{
closed = 1;
nodes = (
(409,0,l),
(416,90,l),
(269,118,l),
(304,25,l),
(304,182,l),
(144,182,l),
(144,25,l),
(182,127,l),
(135,116,o),
(89,102,o),
(57,88,c),
(50,0,l)
);
},
{
closed = 1;
nodes = (
(304,15,l),
(304,917,l),
(144,976,l),
(144,15,l)
);
},
{
closed = 1;
nodes = (
(851,-293,o),
(925,-215,o),
(953,-119,cs),
(968,-67,o),
(974,8,o),
(974,113,cs),
(974,311,l),
(762,261,l),
(762,62,ls),
(762,-90,o),
(734,-186,o),
(668,-265,cs),
(648,-289,l),
(720,-348,l)
);
},
{
closed = 1;
nodes = (
(296,990,l),
(51,990,l),
(44,900,l),
(177,853,l),
(292,818,l)
);
},
{
closed = 1;
nodes = (
(974,199,l),
(974,976,l),
(814,976,l),
(814,84,l)
);
},
{
closed = 1;
nodes = (
(974,808,l),
(974,965,l),
(936,863,l),
(981,873,o),
(1023,887,o),
(1055,902,c),
(1062,990,l),
(723,990,l),
(716,900,l),
(849,871,l),
(814,965,l),
(814,808,l)
);
}
);
width = 1092;
}
);
metricLeft = N;
metricRight = N;
unicode = 330;
},
{
color = 4;
glyphname = O;
kernLeft = O;
kernRight = O;
layers = (
{
anchors = (
{
name = bottom;
pos = (537,0);
},
{
name = horn;
pos = (811,990);
},
{
name = ogonek;
pos = (724,0);
},
{
name = top;
pos = (537,990);
}
);
layerId = "8D9E6227-A940-4CC2-85D6-810E74B12C63";
shapes = (
{
closed = 1;
nodes = (
(823,-18,o),
(1006,182,o),
(1006,496,cs),
(1006,809,o),
(823,1008,o),
(537,1008,cs),
(250,1008,o),
(68,808,o),
(68,494,cs),
(68,181,o),
(250,-18,o),
(536,-18,cs)
);
},
{
closed = 1;
nodes = (
(369,80,o),
(260,240,o),
(260,532,cs),
(260,786,o),
(342,910,o),
(512,910,cs),
(705,910,o),
(814,749,o),
(814,458,cs),
(814,203,o),
(732,80,o),
(562,80,cs)
);
}
);
width = 1074;
},
{
anchors = (
{
name = bottom;
pos = (549,0);
},
{
name = horn;
pos = (823,990);
},
{
name = ogonek;
pos = (736,0);
},
{
name = top;
pos = (549,990);
}
);
layerId = "106916A4-8C74-485A-AD82-F5ABB18EF495";
shapes = (
{
closed = 1;
nodes = (
(859,-18,o),
(1056,182,o),
(1056,496,cs),
(1056,809,o),
(859,1008,o),
(549,1008,cs),
(239,1008,o),
(42,808,o),
(42,494,cs),
(42,181,o),
(239,-18,o),
(548,-18,cs)
);
},
{
closed = 1;
nodes = (
(407,110,o),
(314,262,o),
(314,534,cs),
(314,768,o),
(383,880,o),
(525,880,cs),
(691,880,o),
(784,728,o),
(784,456,cs),
(784,222,o),
(715,110,o),
(573,110,cs)
);
}
);
width = 1098;
}
);
unicode = 79;
},
{
color = 4;
glyphname = Oogonek;
kernLeft = O;
kernRight = O;
layers = (
{
layerId = "8D9E6227-A940-4CC2-85D6-810E74B12C63";
shapes = (
{
closed = 1;
nodes = (
(635,-343,o),
(684,-332,o),
(722,-311,c),
(727,-237,l),
(691,-246,o),
(656,-251,o),
(632,-251,cs),
(579,-251,o),
(553,-228,o),
(553,-179,cs),
(553,-68,o),
(685,-5,o),
(735,18,cs),
(916,103,o),
(1006,266,o),
(1006,496,c),
(735,61,l),
(529,7,o),
(415,-90,o),
(415,-209,cs),
(415,-295,o),
(475,-343,o),
(584,-343,cs)
);
},
{
ref = O;
}
);
width = 1074;
},
{
layerId = "106916A4-8C74-485A-AD82-F5ABB18EF495";
shapes = (
{
closed = 1;
nodes = (
(656,-349,o),
(710,-336,o),
(749,-312,c),
(755,-227,l),
(719,-235,o),
(687,-239,o),
(666,-239,cs),
(619,-239,o),
(597,-217,o),
(597,-172,cs),
(597,-101,o),
(651,-29,o),
(747,12,cs),
(832,48,o),
(1056,143,o),
(1056,496,c),
(734,49,l),
(526,3,o),
(411,-89,o),
(411,-209,cs),
(411,-299,o),
(477,-349,o),
(596,-349,cs)
);
},
{
ref = O;
}
);
width = 1098;
}
);
metricLeft = O;
metricRight = O;
unicode = 490;
},
{
color = 4;
glyphname = Oslash;
kernLeft = O;
kernRight = O;
layers = (
{
anchors = (
{
name = top;
pos = (537,990);
}
);
layerId = "8D9E6227-A940-4CC2-85D6-810E74B12C63";
shapes = (
{
closed = 1;
nodes = (
(823,-18,o),
(1006,182,o),
(1006,496,cs),
(1006,809,o),
(823,1008,o),
(537,1008,cs),
(250,1008,o),
(68,808,o),
(68,494,cs),
(68,181,o),
(250,-18,o),
(536,-18,cs)
);
},
{
closed = 1;
nodes = (
(369,80,o),
(260,240,o),
(260,532,cs),
(260,786,o),
(342,910,o),
(512,910,cs),
(705,910,o),
(814,749,o),
(814,458,cs),
(814,203,o),
(732,80,o),
(562,80,cs)
);
},
{
closed = 1;
nodes = (
(986,992,l),
(914,1049,l),
(88,-2,l),
(160,-59,l)
);
}
);
width = 1074;
},
{
anchors = (
{
name = top;
pos = (549,990);
}
);
layerId = "106916A4-8C74-485A-AD82-F5ABB18EF495";
shapes = (
{
closed = 1;
nodes = (
(859,-18,o),
(1056,182,o),
(1056,496,cs),
(1056,805,o),
(855,1008,o),
(549,1008,cs),
(239,1008,o),
(42,808,o),
(42,494,cs),
(42,185,o),
(243,-18,o),
(548,-18,cs)
);
},
{
closed = 1;
nodes = (
(403,110,o),
(312,259,o),
(312,534,cs),
(312,767,o),
(381,880,o),
(525,880,cs),
(695,880,o),
(786,731,o),
(786,456,cs),
(786,223,o),
(717,110,o),
(573,110,cs)
);
},
{
closed = 1;
nodes = (
(1004,984,l),
(917,1053,l),
(94,6,l),
(181,-63,l)
);
}
);
width = 1098;
}
);
metricLeft = O;
metricRight = O;
unicode = 216;
},
{
color = 4;
glyphname = OE;
kernLeft = O;
kernRight = E;
layers = (
{
layerId = "8D9E6227-A940-4CC2-85D6-810E74B12C63";
shapes = (
{
closed = 1;
nodes = (
(597,-8,o),
(687,0,o),
(785,0,c),
(785,100,l),
(697,100,o),
(615,92,o),
(562,92,cs),
(368,92,o),
(260,249,o),
(260,532,cs),
(260,779,o),
(342,898,o),
(512,898,cs),
(585,898,o),
(684,890,o),
(785,890,c),
(785,990,l),
(687,990,o),
(597,998,o),
(537,998,cs),
(250,998,o),
(68,802,o),
(68,494,cs),
(68,187,o),
(250,-8,o),
(536,-8,cs)
);
},
{
closed = 1;
nodes = (
(1331,0,l),
(1307,100,l),
(732,100,l),
(732,0,l)
);
},
{
closed = 1;
nodes = (
(880,15,l),
(880,976,l),
(712,976,l),
(712,15,l)
);
},
{
closed = 1;
nodes = (
(1359,99,o),
(1374,215,o),
(1372,285,c),
(1295,285,l),
(1172,53,l),
(1331,0,l)
);
},
{
closed = 1;
nodes = (
(1182,454,l),
(1190,562,l),
(781,562,l),
(781,454,l)
);
},
{
closed = 1;
nodes = (
(1301,890,l),
(1320,990,l),
(732,990,l),
(732,890,l)
);
},
{
closed = 1;
nodes = (
(1338,723,l),
(1344,804,o),
(1338,900,o),
(1320,990,c),
(1169,933,l),
(1259,723,l)
);
}
);
width = 1424;
},
{
layerId = "106916A4-8C74-485A-AD82-F5ABB18EF495";
shapes = (
{
closed = 1;
nodes = (
(609,-8,o),
(699,0,o),
(797,0,c),
(797,130,l),
(709,130,o),
(626,122,o),
(573,122,cs),
(407,122,o),
(314,269,o),
(314,534,cs),
(314,759,o),
(383,868,o),
(525,868,cs),
(598,868,o),
(696,860,o),
(797,860,c),
(797,990,l),
(699,990,o),
(609,998,o),
(549,998,cs),
(239,998,o),
(42,802,o),
(42,494,cs),
(42,187,o),
(239,-8,o),
(548,-8,cs)
);
},
{
closed = 1;
nodes = (
(1353,0,l),
(1329,130,l),
(702,130,l),
(702,0,l)
);
},
{
closed = 1;
nodes = (
(922,15,l),
(922,976,l),
(682,976,l),
(682,15,l)
);
},
{
closed = 1;
nodes = (
(1385,111,o),
(1401,224,o),
(1398,315,c),
(1291,315,l),
(1158,83,l),
(1353,0,l)
);
},
{
closed = 1;
nodes = (
(1205,441,l),
(1215,575,l),
(793,575,l),
(793,441,l)
);
},
{
closed = 1;
nodes = (
(1323,860,l),
(1342,990,l),
(702,990,l),
(702,860,l)
);
},
{
closed = 1;
nodes = (
(1364,693,l),
(1370,788,o),
(1363,894,o),
(1342,990,c),
(1155,903,l),
(1255,693,l)
);
}
);
width = 1440;
}
);
metricLeft = O;
metricRight = E;
unicode = 338;
},
{
color = 4;
glyphname = P;
kernLeft = H;
kernRight = P;
layers = (
{
layerId = "8D9E6227-A940-4CC2-85D6-810E74B12C63";
shapes = (
{
closed = 1;
nodes = (
(695,350,o),
(851,483,o),
(851,691,cs),
(851,883,o),
(720,990,o),
(484,990,cs),
(235,990,l),
(235,890,l),
(475,890,ls),
(603,890,o),
(665,818,o),
(665,669,cs),
(665,517,o),
(601,444,o),
(467,444,cs),
(401,444,o),
(325,448,o),
(250,456,c),
(235,362,l),
(311,354,o),
(386,350,o),
(449,350,cs)
);
},
{
closed = 1;
nodes = (
(338,15,l),
(338,976,l),
(170,976,l),
(170,15,l)
);
},
{
closed = 1;
nodes = (
(479,0,l),
(484,66,l),
(316,95,l),
(338,28,l),
(338,168,l),
(170,168,l),
(170,28,l),
(190,103,l),
(143,92,o),
(97,78,o),
(63,64,c),
(58,0,l)
);
},
{
angle = 180;
pos = (507,990);
ref = _serif.cap;
}
);
width = 893;
},
{
layerId = "106916A4-8C74-485A-AD82-F5ABB18EF495";
shapes = (
{
closed = 1;
nodes = (
(732,320,o),
(903,458,o),
(903,676,cs),
(903,878,o),
(758,990,o),
(498,990,cs),
(249,990,l),
(249,860,l),
(489,860,ls),
(589,860,o),
(637,793,o),
(637,654,cs),
(637,512,o),
(586,444,o),
(481,444,cs),
(415,444,o),
(339,448,o),
(264,456,c),
(249,332,l),
(325,324,o),
(400,320,o),
(463,320,cs)
);
},
{
closed = 1;
nodes = (
(382,15,l),
(382,976,l),
(142,976,l),
(142,15,l)
);
},
{
closed = 1;
nodes = (
(503,0,l),
(510,90,l),
(347,117,l),
(382,25,l),
(382,182,l),
(142,182,l),
(142,25,l),
(180,127,l),
(133,116,o),
(87,102,o),
(55,88,c),
(48,0,l)
);
},
{
angle = 180;
pos = (515,990);
ref = _serif.cap;
}
);
width = 925;
}
);
metricLeft = H;
unicode = 80;
},
{
color = 4;
glyphname = Thorn;
kernLeft = H;
kernRight = O;
layers = (
{
layerId = "8D9E6227-A940-4CC2-85D6-810E74B12C63";
shapes = (
{
closed = 1;
nodes = (
(691,198,o),
(851,323,o),
(851,519,cs),
(851,698,o),
(716,798,o),
(474,798,cs),
(215,798,l),
(215,698,l),
(465,698,ls),
(600,698,o),
(665,633,o),
(665,497,cs),
(665,359,o),
(597,292,o),
(457,292,cs),
(391,292,o),
(315,296,o),
(240,304,c),
(225,210,l),
(301,202,o),
(376,198,o),
(439,198,cs)
);
},
{
closed = 1;
nodes = (
(457,0,l),
(462,66,l),
(306,95,l),
(326,28,l),
(326,168,l),
(160,168,l),
(160,28,l),
(180,102,l),
(137,94,o),
(95,80,o),
(63,64,c),
(58,0,l)
);
},
{
closed = 1;
nodes = (
(326,15,l),
(326,976,l),
(160,976,l),
(160,15,l)
);
},
{
closed = 1;
nodes = (
(326,822,l),
(326,962,l),
(303,888,l),
(362,899,o),
(416,913,o),
(453,926,c),
(458,990,l),
(59,990,l),
(54,924,l),
(176,895,l),
(160,962,l),
(160,822,l)
);
}
);
width = 873;
},
{
layerId = "106916A4-8C74-485A-AD82-F5ABB18EF495";
shapes = (
{
closed = 1;
nodes = (
(728,183,o),
(903,314,o),
(903,519,cs),
(903,708,o),
(755,813,o),
(488,813,cs),
(239,813,l),
(239,683,l),
(479,683,ls),
(586,683,o),
(637,622,o),
(637,497,cs),
(637,369,o),
(583,307,o),
(471,307,cs),
(405,307,o),
(329,311,o),
(254,319,c),
(239,195,l),
(315,187,o),
(390,183,o),
(453,183,cs)
);
},
{
closed = 1;
nodes = (
(481,0,l),
(488,90,l),
(331,118,l),
(368,25,l),
(368,182,l),
(132,182,l),
(132,25,l),
(170,127,l),
(127,117,o),
(86,104,o),
(55,88,c),
(48,0,l)
);
},
{
closed = 1;
nodes = (
(368,15,l),
(368,976,l),
(132,976,l),
(132,15,l)
);
},
{
closed = 1;
nodes = (
(368,788,l),
(368,965,l),
(327,865,l),
(385,875,o),
(438,888,o),
(477,902,c),
(484,990,l),
(51,990,l),
(44,900,l),
(167,871,l),
(132,965,l),
(132,808,l)
);
}
);
width = 905;
}
);
metricLeft = H;
metricRight = "=P-20";
unicode = 222;
},
{
color = 4;
glyphname = Q;
kernLeft = O;
kernRight = O;
layers = (
{
layerId = "8D9E6227-A940-4CC2-85D6-810E74B12C63";
shapes = (
{
closed = 1;
nodes = (
(1041,-266,o),
(1135,-245,o),
(1197,-207,c),
(1204,-123,l),
(1142,-147,o),
(1064,-160,o),
(992,-160,cs),
(815,-160,o),
(703,-81,o),
(649,82,c),
(481,17,l),
(555,-165,o),
(719,-266,o),
(940,-266,cs)
);
},
{
ref = O;
}
);
width = 1073;
},
{
layerId = "106916A4-8C74-485A-AD82-F5ABB18EF495";
shapes = (
{
closed = 1;
nodes = (
(1067,-294,o),
(1176,-270,o),
(1237,-233,c),
(1246,-115,l),
(1182,-136,o),
(1108,-148,o),
(1044,-148,cs),
(872,-148,o),
(760,-62,o),
(699,115,c),
(457,31,l),
(538,-178,o),
(717,-294,o),
(958,-294,cs)
);
},
{
pos = (4,0);
ref = O;
}
);
width = 1098;
}
);
unicode = 81;
},
{
color = 4;
glyphname = R;
kernLeft = H;
kernRight = R;
layers = (
{
anchors = (
{
name = bottom;
pos = (520,0);
},
{
name = top;
pos = (454,990);
}
);
layerId = "8D9E6227-A940-4CC2-85D6-810E74B12C63";
shapes = (
{
closed = 1;
nodes = (
(941,0,l),
(946,70,l),
(812,97,l),
(882,65,l),
(578,449,l),
(417,406,l),
(724,0,l)
);
},
{
closed = 1;
nodes = (
(453,388,o),
(477,389,o),
(499,392,c),
(562,409,l),
(730,429,o),
(836,545,o),
(836,707,cs),
(836,889,o),
(703,990,o),
(464,990,cs),
(235,990,l),
(235,890,l),
(455,890,ls),
(588,890,o),
(652,823,o),
(652,685,cs),
(652,545,o),
(585,478,o),
(447,478,cs),
(381,478,o),
(305,482,o),
(230,490,c),
(215,400,l),
(291,392,o),
(366,388,o),
(429,388,cs)
);
},
{
closed = 1;
nodes = (
(338,15,l),
(338,976,l),
(170,976,l),
(170,15,l)
);
},
{
closed = 1;
nodes = (
(441,0,l),
(446,66,l),
(322,95,l),
(338,28,l),
(338,168,l),
(170,168,l),
(170,28,l),
(190,103,l),
(143,92,o),
(97,78,o),
(63,64,c),
(58,0,l)
);
},
{
angle = 180;
pos = (507,990);
ref = _serif.cap;
}
);
width = 964;
},
{
anchors = (
{
name = bottom;
pos = (534,0);
},
{
name = top;
pos = (468,990);
}
);
layerId = "106916A4-8C74-485A-AD82-F5ABB18EF495";
shapes = (
{
closed = 1;
nodes = (
(991,0,l),
(998,94,l),
(864,119,l),
(954,89,l),
(650,473,l),
(411,406,l),
(718,0,l)
);
},
{
closed = 1;
nodes = (
(467,368,o),
(491,369,o),
(513,372,c),
(576,399,l),
(777,430,o),
(888,538,o),
(888,701,cs),
(888,887,o),
(742,990,o),
(478,990,cs),
(249,990,l),
(249,860,l),
(469,860,ls),
(574,860,o),
(624,801,o),
(624,678,cs),
(624,550,o),
(571,488,o),
(461,488,cs),
(395,488,o),
(319,492,o),
(244,500,c),
(229,380,l),
(305,372,o),
(380,368,o),
(443,368,cs)
);
},
{
closed = 1;
nodes = (
(382,15,l),
(382,976,l),
(142,976,l),
(142,15,l)
);
},
{
closed = 1;
nodes = (
(465,0,l),
(472,90,l),
(349,119,l),
(382,25,l),
(382,182,l),
(142,182,l),
(142,25,l),
(180,127,l),
(133,116,o),
(87,102,o),
(55,88,c),
(48,0,l)
);
},
{
angle = 180;
pos = (515,990);
ref = _serif.cap;
}
);
width = 996;
}
);
metricLeft = H;
unicode = 82;
},
{
color = 4;
glyphname = S;
kernLeft = S;
kernRight = S;
layers = (
{
anchors = (
{
name = bottom;
pos = (398,0);
},
{
name = top;
pos = (394,990);
}
);
guides = (
{
angle = 66.2838;
pos = (324,425);
}
);
layerId = "8D9E6227-A940-4CC2-85D6-810E74B12C63";
shapes = (
{
closed = 1;
nodes = (
(600,-16,o),
(745,101,o),
(745,286,cs),
(745,423,o),
(665,514,o),
(498,567,cs),
(400,598,ls),
(282,635,o),
(233,685,o),
(233,769,cs),
(233,861,o),
(291,912,o),
(396,912,cs),
(464,912,o),
(543,890,o),
(618,851,c),
(522,933,l),
(610,729,l),
(687,729,l),
(692,794,o),
(688,871,o),
(677,946,c),
(602,985,o),
(510,1006,o),
(419,1006,cs),
(206,1006,o),
(71,891,o),
(71,711,cs),
(71,571,o),
(153,479,o),
(324,425,cs),
(422,394,ls),
(533,360,o),
(579,312,o),
(579,231,cs),
(579,133,o),
(513,78,o),
(395,78,cs),
(321,78,o),
(242,100,o),
(173,139,c),
(251,64,l),
(143,315,l),
(70,315,l),
(63,252,o),
(66,163,o),
(80,68,c),
(152,14,o),
(256,-16,o),
(372,-16,cs)
);
}
);
width = 813;
},
{
anchors = (
{
name = bottom;
pos = (418,0);
},
{
name = top;
pos = (402,990);
}
);
guides = (
{
angle = 66.2838;
pos = (329,395);
}
);
layerId = "106916A4-8C74-485A-AD82-F5ABB18EF495";
shapes = (
{
closed = 1;
nodes = (
(630,-16,o),
(787,109,o),
(787,306,cs),
(787,449,o),
(704,543,o),
(531,597,cs),
(415,633,ls),
(309,666,o),
(265,707,o),
(265,773,cs),
(265,844,o),
(315,884,o),
(406,884,cs),
(474,884,o),
(553,862,o),
(628,823,c),
(524,897,l),
(622,693,l),
(729,693,l),
(734,763,o),
(730,851,o),
(717,940,c),
(635,982,o),
(532,1006,o),
(429,1006,cs),
(197,1006,o),
(49,884,o),
(49,693,cs),
(49,547,o),
(134,450,o),
(311,395,cs),
(427,359,ls),
(526,328,o),
(567,289,o),
(567,225,cs),
(567,149,o),
(509,106,o),
(405,106,cs),
(331,106,o),
(252,128,o),
(183,167,c),
(269,100,l),
(151,351,l),
(48,351,l),
(40,279,o),
(44,180,o),
(60,74,c),
(140,16,o),
(255,-16,o),
(382,-16,cs)
);
}
);
width = 833;
}
);
metricLeft = "=s+6";
metricRight = "=s+6";
unicode = 83;
},
{
color = 4;
glyphname = Germandbls;
kernLeft = Germandbls;
kernRight = S;
layers = (
{
layerId = "8D9E6227-A940-4CC2-85D6-810E74B12C63";
shapes = (
{
closed = 1;
nodes = (
(309,6,l),
(309,606,ls),
(309,804,o),
(392,914,o),
(541,914,cs),
(607,914,o),
(712,893,o),
(812,859,c),
(879,833,l),
(880,877,o),
(877,923,o),
(871,960,c),
(784,990,o),
(655,1012,o),
(564,1012,cs),
(306,1012,o),
(142,831,o),
(142,546,cs),
(142,6,l)
);
},
{
closed = 1;
nodes = (
(309,0,l),
(309,168,l),
(142,168,l),
(142,28,l),
(162,103,l),
(115,92,o),
(69,78,o),
(35,64,c),
(30,0,l)
);
},
{
closed = 1;
nodes = (
(865,-16,o),
(980,70,o),
(980,226,cs),
(980,459,o),
(734,441,o),
(734,613,cs),
(734,690,o),
(781,761,o),
(879,833,c),
(830,936,l),
(665,841,o),
(574,710,o),
(574,568,cs),
(574,340,o),
(814,347,o),
(814,180,cs),
(814,111,o),
(771,78,o),
(682,78,cs),
(608,78,o),
(529,100,o),
(460,139,c),
(614,0,l),
(506,251,l),
(433,251,l),
(427,198,o),
(430,109,o),
(443,24,c),
(501,-2,o),
(579,-16,o),
(659,-16,cs)
);
}
);
width = 1048;
},
{
layerId = "106916A4-8C74-485A-AD82-F5ABB18EF495";
shapes = (
{
closed = 1;
nodes = (
(353,6,l),
(353,600,ls),
(353,783,o),
(422,884,o),
(545,884,cs),
(606,884,o),
(725,860,o),
(850,821,c),
(917,803,l),
(918,858,o),
(915,909,o),
(909,948,c),
(801,987,o),
(669,1012,o),
(570,1012,cs),
(291,1012,o),
(114,817,o),
(114,510,cs),
(114,6,l)
);
},
{
closed = 1;
nodes = (
(353,0,l),
(353,182,l),
(114,182,l),
(114,25,l),
(152,127,l),
(105,116,o),
(59,102,o),
(27,88,c),
(20,0,l)
);
},
{
closed = 1;
nodes = (
(891,-16,o),
(1018,79,o),
(1018,251,cs),
(1018,488,o),
(778,476,o),
(778,637,cs),
(778,707,o),
(823,761,o),
(917,803,c),
(861,916,l),
(659,841,o),
(562,728,o),
(562,569,cs),
(562,322,o),
(796,322,o),
(796,186,cs),
(796,133,o),
(760,108,o),
(686,108,cs),
(616,108,o),
(536,130,o),
(464,169,c),
(664,24,l),
(546,275,l),
(443,275,l),
(437,204,o),
(441,112,o),
(455,18,c),
(509,-4,o),
(583,-16,o),
(663,-16,cs)
);
}
);
width = 1064;
}
);
metricLeft = "=U-10";
metricRight = S;
unicode = 7838;
},
{
color = 4;
glyphname = T;
kernLeft = T;
kernRight = T;
layers = (
{
anchors = (
{
name = bar;
pos = (460,473);
},
{
name = bottom;
pos = (470,0);
},
{
name = top;
pos = (460,990);
}
);
layerId = "8D9E6227-A940-4CC2-85D6-810E74B12C63";
shapes = (
{
closed = 1;
nodes = (
(544,15,l),
(544,976,l),
(376,976,l),
(376,15,l)
);
},
{
closed = 1;
nodes = (
(101,695,l),
(204,933,l),
(49,990,l),
(31,900,o),
(25,795,o),
(33,695,c)
);
},
{
closed = 1;
nodes = (
(835,890,l),
(871,990,l),
(49,990,l),
(67,890,l)
);
},
{
closed = 1;
nodes = (
(887,695,l),
(895,795,o),
(889,900,o),
(871,990,c),
(716,933,l),
(819,695,l)
);
},
{
closed = 1;
nodes = (
(671,0,l),
(676,66,l),
(525,95,l),
(544,28,l),
(544,168,l),
(376,168,l),
(376,28,l),
(396,102,l),
(344,92,o),
(293,79,o),
(253,64,c),
(248,0,l)
);
}
);
width = 920;
},
{
anchors = (
{
name = bar;
pos = (464,470);
},
{
name = bottom;
pos = (474,0);
},
{
name = top;
pos = (464,990);
}
);
layerId = "106916A4-8C74-485A-AD82-F5ABB18EF495";
shapes = (
{
closed = 1;
nodes = (
(584,15,l),
(584,976,l),
(344,976,l),
(344,15,l)
);
},
{
closed = 1;
nodes = (
(121,665,l),
(234,903,l),
(40,990,l),
(20,889,o),
(14,773,o),
(23,665,c)
);
},
{
closed = 1;
nodes = (
(853,860,l),
(888,990,l),
(40,990,l),
(57,860,l)
);
},
{
closed = 1;
nodes = (
(905,665,l),
(914,773,o),
(908,889,o),
(888,990,c),
(694,903,l),
(807,665,l)
);
},
{
closed = 1;
nodes = (
(691,0,l),
(698,90,l),
(549,118,l),
(584,25,l),
(584,182,l),
(344,182,l),
(344,25,l),
(382,124,l),
(330,116,o),
(279,104,o),
(241,88,c),
(234,0,l)
);
}
);
width = 928;
}
);
unicode = 84;
},
{
color = 4;
glyphname = U;
kernLeft = U;
kernRight = U;
layers = (
{
anchors = (
{
name = bottom;
pos = (528,0);
},
{
name = ogonek;
pos = (708,0);
},
{
name = top;
pos = (539,990);
}
);
layerId = "8D9E6227-A940-4CC2-85D6-810E74B12C63";
shapes = (
{
closed = 1;
nodes = (
(745,-17,o),
(890,102,o),
(890,289,c),
(764,310,l),
(764,176,o),
(684,101,o),
(541,101,cs),
(398,101,o),
(318,176,o),
(318,310,c),
(146,289,l),
(146,102,o),
(291,-17,o),
(518,-17,cs)
);
},
{
closed = 1;
nodes = (
(318,310,l),
(318,976,l),
(146,976,l),
(146,289,l)
);
},
{
closed = 1;
nodes = (
(318,822,l),
(318,962,l),
(295,887,l),
(357,900,o),
(408,914,o),
(439,926,c),
(444,990,l),
(45,990,l),
(40,924,l),
(161,895,l),
(146,962,l),
(146,822,l)
);
},
{
closed = 1;
nodes = (
(890,976,l),
(764,976,l),
(764,310,l),
(890,289,l)
);
},
{
closed = 1;
nodes = (
(890,822,l),
(890,962,l),
(871,887,l),
(917,898,o),
(958,912,o),
(987,926,c),
(992,990,l),
(639,990,l),
(634,924,l),
(783,895,l),
(764,962,l),
(764,822,l)
);
}
);
width = 1032;
},
{
anchors = (
{
name = bottom;
pos = (536,0);
},
{
name = ogonek;
pos = (716,0);
},
{
name = top;
pos = (547,990);
}
);
layerId = "106916A4-8C74-485A-AD82-F5ABB18EF495";
shapes = (
{
closed = 1;
nodes = (
(775,-17,o),
(934,102,o),
(934,289,c),
(758,320,l),
(758,205,o),
(686,141,o),
(559,141,cs),
(432,141,o),
(362,205,o),
(362,320,c),
(118,289,l),
(118,102,o),
(277,-17,o),
(526,-17,cs)
);
},
{
closed = 1;
nodes = (
(362,320,l),
(362,976,l),
(118,976,l),
(118,289,l)
);
},
{
closed = 1;
nodes = (
(362,808,l),
(362,965,l),
(324,865,l),
(388,879,o),
(438,893,o),
(463,902,c),
(470,990,l),
(37,990,l),
(30,900,l),
(153,870,l),
(118,965,l),
(118,808,l)
);
},
{
closed = 1;
nodes = (
(934,976,l),
(758,976,l),
(758,320,l),
(934,289,l)
);
},
{
closed = 1;
nodes = (
(934,808,l),
(934,965,l),
(896,862,l),
(945,875,o),
(986,889,o),
(1011,902,c),
(1018,990,l),
(653,990,l),
(646,900,l),
(793,872,l),
(758,965,l),
(758,808,l)
);
}
);
width = 1048;
}
);
metricLeft = "=H-14";
metricRight = "=H-14";
unicode = 85;
},
{
color = 4;
glyphname = Uhorn;
kernLeft = U;
kernRight = U;
layers = (
{
anchors = (
{
name = bottom;
pos = (528,0);
},
{
name = ogonek;
pos = (708,0);
},
{
name = top;
pos = (539,990);
}
);
layerId = "8D9E6227-A940-4CC2-85D6-810E74B12C63";
shapes = (
{
closed = 1;
nodes = (
(745,-17,o),
(890,102,o),
(890,289,c),
(764,310,l),
(764,176,o),
(684,101,o),
(541,101,cs),
(398,101,o),
(318,176,o),
(318,310,c),
(146,289,l),
(146,102,o),
(291,-17,o),
(518,-17,cs)
);
},
{
closed = 1;
nodes = (
(318,310,l),
(318,976,l),
(146,976,l),
(146,289,l)
);
},
{
closed = 1;
nodes = (
(318,822,l),
(318,962,l),
(295,887,l),
(357,900,o),
(408,914,o),
(439,926,c),
(444,990,l),
(45,990,l),
(40,924,l),
(161,895,l),
(146,962,l),
(146,822,l)
);
},
{
closed = 1;
nodes = (
(890,976,l),
(764,976,l),
(764,310,l),
(890,289,l)
);
},
{
closed = 1;
nodes = (
(890,822,l),
(890,962,l),
(871,907,l),
(917,918,o),
(958,932,o),
(987,946,c),
(992,990,l),
(639,990,l),
(634,924,l),
(783,895,l),
(764,962,l),
(764,822,l)
);
},
{
closed = 1;
nodes = (
(1020,925,o),
(1102,999,o),
(1102,1101,cs),
(1102,1152,o),
(1082,1203,o),
(1047,1244,c),
(1001,1227,o),
(950,1199,o),
(912,1167,c),
(942,1132,o),
(956,1100,o),
(956,1068,cs),
(956,1020,o),
(923,990,o),
(868,990,c),
(872,893,l)
);
}
);
width = 1052;
},
{
anchors = (
{
name = bottom;
pos = (536,0);
},
{
name = ogonek;
pos = (716,0);
},
{
name = top;
pos = (547,990);
}
);
layerId = "106916A4-8C74-485A-AD82-F5ABB18EF495";
shapes = (
{
closed = 1;
nodes = (
(775,-17,o),
(934,102,o),
(934,289,c),
(758,320,l),
(758,205,o),
(686,141,o),
(559,141,cs),
(432,141,o),
(362,205,o),
(362,320,c),
(118,289,l),
(118,102,o),
(277,-17,o),
(526,-17,cs)
);
},
{
closed = 1;
nodes = (
(362,320,l),
(362,976,l),
(118,976,l),
(118,289,l)
);
},
{
closed = 1;
nodes = (
(362,808,l),
(362,965,l),
(324,865,l),
(388,879,o),
(438,893,o),
(463,902,c),
(470,990,l),
(37,990,l),
(30,900,l),
(153,870,l),
(118,965,l),
(118,808,l)
);
},
{
closed = 1;
nodes = (
(934,976,l),
(758,976,l),
(758,320,l),
(934,289,l)
);
},
{
closed = 1;
nodes = (
(934,808,l),
(934,965,l),
(898,894,l),
(947,907,o),
(988,921,o),
(1013,934,c),
(1018,990,l),
(653,990,l),
(646,900,l),
(793,872,l),
(758,965,l),
(758,808,l)
);
},
{
closed = 1;
nodes = (
(1048,905,o),
(1140,989,o),
(1140,1104,cs),
(1140,1160,o),
(1119,1213,o),
(1082,1251,c),
(1022,1229,o),
(963,1195,o),
(917,1156,c),
(942,1127,o),
(954,1097,o),
(954,1065,cs),
(954,1017,o),
(927,990,o),
(878,990,c),
(883,869,l)
);
}
);
width = 1068;
}
);
metricLeft = U;
unicode = 431;
},
{
color = 4;
glyphname = Uogonek;
kernLeft = U;
kernRight = U;
layers = (
{
layerId = "8D9E6227-A940-4CC2-85D6-810E74B12C63";
shapes = (
{
closed = 1;
nodes = (
(611,-343,o),
(662,-332,o),
(700,-311,c),
(705,-237,l),
(669,-246,o),
(634,-251,o),
(610,-251,cs),
(557,-251,o),
(531,-228,o),
(531,-179,cs),
(531,-68,o),
(663,-5,o),
(713,18,cs),
(826,70,o),
(889,164,o),
(889,289,c),
(713,61,l),
(507,7,o),
(393,-89,o),
(393,-209,cs),
(393,-295,o),
(453,-343,o),
(562,-343,cs)
);
},
{
ref = U;
}
);
width = 1032;
},
{
layerId = "106916A4-8C74-485A-AD82-F5ABB18EF495";
shapes = (
{
closed = 1;
nodes = (
(630,-349,o),
(684,-336,o),
(723,-312,c),
(729,-227,l),
(693,-235,o),
(661,-239,o),
(640,-239,cs),
(593,-239,o),
(571,-217,o),
(571,-172,cs),
(571,-105,o),
(618,-39,o),
(724,10,cs),
(813,51,o),
(934,114,o),
(934,289,c),
(711,47,l),
(501,3,o),
(385,-88,o),
(385,-209,cs),
(385,-299,o),
(451,-349,o),
(570,-349,cs)
);
},
{
ref = U;
}
);
width = 1048;
}
);
metricLeft = U;
metricRight = U;
unicode = 370;
},
{
color = 4;
glyphname = V;
kernLeft = V;
kernRight = V;
layers = (
{
layerId = "8D9E6227-A940-4CC2-85D6-810E74B12C63";
shapes = (
{
closed = 1;
nodes = (
(470,-9,o),
(526,-8,o),
(573,-1,c),
(551,63,l),
(279,915,l),
(267,890,l),
(320,899,o),
(365,911,o),
(395,924,c),
(400,990,l),
(14,990,l),
(9,924,l),
(140,896,l),
(96,925,l),
(415,-6,l)
);
},
{
closed = 1;
nodes = (
(573,-1,l),
(890,925,l),
(845,888,l),
(889,896,o),
(932,909,o),
(965,926,c),
(970,990,l),
(643,990,l),
(638,924,l),
(772,895,l),
(763,925,l),
(463,0,l)
);
}
);
width = 986;
},
{
layerId = "106916A4-8C74-485A-AD82-F5ABB18EF495";
shapes = (
{
closed = 1;
nodes = (
(450,-10,o),
(551,-8,o),
(613,-1,c),
(581,62,l),
(325,891,l),
(303,866,l),
(358,876,o),
(403,888,o),
(429,900,c),
(436,990,l),
(6,990,l),
(-1,900,l),
(126,876,l),
(68,901,l),
(375,-6,l)
);
},
{
closed = 1;
nodes = (
(613,-1,l),
(918,901,l),
(855,864,l),
(905,875,o),
(948,888,o),
(973,902,c),
(980,990,l),
(650,990,l),
(643,900,l),
(783,873,l),
(758,901,l),
(476,0,l)
);
}
);
width = 986;
}
);
unicode = 86;
},
{
color = 4;
glyphname = W;
kernLeft = V;
kernRight = V;
layers = (
{
anchors = (
{
name = top;
pos = (753,990);
}
);
layerId = "8D9E6227-A940-4CC2-85D6-810E74B12C63";
shapes = (
{
closed = 1;
nodes = (
(417,-10,o),
(478,-8,o),
(519,-1,c),
(499,77,l),
(275,920,l),
(263,890,l),
(314,899,o),
(360,911,o),
(391,924,c),
(396,990,l),
(14,990,l),
(9,924,l),
(145,895,l),
(97,926,l),
(369,-6,l)
);
},
{
closed = 1;
nodes = (
(795,966,l),
(684,967,l),
(417,14,l),
(519,-1,l)
);
},
{
closed = 1;
nodes = (
(987,-10,o),
(1049,-8,o),
(1090,-1,c),
(1068,77,l),
(826,973,l),
(783,976,o),
(721,974,o),
(684,967,c),
(690,903,l),
(940,-6,l)
);
},
{
closed = 1;
nodes = (
(1359,924,l),
(1316,889,l),
(1364,897,o),
(1406,910,o),
(1436,926,c),
(1441,990,l),
(1119,990,l),
(1114,924,l),
(1248,895,l),
(1237,925,l),
(988,14,l),
(1090,-1,l)
);
}
);
width = 1457;
},
{
anchors = (
{
name = top;
pos = (757,990);
}
);
layerId = "106916A4-8C74-485A-AD82-F5ABB18EF495";
shapes = (
{
closed = 1;
nodes = (
(404,-10,o),
(497,-8,o),
(559,-1,c),
(530,76,l),
(321,896,l),
(299,866,l),
(354,876,o),
(399,888,o),
(425,900,c),
(432,990,l),
(6,990,l),
(-1,900,l),
(126,876,l),
(69,902,l),
(329,-6,l)
);
},
{
closed = 1;
nodes = (
(806,956,l),
(669,957,l),
(432,14,l),
(559,-1,l)
);
},
{
closed = 1;
nodes = (
(983,-10,o),
(1076,-8,o),
(1138,-1,c),
(1107,77,l),
(891,963,l),
(816,966,o),
(736,964,o),
(669,957,c),
(685,894,l),
(908,-6,l)
);
},
{
closed = 1;
nodes = (
(1395,900,l),
(1334,864,l),
(1384,875,o),
(1427,888,o),
(1452,902,c),
(1459,990,l),
(1135,990,l),
(1128,900,l),
(1267,873,l),
(1240,901,l),
(1009,15,l),
(1138,-1,l)
);
}
);
width = 1465;
}
);
metricLeft = V;
metricRight = V;
unicode = 87;
},
{
color = 4;
glyphname = X;
kernLeft = X;
kernRight = X;
layers = (
{
layerId = "8D9E6227-A940-4CC2-85D6-810E74B12C63";
shapes = (
{
closed = 1;
nodes = (
(966,0,l),
(971,66,l),
(838,95,l),
(904,57,l),
(581,534,l),
(438,466,l),
(693,74,l),
(697,100,l),
(644,91,o),
(599,79,o),
(569,66,c),
(564,0,l)
);
},
{
closed = 1;
nodes = (
(366,0,l),
(371,66,l),
(237,95,l),
(239,63,l),
(562,520,l),
(431,525,l),
(91,62,l),
(151,102,l),
(107,94,o),
(64,81,o),
(31,64,c),
(26,0,l)
);
},
{
closed = 1;
nodes = (
(569,528,l),
(314,916,l),
(310,890,l),
(363,899,o),
(408,911,o),
(436,924,c),
(441,990,l),
(41,990,l),
(36,924,l),
(169,895,l),
(103,933,l),
(426,460,l)
);
},
{
closed = 1;
nodes = (
(892,928,l),
(832,888,l),
(876,896,o),
(919,909,o),
(952,926,c),
(957,990,l),
(619,990,l),
(614,924,l),
(746,895,l),
(744,927,l),
(421,474,l),
(552,469,l)
);
}
);
width = 991;
},
{
layerId = "106916A4-8C74-485A-AD82-F5ABB18EF495";
shapes = (
{
closed = 1;
nodes = (
(1004,0,l),
(1011,90,l),
(879,118,l),
(960,81,l),
(639,534,l),
(412,466,l),
(665,98,l),
(679,124,l),
(634,116,o),
(591,104,o),
(553,90,c),
(546,0,l)
);
},
{
closed = 1;
nodes = (
(368,0,l),
(375,90,l),
(244,118,l),
(250,87,l),
(589,520,l),
(418,525,l),
(62,87,l),
(141,125,l),
(98,118,o),
(58,105,o),
(23,88,c),
(16,0,l)
);
},
{
closed = 1;
nodes = (
(626,528,l),
(372,892,l),
(358,866,l),
(403,874,o),
(446,886,o),
(482,900,c),
(489,990,l),
(33,990,l),
(26,900,l),
(158,872,l),
(77,909,l),
(398,460,l)
);
},
{
closed = 1;
nodes = (
(951,903,l),
(872,865,l),
(915,872,o),
(955,885,o),
(990,902,c),
(997,990,l),
(647,990,l),
(640,900,l),
(769,872,l),
(763,903,l),
(424,474,l),
(595,469,l)
);
}
);
width = 1021;
}
);
metricLeft = x;
metricRight = x;
unicode = 88;
},
{
color = 4;
glyphname = Y;
kernLeft = Y;
kernRight = Y;
layers = (
{
anchors = (
{
name = bottom;
pos = (474,0);
},
{
name = top;
pos = (495,990);
}
);
layerId = "8D9E6227-A940-4CC2-85D6-810E74B12C63";
shapes = (
{
closed = 1;
nodes = (
(553,339,l),
(529,403,l),
(273,915,l),
(265,890,l),
(318,899,o),
(363,911,o),
(393,924,c),
(398,990,l),
(14,990,l),
(9,924,l),
(140,896,l),
(92,925,l),
(395,334,l)
);
},
{
closed = 1;
nodes = (
(553,339,l),
(854,925,l),
(805,888,l),
(849,896,o),
(892,909,o),
(925,926,c),
(930,990,l),
(605,990,l),
(600,924,l),
(734,895,l),
(729,925,l),
(445,340,l)
);
},
{
closed = 1;
nodes = (
(558,15,l),
(558,404,l),
(390,404,l),
(390,15,l)
);
},
{
closed = 1;
nodes = (
(685,0,l),
(690,66,l),
(539,95,l),
(558,28,l),
(558,168,l),
(390,168,l),
(390,28,l),
(410,102,l),
(358,92,o),
(307,79,o),
(267,64,c),
(262,0,l)
);
}
);
width = 946;
},
{
anchors = (
{
name = bottom;
pos = (474,0);
},
{
name = top;
pos = (495,990);
}
);
layerId = "106916A4-8C74-485A-AD82-F5ABB18EF495";
shapes = (
{
closed = 1;
nodes = (
(593,349,l),
(559,413,l),
(319,891,l),
(301,866,l),
(356,876,o),
(401,888,o),
(427,900,c),
(434,990,l),
(6,990,l),
(-1,900,l),
(126,876,l),
(65,901,l),
(355,344,l)
);
},
{
closed = 1;
nodes = (
(593,349,l),
(882,901,l),
(815,864,l),
(865,875,o),
(908,888,o),
(933,902,c),
(940,990,l),
(612,990,l),
(605,900,l),
(745,873,l),
(723,901,l),
(452,350,l)
);
},
{
closed = 1;
nodes = (
(594,15,l),
(594,414,l),
(354,414,l),
(354,15,l)
);
},
{
closed = 1;
nodes = (
(701,0,l),
(708,90,l),
(559,118,l),
(594,25,l),
(594,182,l),
(354,182,l),
(354,25,l),
(392,124,l),
(340,116,o),
(289,104,o),
(251,88,c),
(244,0,l)
);
}
);
width = 946;
}
);
metricLeft = V;
metricRight = V;
unicode = 89;
},
{
color = 4;
glyphname = Z;
kernLeft = Z;
kernRight = Z;
layers = (
{
anchors = (
{
name = bottom;
pos = (444,0);
},
{
name = top;
pos = (454,990);
}
);
layerId = "8D9E6227-A940-4CC2-85D6-810E74B12C63";
shapes = (
{
closed = 1;
nodes = (
(189,0,l),
(820,904,l),
(827,990,l),
(680,990,l),
(49,86,l),
(42,0,l)
);
},
{
closed = 1;
nodes = (
(798,0,l),
(800,98,l),
(165,98,l),
(42,0,l)
);
},
{
closed = 1;
nodes = (
(141,685,l),
(248,933,l),
(93,990,l),
(75,900,o),
(69,791,o),
(77,685,c)
);
},
{
closed = 1;
nodes = (
(705,892,l),
(827,990,l),
(93,990,l),
(92,892,l)
);
},
{
closed = 1;
nodes = (
(764,325,l),
(646,62,l),
(799,0,l),
(822,114,o),
(832,230,o),
(828,325,c)
);
}
);
width = 886;
},
{
anchors = (
{
name = bottom;
pos = (460,0);
},
{
name = top;
pos = (470,990);
}
);
layerId = "106916A4-8C74-485A-AD82-F5ABB18EF495";
shapes = (
{
closed = 1;
nodes = (
(241,0,l),
(870,882,l),
(877,990,l),
(660,990,l),
(31,108,l),
(24,0,l)
);
},
{
closed = 1;
nodes = (
(846,0,l),
(850,120,l),
(185,120,l),
(24,0,l)
);
},
{
closed = 1;
nodes = (
(153,655,l),
(270,911,l),
(77,990,l),
(57,889,o),
(50,769,o),
(59,655,c)
);
},
{
closed = 1;
nodes = (
(717,870,l),
(877,990,l),
(77,990,l),
(74,870,l)
);
},
{
closed = 1;
nodes = (
(784,355,l),
(656,62,l),
(847,0,l),
(871,121,o),
(883,248,o),
(878,355,c)
);
}
);
width = 918;
}
);
metricLeft = "=z+6";
metricRight = "=z+6";
unicode = 90;
},
{
color = 4;
glyphname = J.ss03;
kernLeft = H;
kernRight = U;
layers = (
{
anchors = (
{
name = top;
pos = (246,990);
}
);
layerId = "8D9E6227-A940-4CC2-85D6-810E74B12C63";
shapes = (
{
closed = 1;
nodes = (
(342,976,l),
(174,976,l),
(174,246,l),
(342,230,l)
);
},
{
closed = 1;
nodes = (
(39,990,l),
(34,924,l),
(194,895,l),
(174,962,l),
(174,822,l),
(342,822,l),
(342,962,l),
(323,887,l),
(369,898,o),
(410,912,o),
(439,926,c),
(444,990,l)
);
},
{
closed = 1;
nodes = (
(220,-218,o),
(293,-139,o),
(321,-39,cs),
(335,12,o),
(342,84,o),
(342,185,cs),
(342,758,l),
(174,758,l),
(174,150,ls),
(174,-15,o),
(149,-114,o),
(90,-185,cs),
(61,-220,l),
(116,-262,l)
);
}
);
width = 484;
},
{
anchors = (
{
name = top;
pos = (254,990);
}
);
layerId = "106916A4-8C74-485A-AD82-F5ABB18EF495";
shapes = (
{
closed = 1;
nodes = (
(386,976,l),
(146,976,l),
(146,256,l),
(386,230,l)
);
},
{
closed = 1;
nodes = (
(31,990,l),
(24,900,l),
(179,873,l),
(146,965,l),
(146,808,l),
(386,808,l),
(386,965,l),
(348,862,l),
(397,875,o),
(438,889,o),
(463,902,c),
(470,990,l)
);
},
{
closed = 1;
nodes = (
(252,-214,o),
(338,-133,o),
(365,-39,cs),
(380,13,o),
(386,88,o),
(386,193,cs),
(386,400,l),
(146,381,l),
(146,142,ls),
(146,-23,o),
(123,-119,o),
(68,-185,cs),
(48,-209,l),
(124,-268,l)
);
}
);
width = 500;
}
);
metricLeft = "=J-10";
metricRight = J;
},
{
color = 4;
glyphname = a;
kernLeft = a;
kernRight = n;
layers = (
{
anchors = (
{
name = bottom;
pos = (368,0);
},
{
name = ogonek;
pos = (718,0);
},
{
name = top;
pos = (358,746);
}
);
layerId = "8D9E6227-A940-4CC2-85D6-810E74B12C63";
shapes = (
{
closed = 1;
nodes = (
(624,132,l),
(624,211,o),
(630,463,o),
(630,539,cs),
(630,690,o),
(553,763,o),
(395,763,cs),
(299,763,o),
(198,736,o),
(112,688,c),
(104,644,o),
(100,588,o),
(102,531,c),
(166,612,l),
(218,651,o),
(273,670,o),
(334,670,cs),
(427,670,o),
(472,624,o),
(472,528,cs),
(472,440,l),
(472,339,o),
(468,219,o),
(468,108,c)
);
},
{
closed = 1;
nodes = (
(187,531,l),
(269,703,l),
(116,645,l),
(102,531,l)
);
},
{
closed = 1;
nodes = (
(366,-15,o),
(455,34,o),
(537,136,c),
(519,172,l),
(447,121,o),
(387,97,o),
(333,97,cs),
(260,97,o),
(219,144,o),
(219,229,cs),
(219,319,o),
(265,362,o),
(375,376,cs),
(518,394,l),
(508,480,l),
(345,446,ls),
(150,405,o),
(56,320,o),
(56,186,cs),
(56,63,o),
(136,-15,o),
(263,-15,cs)
);
},
{
pos = (340,0);
ref = _serif.base;
}
);
width = 772;
},
{
anchors = (
{
name = bottom;
pos = (386,0);
},
{
name = ogonek;
pos = (762,0);
},
{
name = top;
pos = (376,746);
}
);
layerId = "106916A4-8C74-485A-AD82-F5ABB18EF495";
shapes = (
{
closed = 1;
nodes = (
(688,132,l),
(688,211,o),
(694,489,o),
(694,565,cs),
(694,716,o),
(606,789,o),
(424,789,cs),
(307,789,o),
(189,759,o),
(94,706,c),
(84,651,o),
(80,584,o),
(82,519,c),
(184,610,l),
(236,649,o),
(287,668,o),
(340,668,cs),
(424,668,o),
(464,622,o),
(464,526,cs),
(464,440,l),
(464,339,o),
(460,219,o),
(460,108,c)
);
},
{
closed = 1;
nodes = (
(195,519,l),
(287,691,l),
(92,635,l),
(82,519,l)
);
},
{
closed = 1;
nodes = (
(372,-15,o),
(469,37,o),
(555,146,c),
(537,202,l),
(466,151,o),
(410,127,o),
(365,127,cs),
(303,127,o),
(269,171,o),
(269,250,cs),
(269,334,o),
(307,373,o),
(397,384,cs),
(540,402,l),
(522,508,l),
(340,470,ls),
(132,427,o),
(32,339,o),
(32,200,cs),
(32,69,o),
(121,-15,o),
(260,-15,cs)
);
},
{
pos = (368,0);
ref = _serif.base;
}
);
width = 808;
}
);
unicode = 97;
},
{
color = 4;
glyphname = ae;
kernLeft = a;
kernRight = o;
layers = (
{
anchors = (
{
name = top;
pos = (587,746);
}
);
guides = (
{
angle = 255.0744;
pos = (575,705);
}
);
layerId = "8D9E6227-A940-4CC2-85D6-810E74B12C63";
shapes = (
{
closed = 1;
nodes = (
(904,-16,o),
(983,5,o),
(1052,47,c),
(1059,140,l),
(984,112,o),
(919,99,o),
(860,99,cs),
(693,99,o),
(613,203,o),
(613,419,cs),
(613,590,o),
(663,673,o),
(765,673,cs),
(869,673,o),
(912,588,o),
(912,383,c),
(1080,367,l),
(1081,376,o),
(1082,394,o),
(1082,410,cs),
(1082,638,o),
(977,764,o),
(788,764,cs),
(655,764,o),
(558,701,o),
(517,587,c),
(476,521,l),
(459,471,o),
(449,405,o),
(449,336,cs),
(449,110,o),
(578,-16,o),
(810,-16,cs)
);
},
{
closed = 1;
nodes = (
(591,320,l),
(591,539,l),
(591,695,o),
(528,763,o),
(385,763,cs),
(294,763,o),
(197,736,o),
(112,688,c),
(104,644,o),
(100,588,o),
(102,531,c),
(164,613,l),
(216,652,o),
(268,671,o),
(324,671,cs),
(412,671,o),
(454,624,o),
(454,528,cs),
(454,440,l),
(453,320,l)
);
},
{
closed = 1;
nodes = (
(185,531,l),
(267,703,l),
(116,645,l),
(102,531,l)
);
},
{
closed = 1;
nodes = (
(355,-15,o),
(462,40,o),
(554,140,c),
(509,180,l),
(443,126,o),
(377,96,o),
(323,96,cs),
(255,96,o),
(217,144,o),
(217,229,cs),
(217,320,o),
(261,360,o),
(366,367,cs),
(500,375,l),
(492,457,l),
(325,434,ls),
(152,410,o),
(56,323,o),
(56,186,cs),
(56,63,o),
(133,-15,o),
(253,-15,cs)
);
},
{
closed = 1;
nodes = (
(1080,367,l),
(1064,447,l),
(506,443,l),
(506,363,l)
);
}
);
width = 1140;
},
{
anchors = (
{
name = top;
pos = (618,746);
}
);
guides = (
{
angle = 255.0744;
pos = (631,746);
}
);
layerId = "106916A4-8C74-485A-AD82-F5ABB18EF495";
shapes = (
{
closed = 1;
nodes = (
(946,-16,o),
(1053,9,o),
(1120,53,c),
(1130,181,l),
(1061,155,o),
(986,140,o),
(929,140,cs),
(760,140,o),
(678,242,o),
(678,454,cs),
(678,598,o),
(716,668,o),
(795,668,cs),
(878,668,o),
(913,588,o),
(913,396,c),
(1151,364,l),
(1152,379,o),
(1153,403,o),
(1153,423,cs),
(1153,659,o),
(1034,790,o),
(819,790,cs),
(683,790,o),
(581,723,o),
(532,602,c),
(503,595,l),
(466,530,o),
(446,443,o),
(446,349,cs),
(446,114,o),
(587,-16,o),
(841,-16,cs)
);
},
{
closed = 1;
nodes = (
(639,362,l),
(639,565,l),
(639,716,o),
(566,789,o),
(416,789,cs),
(307,789,o),
(189,759,o),
(94,706,c),
(84,651,o),
(80,584,o),
(82,519,c),
(184,610,l),
(236,649,o),
(287,668,o),
(332,668,cs),
(410,668,o),
(450,622,o),
(450,526,cs),
(450,440,l),
(450,338,l)
);
},
{
closed = 1;
nodes = (
(193,519,l),
(285,691,l),
(92,635,l),
(82,519,l)
);
},
{
closed = 1;
nodes = (
(365,-15,o),
(481,44,o),
(576,150,c),
(525,209,l),
(464,156,o),
(404,126,o),
(357,126,cs),
(299,126,o),
(267,170,o),
(267,250,cs),
(267,334,o),
(303,370,o),
(388,375,cs),
(522,383,l),
(506,485,l),
(320,458,ls),
(135,431,o),
(32,343,o),
(32,200,cs),
(32,69,o),
(117,-15,o),
(252,-15,cs)
);
},
{
closed = 1;
nodes = (
(1151,364,l),
(1135,464,l),
(577,460,l),
(577,360,l)
);
}
);
width = 1189;
}
);
metricLeft = a;
metricRight = e;
unicode = 230;
},
{
color = 4;
glyphname = b;
kernLeft = b;
kernRight = o;
layers = (
{
layerId = "8D9E6227-A940-4CC2-85D6-810E74B12C63";
shapes = (
{
closed = 1;
nodes = (
(640,-18,o),
(790,144,o),
(790,398,cs),
(790,622,o),
(674,764,o),
(492,764,cs),
(387,764,o),
(298,716,o),
(214,616,c),
(233,573,l),
(298,624,o),
(359,648,o),
(420,648,cs),
(547,648,o),
(618,546,o),
(618,363,cs),
(618,179,o),
(546,76,o),
(416,76,cs),
(350,76,o),
(282,103,o),
(225,151,c),
(193,76,l),
(233,13,o),
(302,-18,o),
(405,-18,cs)
);
},
{
closed = 1;
nodes = (
(186,0,l),
(201,10,o),
(217,24,o),
(230,40,c),
(284,76,l),
(284,1030,l),
(124,1070,l),
(124,144,l),
(118,0,l)
);
},
{
pos = (-2,0);
ref = _serif.headtop;
}
);
width = 846;
},
{
layerId = "106916A4-8C74-485A-AD82-F5ABB18EF495";
shapes = (
{
closed = 1;
nodes = (
(694,-18,o),
(850,149,o),
(850,411,cs),
(850,643,o),
(727,790,o),
(534,790,cs),
(421,790,o),
(323,739,o),
(232,632,c),
(251,569,l),
(314,620,o),
(371,644,o),
(426,644,cs),
(537,644,o),
(598,548,o),
(598,375,cs),
(598,202,o),
(536,106,o),
(425,106,cs),
(365,106,o),
(300,133,o),
(243,181,c),
(211,76,l),
(264,13,o),
(342,-18,o),
(448,-18,cs)
);
},
{
closed = 1;
nodes = (
(186,0,l),
(208,15,o),
(231,35,o),
(250,58,c),
(328,76,l),
(328,1030,l),
(96,1070,l),
(96,144,l),
(88,0,l)
);
},
{
pos = (16,0);
ref = _serif.headtop;
}
);
width = 880;
}
);
metricRight = "=o-6";
unicode = 98;
},
{
color = 4;
glyphname = c;
kernLeft = o;
kernRight = c;
layers = (
{
anchors = (
{
name = bottom;
pos = (404,0);
},
{
name = top;
pos = (392,746);
}
);
layerId = "8D9E6227-A940-4CC2-85D6-810E74B12C63";
shapes = (
{
closed = 1;
nodes = (
(519,-16,o),
(605,5,o),
(667,43,c),
(674,137,l),
(610,113,o),
(540,100,o),
(479,100,cs),
(316,100,o),
(238,196,o),
(238,395,cs),
(238,573,o),
(300,671,o),
(411,671,cs),
(460,671,o),
(523,653,o),
(574,622,c),
(488,697,l),
(570,525,l),
(650,525,l),
(654,594,o),
(648,660,o),
(637,710,c),
(576,745,o),
(499,764,o),
(422,764,cs),
(202,764,o),
(62,606,o),
(62,358,cs),
(62,118,o),
(192,-16,o),
(426,-16,cs)
);
}
);
width = 718;
},
{
anchors = (
{
name = bottom;
pos = (420,0);
},
{
name = top;
pos = (408,746);
}
);
layerId = "106916A4-8C74-485A-AD82-F5ABB18EF495";
shapes = (
{
closed = 1;
nodes = (
(548,-16,o),
(645,7,o),
(714,49,c),
(724,177,l),
(660,153,o),
(590,140,o),
(529,140,cs),
(369,140,o),
(292,234,o),
(292,428,cs),
(292,582,o),
(341,667,o),
(428,667,cs),
(468,667,o),
(522,649,o),
(575,618,c),
(498,685,l),
(590,513,l),
(700,513,l),
(705,586,o),
(699,663,o),
(685,728,c),
(614,768,o),
(529,790,o),
(438,790,cs),
(192,790,o),
(36,627,o),
(36,370,cs),
(36,122,o),
(181,-16,o),
(442,-16,cs)
);
}
);
width = 746;
}
);
metricLeft = o;
unicode = 99;
},
{
color = 4;
glyphname = d;
kernLeft = o;
kernRight = d;
layers = (
{
anchors = (
{
name = bar;
pos = (562,889);
},
{
name = bottom;
pos = (463,0);
},
{
name = topright;
pos = (722,746);
}
);
layerId = "8D9E6227-A940-4CC2-85D6-810E74B12C63";
shapes = (
{
closed = 1;
nodes = (
(459,-18,o),
(548,30,o),
(632,130,c),
(613,173,l),
(548,122,o),
(487,98,o),
(426,98,cs),
(299,98,o),
(228,200,o),
(228,383,cs),
(228,567,o),
(300,670,o),
(430,670,cs),
(496,670,o),
(564,643,o),
(621,595,c),
(653,670,l),
(613,733,o),
(544,764,o),
(441,764,cs),
(206,764,o),
(56,602,o),
(56,348,cs),
(56,124,o),
(172,-18,o),
(354,-18,cs)
);
},
{
closed = 1;
nodes = (
(722,1017,l),
(562,1017,l),
(562,99,l),
(722,58,l)
);
},
{
closed = 1;
nodes = (
(722,944,l),
(722,1116,l),
(662,1116,l),
(580,1113,o),
(499,1098,o),
(436,1075,c),
(432,1039,l),
(578,984,l),
(562,1019,l),
(562,894,l)
);
},
{
pos = (438,0);
ref = _serif.base;
}
);
width = 864;
},
{
anchors = (
{
name = bar;
pos = (583,905);
},
{
name = bottom;
pos = (467,0);
},
{
name = topright;
pos = (784,746);
}
);
layerId = "106916A4-8C74-485A-AD82-F5ABB18EF495";
shapes = (
{
closed = 1;
nodes = (
(459,-18,o),
(557,33,o),
(648,140,c),
(629,203,l),
(566,152,o),
(509,128,o),
(454,128,cs),
(343,128,o),
(282,224,o),
(282,397,cs),
(282,570,o),
(344,666,o),
(455,666,cs),
(515,666,o),
(580,639,o),
(637,591,c),
(669,696,l),
(616,759,o),
(538,790,o),
(432,790,cs),
(186,790,o),
(30,623,o),
(30,361,cs),
(30,129,o),
(153,-18,o),
(346,-18,cs)
);
},
{
closed = 1;
nodes = (
(784,1017,l),
(552,1017,l),
(552,99,l),
(784,59,l)
);
},
{
closed = 1;
nodes = (
(784,950,l),
(784,1122,l),
(698,1122,l),
(613,1119,o),
(523,1104,o),
(446,1079,c),
(440,1013,l),
(585,950,l),
(552,1025,l),
(552,900,l)
);
},
{
pos = (464,0);
ref = _serif.base;
}
);
width = 898;
}
);
metricLeft = "=o-6";
unicode = 100;
},
{
color = 4;
glyphname = eth;
kernLeft = o;
kernRight = o;
layers = (
{
layerId = "8D9E6227-A940-4CC2-85D6-810E74B12C63";
shapes = (
{
closed = 1;
nodes = (
(385,1095,o),
(300,1128,o),
(219,1144,c),
(169,1066,l),
(242,1048,o),
(306,1024,o),
(355,995,cs),
(481,921,o),
(562,796,o),
(605,611,c),
(602,567,l),
(609,516,o),
(612,462,o),
(612,403,cs),
(612,172,o),
(562,76,o),
(441,76,cs),
(311,76,o),
(238,188,o),
(238,389,cs),
(238,563,o),
(294,650,o),
(408,650,cs),
(498,650,o),
(573,597,o),
(618,503,c),
(650,540,l),
(624,678,o),
(544,744,o),
(405,744,cs),
(195,744,o),
(62,595,o),
(62,361,cs),
(62,129,o),
(203,-18,o),
(424,-18,cs),
(658,-18,o),
(788,143,o),
(788,432,cs),
(788,706,o),
(671,927,o),
(460,1051,cs)
);
},
{
closed = 1;
nodes = (
(483,969,l),
(412,1018,l),
(167,878,l),
(201,807,l)
);
},
{
closed = 1;
nodes = (
(651,1063,l),
(618,1134,l),
(415,1018,l),
(486,969,l)
);
}
);
width = 860;
},
{
layerId = "106916A4-8C74-485A-AD82-F5ABB18EF495";
shapes = (
{
closed = 1;
nodes = (
(408,1103,o),
(313,1138,o),
(232,1154,c),
(168,1054,l),
(231,1038,o),
(291,1017,o),
(341,988,cs),
(469,913,o),
(560,791,o),
(601,611,c),
(579,583,l),
(587,537,o),
(590,477,o),
(590,417,cs),
(590,198,o),
(551,106,o),
(456,106,cs),
(351,106,o),
(292,212,o),
(292,403,cs),
(292,567,o),
(336,646,o),
(426,646,cs),
(496,646,o),
(556,600,o),
(596,517,c),
(643,562,l),
(617,700,o),
(544,766,o),
(419,766,cs),
(183,766,o),
(36,615,o),
(36,375,cs),
(36,135,o),
(193,-18,o),
(440,-18,cs),
(701,-18,o),
(846,148,o),
(846,446,cs),
(846,715,o),
(728,915,o),
(483,1059,cs)
);
},
{
closed = 1;
nodes = (
(500,966,l),
(421,1031,l),
(166,885,l),
(208,798,l)
);
},
{
closed = 1;
nodes = (
(671,1062,l),
(630,1149,l),
(422,1030,l),
(501,965,l)
);
}
);
width = 892;
}
);
metricLeft = o;
metricRight = "=o+10";
unicode = 240;
},
{
color = 4;
glyphname = dcroat;
kernLeft = o;
kernRight = d;
layers = (
{
anchors = (
{
name = bottom;
pos = (463,0);
}
);
layerId = "8D9E6227-A940-4CC2-85D6-810E74B12C63";
shapes = (
{
closed = 1;
nodes = (
(461,-18,o),
(550,30,o),
(634,130,c),
(615,173,l),
(550,122,o),
(489,98,o),
(428,98,cs),
(299,98,o),
(228,198,o),
(228,378,cs),
(228,559,o),
(300,660,o),
(430,660,cs),
(490,660,o),
(553,639,o),
(623,595,c),
(655,670,l),
(607,727,o),
(538,754,o),
(441,754,cs),
(206,754,o),
(56,594,o),
(56,343,cs),
(56,122,o),
(173,-18,o),
(356,-18,cs)
);
},
{
closed = 1;
nodes = (
(724,1017,l),
(564,1017,l),
(564,99,l),
(724,58,l)
);
},
{
closed = 1;
nodes = (
(724,944,l),
(724,1116,l),
(664,1116,l),
(582,1113,o),
(501,1098,o),
(438,1075,c),
(434,1039,l),
(579,992,l),
(564,1019,l),
(564,894,l)
);
},
{
pos = (440,0);
ref = _serif.base;
},
{
pos = (564,-70);
ref = _bar;
}
);
width = 868;
},
{
anchors = (
{
name = bottom;
pos = (467,0);
}
);
layerId = "106916A4-8C74-485A-AD82-F5ABB18EF495";
shapes = (
{
closed = 1;
nodes = (
(461,-18,o),
(559,33,o),
(650,140,c),
(631,203,l),
(568,152,o),
(511,128,o),
(456,128,cs),
(344,128,o),
(282,222,o),
(282,392,cs),
(282,562,o),
(344,656,o),
(455,656,cs),
(515,656,o),
(580,629,o),
(637,581,c),
(669,686,l),
(616,749,o),
(538,780,o),
(432,780,cs),
(186,780,o),
(30,616,o),
(30,358,cs),
(30,128,o),
(154,-18,o),
(348,-18,cs)
);
},
{
closed = 1;
nodes = (
(786,1017,l),
(554,1017,l),
(554,99,l),
(786,59,l)
);
},
{
closed = 1;
nodes = (
(786,950,l),
(786,1122,l),
(700,1122,l),
(615,1119,o),
(525,1104,o),
(448,1079,c),
(442,1013,l),
(587,990,l),
(554,1025,l),
(554,900,l)
);
},
{
pos = (466,0);
ref = _serif.base;
},
{
pos = (585,-54);
ref = _bar;
scale = (1.04,1);
}
);
width = 900;
}
);
metricLeft = d;
metricRight = d;
unicode = 273;
},
{
color = 4;
glyphname = e;
kernLeft = o;
kernRight = o;
layers = (
{
anchors = (
{
name = bottom;
pos = (414,0);
},
{
name = ogonek;
pos = (667,0);
},
{
name = top;
pos = (397,746);
}
);
layerId = "8D9E6227-A940-4CC2-85D6-810E74B12C63";
shapes = (
{
closed = 1;
nodes = (
(538,-16,o),
(628,7,o),
(691,47,c),
(698,141,l),
(629,115,o),
(554,100,o),
(489,100,cs),
(317,100,o),
(234,204,o),
(234,419,cs),
(234,590,o),
(286,672,o),
(394,672,cs),
(503,672,o),
(549,587,o),
(549,383,c),
(717,351,l),
(720,370,o),
(721,390,o),
(721,410,cs),
(721,638,o),
(612,764,o),
(417,764,cs),
(200,764,o),
(62,608,o),
(62,362,cs),
(62,119,o),
(197,-16,o),
(439,-16,cs)
);
},
{
closed = 1;
nodes = (
(717,351,l),
(701,433,l),
(127,433,l),
(127,351,l)
);
}
);
width = 779;
},
{
anchors = (
{
name = bottom;
pos = (430,0);
},
{
name = ogonek;
pos = (683,0);
},
{
name = top;
pos = (413,746);
}
);
layerId = "106916A4-8C74-485A-AD82-F5ABB18EF495";
shapes = (
{
closed = 1;
nodes = (
(568,-16,o),
(675,9,o),
(742,53,c),
(752,181,l),
(683,155,o),
(608,140,o),
(543,140,cs),
(370,140,o),
(286,241,o),
(286,451,cs),
(286,596,o),
(326,668,o),
(410,668,cs),
(497,668,o),
(533,589,o),
(533,396,c),
(771,348,l),
(774,367,o),
(775,403,o),
(775,423,cs),
(775,659,o),
(653,790,o),
(433,790,cs),
(190,790,o),
(36,629,o),
(36,375,cs),
(36,124,o),
(186,-16,o),
(455,-16,cs)
);
},
{
closed = 1;
nodes = (
(771,348,l),
(755,450,l),
(143,450,l),
(143,348,l)
);
}
);
width = 811;
}
);
metricLeft = o;
unicode = 101;
},
{
color = 4;
glyphname = eogonek;
kernLeft = o;
kernRight = o;
layers = (
{
anchors = (
{
name = bottom;
pos = (418,0);
},
{
name = top;
pos = (397,746);
}
);
guides = (
{
angle = 265.7412;
pos = (698,141);
}
);
layerId = "8D9E6227-A940-4CC2-85D6-810E74B12C63";
shapes = (
{
closed = 1;
nodes = (
(466,-14,o),
(498,-11,o),
(523,-5,c),
(691,47,l),
(698,141,l),
(629,115,o),
(554,100,o),
(489,100,cs),
(317,100,o),
(234,204,o),
(234,419,cs),
(234,589,o),
(286,672,o),
(394,672,cs),
(503,672,o),
(549,587,o),
(549,383,c),
(717,351,l),
(720,370,o),
(721,390,o),
(721,410,cs),
(721,638,o),
(612,764,o),
(417,764,cs),
(200,764,o),
(62,608,o),
(62,362,cs),
(62,119,o),
(195,-14,o),
(439,-14,cs)
);
},
{
closed = 1;
nodes = (
(717,351,l),
(701,433,l),
(127,433,l),
(127,351,l)
);
},
{
closed = 1;
nodes = (
(578,-343,o),
(627,-332,o),
(665,-311,c),
(670,-239,l),
(634,-248,o),
(601,-253,o),
(577,-253,cs),
(524,-253,o),
(498,-229,o),
(498,-179,cs),
(498,-104,o),
(554,-30,o),
(654,26,cs),
(691,47,l),
(665,66,l),
(470,5,o),
(362,-93,o),
(362,-209,cs),
(362,-295,o),
(422,-343,o),
(529,-343,cs)
);
}
);
width = 779;
},
{
anchors = (
{
name = bottom;
pos = (430,0);
},
{
name = top;
pos = (413,746);
}
);
guides = (
{
angle = 265.7412;
pos = (770,181);
}
);
layerId = "106916A4-8C74-485A-AD82-F5ABB18EF495";
shapes = (
{
closed = 1;
nodes = (
(482,-14,o),
(512,-11,o),
(539,-6,c),
(742,53,l),
(752,181,l),
(683,155,o),
(608,140,o),
(543,140,cs),
(375,140,o),
(288,238,o),
(288,433,cs),
(288,591,o),
(328,668,o),
(411,668,cs),
(497,668,o),
(533,588,o),
(533,396,c),
(771,348,l),
(774,367,o),
(775,403,o),
(775,423,cs),
(775,659,o),
(653,790,o),
(433,790,cs),
(190,790,o),
(36,629,o),
(36,375,cs),
(36,124,o),
(184,-14,o),
(455,-14,cs)
);
},
{
closed = 1;
nodes = (
(771,348,l),
(755,450,l),
(143,450,l),
(143,348,l)
);
},
{
closed = 1;
nodes = (
(622,-349,o),
(676,-336,o),
(715,-312,c),
(721,-227,l),
(685,-235,o),
(654,-239,o),
(634,-239,cs),
(587,-239,o),
(565,-217,o),
(565,-172,cs),
(565,-100,o),
(619,-17,o),
(705,32,cs),
(742,53,l),
(694,72,l),
(493,10,o),
(381,-90,o),
(381,-209,cs),
(381,-299,o),
(446,-349,o),
(564,-349,cs)
);
}
);
width = 811;
}
);
unicode = 281;
},
{
color = 4;
glyphname = schwa;
kernLeft = o;
kernRight = o;
layers = (
{
layerId = "8D9E6227-A940-4CC2-85D6-810E74B12C63";
shapes = (
{
closed = 1;
nodes = (
(579,-18,o),
(717,135,o),
(717,375,cs),
(717,613,o),
(579,764,o),
(363,764,cs),
(271,764,o),
(167,736,o),
(97,691,c),
(160,613,l),
(219,650,o),
(285,670,o),
(344,670,cs),
(480,670,o),
(545,563,o),
(545,342,cs),
(545,153,o),
(498,74,o),
(385,74,cs),
(276,74,o),
(230,159,o),
(230,363,c),
(62,395,l),
(59,376,o),
(58,356,o),
(58,336,cs),
(58,108,o),
(167,-18,o),
(362,-18,cs)
);
},
{
closed = 1;
nodes = (
(652,313,l),
(652,395,l),
(62,395,l),
(78,313,l)
);
},
{
closed = 1;
nodes = (
(168,525,l),
(250,697,l),
(97,691,l),
(89,644,o),
(85,582,o),
(88,525,c)
);
}
);
width = 779;
},
{
layerId = "106916A4-8C74-485A-AD82-F5ABB18EF495";
shapes = (
{
closed = 1;
nodes = (
(621,-18,o),
(775,143,o),
(775,397,cs),
(775,637,o),
(621,790,o),
(379,790,cs),
(269,790,o),
(152,759,o),
(78,709,c),
(163,609,l),
(224,646,o),
(290,666,o),
(347,666,cs),
(471,666,o),
(523,570,o),
(523,339,cs),
(523,181,o),
(483,104,o),
(400,104,cs),
(314,104,o),
(278,184,o),
(278,376,c),
(40,424,l),
(37,405,o),
(36,369,o),
(36,349,cs),
(36,113,o),
(158,-18,o),
(378,-18,cs)
);
},
{
closed = 1;
nodes = (
(668,322,l),
(668,424,l),
(40,424,l),
(56,322,l)
);
},
{
closed = 1;
nodes = (
(177,513,l),
(269,685,l),
(78,709,l),
(68,647,o),
(64,577,o),
(67,513,c)
);
}
);
width = 811;
}
);
metricLeft = "=|e";
metricRight = "=|e";
unicode = 601;
},
{
color = 4;
glyphname = f;
kernLeft = f;
kernRight = f;
layers = (
{
layerId = "8D9E6227-A940-4CC2-85D6-810E74B12C63";
shapes = (
{
closed = 1;
nodes = (
(321,6,l),
(321,690,l),
(319,710,l),
(319,822,ls),
(319,964,o),
(354,1014,o),
(453,1014,cs),
(485,1014,o),
(524,1009,o),
(561,1000,c),
(571,1118,l),
(546,1128,o),
(511,1134,o),
(473,1134,cs),
(283,1134,o),
(162,989,o),
(162,762,cs),
(162,6,l)
);
},
{
closed = 1;
nodes = (
(518,650,l),
(526,746,l),
(170,746,l),
(124,745,o),
(78,739,o),
(42,730,c),
(35,650,l)
);
},
{
closed = 1;
nodes = (
(472,0,l),
(477,62,l),
(304,90,l),
(321,26,l),
(321,162,l),
(162,162,l),
(162,26,l),
(181,99,l),
(142,90,o),
(104,78,o),
(65,60,c),
(60,0,l)
);
}
);
width = 546;
},
{
layerId = "106916A4-8C74-485A-AD82-F5ABB18EF495";
shapes = (
{
closed = 1;
nodes = (
(365,6,l),
(365,690,l),
(361,710,l),
(361,822,ls),
(361,931,o),
(392,970,o),
(479,970,cs),
(511,970,o),
(551,965,o),
(592,956,c),
(606,1124,l),
(581,1134,o),
(547,1140,o),
(506,1140,cs),
(290,1140,o),
(134,969,o),
(134,732,cs),
(134,6,l)
);
},
{
closed = 1;
nodes = (
(550,646,l),
(560,772,l),
(142,772,l),
(104,763,o),
(64,750,o),
(32,736,c),
(25,646,l)
);
},
{
closed = 1;
nodes = (
(504,0,l),
(511,86,l),
(329,112,l),
(365,25,l),
(365,182,l),
(134,182,l),
(134,25,l),
(171,123,l),
(132,114,o),
(94,102,o),
(57,84,c),
(50,0,l)
);
}
);
width = 574;
}
);
unicode = 102;
},
{
color = 4;
glyphname = g;
kernLeft = g;
kernRight = g;
layers = (
{
anchors = (
{
name = top;
pos = (369,746);
}
);
layerId = "8D9E6227-A940-4CC2-85D6-810E74B12C63";
shapes = (
{
closed = 1;
nodes = (
(542,235,o),
(657,338,o),
(657,500,cs),
(657,653,o),
(520,763,o),
(363,763,cs),
(181,763,o),
(66,660,o),
(66,498,cs),
(66,337,o),
(181,235,o),
(361,235,cs)
);
},
{
closed = 1;
nodes = (
(279,319,o),
(226,389,o),
(226,516,cs),
(226,626,o),
(266,679,o),
(349,679,cs),
(444,679,o),
(497,611,o),
(497,481,cs),
(497,372,o),
(457,319,o),
(374,319,cs)
);
},
{
closed = 1;
nodes = (
(747,754,l),
(648,745,o),
(574,740,o),
(541,740,cs),
(470,740,o),
(457,763,o),
(363,763,c),
(508,656,l),
(737,644,l)
);
},
{
closed = 1;
nodes = (
(590,-350,o),
(764,-231,o),
(764,-67,cs),
(764,39,o),
(690,98,o),
(557,98,cs),
(329,98,ls),
(263,98,o),
(235,118,o),
(235,166,cs),
(235,209,o),
(259,248,o),
(309,285,c),
(248,295,l),
(158,250,o),
(114,189,o),
(114,108,cs),
(114,10,o),
(179,-44,o),
(295,-44,cs),
(523,-44,ls),
(589,-44,o),
(617,-65,o),
(617,-114,cs),
(617,-203,o),
(526,-260,o),
(382,-260,cs),
(246,-260,o),
(170,-209,o),
(170,-116,cs),
(170,-69,o),
(190,-30,o),
(232,3,c),
(176,35,l),
(78,-13,o),
(31,-73,o),
(31,-149,cs),
(31,-272,o),
(155,-350,o),
(349,-350,cs)
);
}
);
width = 778;
},
{
anchors = (
{
name = top;
pos = (385,746);
}
);
layerId = "106916A4-8C74-485A-AD82-F5ABB18EF495";
shapes = (
{
closed = 1;
nodes = (
(579,245,o),
(708,351,o),
(708,517,cs),
(708,676,o),
(532,789,o),
(378,789,cs),
(176,789,o),
(48,683,o),
(48,516,cs),
(48,350,o),
(176,245,o),
(377,245,cs)
);
},
{
closed = 1;
nodes = (
(314,354,o),
(274,418,o),
(274,533,cs),
(274,632,o),
(304,680,o),
(367,680,cs),
(441,680,o),
(482,616,o),
(482,501,cs),
(482,402,o),
(451,354,o),
(387,354,cs)
);
},
{
closed = 1;
nodes = (
(805,780,l),
(706,771,o),
(610,766,o),
(577,766,cs),
(506,766,o),
(471,789,o),
(378,789,c),
(543,656,l),
(792,644,l)
);
},
{
closed = 1;
nodes = (
(628,-350,o),
(820,-223,o),
(820,-48,cs),
(820,68,o),
(735,132,o),
(582,132,cs),
(340,132,ls),
(293,132,o),
(273,147,o),
(273,182,cs),
(273,220,o),
(297,257,o),
(347,295,c),
(266,309,l),
(158,255,o),
(106,187,o),
(106,100,cs),
(106,0,o),
(174,-56,o),
(296,-56,cs),
(538,-56,ls),
(585,-56,o),
(605,-71,o),
(605,-109,cs),
(605,-186,o),
(522,-236,o),
(394,-236,cs),
(273,-236,o),
(206,-193,o),
(206,-116,cs),
(206,-72,o),
(229,-33,o),
(278,5,c),
(216,39,l),
(82,-1,o),
(17,-62,o),
(17,-148,cs),
(17,-272,o),
(151,-350,o),
(362,-350,cs)
);
}
);
width = 820;
}
);
unicode = 103;
},
{
color = 4;
glyphname = h;
kernLeft = h;
kernRight = n;
layers = (
{
anchors = (
{
name = bar;
pos = (312,889);
},
{
name = bottom;
pos = (471,0);
},
{
name = top;
pos = (244,1086);
}
);
layerId = "8D9E6227-A940-4CC2-85D6-810E74B12C63";
shapes = (
{
closed = 1;
nodes = (
(312,6,l),
(312,1005,l),
(152,1034,l),
(152,6,l)
);
},
{
closed = 1;
nodes = (
(768,6,l),
(768,541,ls),
(768,684,o),
(690,763,o),
(549,763,cs),
(433,763,o),
(323,709,o),
(242,613,c),
(262,563,l),
(334,620,o),
(403,647,o),
(474,647,cs),
(564,647,o),
(608,603,o),
(608,510,cs),
(608,6,l)
);
},
{
pos = (-17,0);
ref = _serif.left;
},
{
pos = (435,0);
ref = _serif.right;
},
{
pos = (26,0);
ref = _serif.headtop;
}
);
width = 916;
},
{
anchors = (
{
name = bar;
pos = (325,905);
},
{
name = bottom;
pos = (488,0);
},
{
name = top;
pos = (257,1092);
}
);
layerId = "106916A4-8C74-485A-AD82-F5ABB18EF495";
shapes = (
{
closed = 1;
nodes = (
(356,6,l),
(356,1005,l),
(124,1034,l),
(124,6,l)
);
},
{
closed = 1;
nodes = (
(830,6,l),
(830,567,ls),
(830,710,o),
(745,789,o),
(592,789,cs),
(458,789,o),
(340,728,o),
(262,619,c),
(280,559,l),
(352,616,o),
(416,643,o),
(479,643,cs),
(559,643,o),
(598,598,o),
(598,506,cs),
(598,6,l)
);
},
{
pos = (1,0);
ref = _serif.left;
},
{
pos = (451,0);
ref = _serif.right;
},
{
pos = (44,0);
ref = _serif.headtop;
}
);
width = 950;
}
);
metricRight = n;
unicode = 104;
},
{
color = 4;
glyphname = hbar;
kernLeft = h;
kernRight = n;
layers = (
{
layerId = "8D9E6227-A940-4CC2-85D6-810E74B12C63";
shapes = (
{
closed = 1;
nodes = (
(312,6,l),
(312,1005,l),
(152,1034,l),
(152,6,l)
);
},
{
closed = 1;
nodes = (
(312,944,l),
(312,1116,l),
(252,1116,l),
(173,1113,o),
(96,1099,o),
(36,1077,c),
(32,1037,l),
(167,992,l),
(152,1019,l),
(152,894,l)
);
},
{
closed = 1;
nodes = (
(768,6,l),
(768,541,ls),
(768,684,o),
(696,753,o),
(548,753,cs),
(427,753,o),
(324,707,o),
(231,611,c),
(252,563,l),
(331,615,o),
(396,637,o),
(471,637,cs),
(568,637,o),
(608,600,o),
(608,510,cs),
(608,6,l)
);
},
{
pos = (-17,0);
ref = _serif.left;
},
{
pos = (435,0);
ref = _serif.right;
},
{
pos = (312,-70);
ref = _bar;
}
);
width = 916;
},
{
layerId = "106916A4-8C74-485A-AD82-F5ABB18EF495";
shapes = (
{
closed = 1;
nodes = (
(356,6,l),
(356,1005,l),
(124,1034,l),
(124,6,l)
);
},
{
closed = 1;
nodes = (
(356,950,l),
(356,1122,l),
(270,1122,l),
(184,1119,o),
(98,1104,o),
(28,1079,c),
(22,1013,l),
(157,990,l),
(124,1025,l),
(124,900,l)
);
},
{
closed = 1;
nodes = (
(830,6,l),
(830,567,ls),
(830,710,o),
(752,779,o),
(592,779,cs),
(457,779,o),
(346,729,o),
(251,624,c),
(270,574,l),
(359,616,o),
(421,633,o),
(479,633,cs),
(563,633,o),
(598,596,o),
(598,506,cs),
(598,6,l)
);
},
{
pos = (1,0);
ref = _serif.left;
},
{
pos = (451,0);
ref = _serif.right;
},
{
pos = (325,-54);
ref = _bar;
scale = (1.04,1);
}
);
width = 950;
}
);
metricLeft = h;
metricRight = h;
unicode = 295;
},
{
color = 4;
glyphname = idotless;
kernLeft = i;
kernRight = i;
layers = (
{
anchors = (
{
name = bottom;
pos = (242,0);
},
{
name = ogonek;
pos = (410,0);
},
{
name = top;
pos = (227,746);
}
);
layerId = "8D9E6227-A940-4CC2-85D6-810E74B12C63";
shapes = (
{
closed = 1;
nodes = (
(326,6,l),
(326,694,l),
(166,675,l),
(166,6,l)
);
},
{
closed = 1;
nodes = (
(326,596,l),
(326,755,l),
(282,755,l),
(194,747,o),
(114,727,o),
(56,701,c),
(52,659,l),
(190,593,l),
(166,637,l),
(166,509,l)
);
},
{
pos = (-3,0);
ref = _serif;
}
);
width = 480;
},
{
anchors = (
{
name = bottom;
pos = (250,0);
},
{
name = ogonek;
pos = (418,0);
},
{
name = top;
pos = (235,746);
}
);
layerId = "106916A4-8C74-485A-AD82-F5ABB18EF495";
shapes = (
{
closed = 1;
nodes = (
(370,6,l),
(370,720,l),
(138,701,l),
(138,6,l)
);
},
{
closed = 1;
nodes = (
(370,622,l),
(370,781,l),
(306,781,l),
(211,773,o),
(118,751,o),
(46,719,c),
(40,651,l),
(178,575,l),
(138,643,l),
(138,515,l)
);
},
{
pos = (5,0);
ref = _serif;
}
);
width = 496;
}
);
unicode = 305;
},
{
color = 4;
glyphname = iogonek;
kernLeft = i;
kernRight = i;
layers = (
{
layerId = "8D9E6227-A940-4CC2-85D6-810E74B12C63";
shapes = (
{
closed = 1;
nodes = (
(315,-343,o),
(364,-332,o),
(402,-311,c),
(407,-239,l),
(371,-248,o),
(338,-253,o),
(314,-253,cs),
(261,-253,o),
(235,-229,o),
(235,-179,cs),
(235,-96,o),
(306,-32,o),
(433,0,c),
(423,37,l),
(214,0,o),
(98,-88,o),
(98,-209,cs),
(98,-295,o),
(158,-343,o),
(266,-343,cs)
);
},
{
ref = idotless;
},
{
pos = (227,0);
ref = dotaccentcomb;
}
);
width = 480;
},
{
layerId = "106916A4-8C74-485A-AD82-F5ABB18EF495";
shapes = (
{
closed = 1;
nodes = (
(332,-349,o),
(386,-336,o),
(425,-312,c),
(431,-227,l),
(395,-235,o),
(364,-239,o),
(344,-239,cs),
(297,-239,o),
(275,-217,o),
(275,-172,cs),
(275,-100,o),
(329,-49,o),
(457,0,c),
(445,47,l),
(206,-4,o),
(91,-88,o),
(91,-209,cs),
(91,-299,o),
(156,-349,o),
(274,-349,cs)
);
},
{
pos = (4,0);
ref = idotless;
},
{
pos = (235,0);
ref = dotaccentcomb;
}
);
width = 496;
}
);
unicode = 303;
},
{
color = 4;
glyphname = jdotless;
kernLeft = j;
kernRight = i;
layers = (
{
anchors = (
{
name = top;
pos = (208,746);
}
);
layerId = "8D9E6227-A940-4CC2-85D6-810E74B12C63";
shapes = (
{
closed = 1;
nodes = (
(194,-298,o),
(258,-220,o),
(286,-119,cs),
(300,-68,o),
(307,4,o),
(307,105,cs),
(307,678,l),
(147,678,l),
(147,70,ls),
(147,-90,o),
(125,-191,o),
(67,-265,cs),
(38,-300,l),
(89,-342,l)
);
},
{
closed = 1;
nodes = (
(307,596,l),
(307,755,l),
(263,755,l),
(175,747,o),
(95,727,o),
(37,701,c),
(33,659,l),
(171,593,l),
(147,637,l),
(147,509,l)
);
}
);
width = 431;
},
{
anchors = (
{
name = top;
pos = (216,746);
}
);
layerId = "106916A4-8C74-485A-AD82-F5ABB18EF495";
shapes = (
{
closed = 1;
nodes = (
(228,-293,o),
(303,-215,o),
(330,-119,cs),
(344,-67,o),
(351,8,o),
(351,113,cs),
(351,720,l),
(119,701,l),
(119,62,ls),
(119,-107,o),
(97,-203,o),
(45,-265,cs),
(25,-289,l),
(97,-348,l)
);
},
{
closed = 1;
nodes = (
(351,622,l),
(351,781,l),
(287,781,l),
(192,773,o),
(99,751,o),
(27,719,c),
(21,651,l),
(159,575,l),
(119,643,l),
(119,515,l)
);
}
);
width = 447;
}
);
unicode = 567;
},
{
color = 4;
glyphname = k;
kernLeft = h;
kernRight = x;
layers = (
{
anchors = (
{
name = bottom;
pos = (474,0);
}
);
layerId = "8D9E6227-A940-4CC2-85D6-810E74B12C63";
shapes = (
{
closed = 1;
nodes = (
(312,6,l),
(312,1054,l),
(152,1054,l),
(152,6,l)
);
},
{
closed = 1;
nodes = (
(424,344,l),
(424,440,l),
(227,440,l),
(227,344,l)
);
},
{
closed = 1;
nodes = (
(854,0,l),
(859,66,l),
(737,95,l),
(808,61,l),
(483,462,l),
(488,393,l),
(774,692,l),
(712,643,l),
(751,652,o),
(790,664,o),
(822,682,c),
(827,746,l),
(482,746,l),
(477,680,l),
(601,651,l),
(625,697,l),
(365,415,l),
(365,367,l),
(647,0,l)
);
},
{
closed = 1;
nodes = (
(405,0,l),
(410,64,l),
(296,91,l),
(312,25,l),
(312,162,l),
(152,162,l),
(152,25,l),
(171,99,l),
(132,90,o),
(94,78,o),
(55,60,c),
(50,0,l)
);
},
{
pos = (26,0);
ref = _serif.headtop;
}
);
width = 871;
},
{
anchors = (
{
name = bottom;
pos = (492,0);
}
);
layerId = "106916A4-8C74-485A-AD82-F5ABB18EF495";
shapes = (
{
closed = 1;
nodes = (
(356,6,l),
(356,1054,l),
(124,1054,l),
(124,6,l)
);
},
{
closed = 1;
nodes = (
(446,345,l),
(446,467,l),
(245,467,l),
(245,345,l)
);
},
{
closed = 1;
nodes = (
(898,0,l),
(905,90,l),
(783,119,l),
(872,85,l),
(587,470,l),
(541,420,l),
(844,694,l),
(758,645,l),
(797,654,o),
(836,666,o),
(866,684,c),
(873,772,l),
(528,772,l),
(521,682,l),
(645,653,l),
(665,699,l),
(390,442,l),
(390,375,l),
(649,0,l)
);
},
{
closed = 1;
nodes = (
(437,0,l),
(444,88,l),
(323,114,l),
(356,25,l),
(356,182,l),
(124,182,l),
(124,25,l),
(161,123,l),
(122,114,o),
(84,102,o),
(47,84,c),
(40,0,l)
);
},
{
pos = (44,0);
ref = _serif.headtop;
}
);
width = 907;
}
);
metricLeft = h;
unicode = 107;
},
{
color = 4;
glyphname = kgreenlandic;
kernLeft = n;
kernRight = x;
layers = (
{
layerId = "8D9E6227-A940-4CC2-85D6-810E74B12C63";
shapes = (
{
closed = 1;
nodes = (
(864,0,l),
(869,66,l),
(747,95,l),
(818,61,l),
(493,450,l),
(498,381,l),
(784,692,l),
(722,643,l),
(761,652,o),
(800,664,o),
(832,682,c),
(837,746,l),
(492,746,l),
(487,680,l),
(611,651,l),
(635,697,l),
(375,403,l),
(375,355,l),
(657,0,l)
);
},
{
closed = 1;
nodes = (
(322,6,l),
(322,654,l),
(162,654,l),
(162,6,l)
);
},
{
closed = 1;
nodes = (
(434,332,l),
(434,428,l),
(237,428,l),
(237,332,l)
);
},
{
closed = 1;
nodes = (
(322,596,l),
(322,755,l),
(278,755,l),
(190,747,o),
(110,727,o),
(52,701,c),
(48,659,l),
(186,593,l),
(162,637,l),
(162,509,l)
);
},
{
closed = 1;
nodes = (
(415,0,l),
(420,64,l),
(306,91,l),
(322,25,l),
(322,162,l),
(162,162,l),
(162,25,l),
(181,99,l),
(142,90,o),
(104,78,o),
(65,60,c),
(60,0,l)
);
}
);
width = 881;
},
{
layerId = "106916A4-8C74-485A-AD82-F5ABB18EF495";
shapes = (
{
closed = 1;
nodes = (
(908,0,l),
(915,90,l),
(793,119,l),
(882,85,l),
(597,458,l),
(551,408,l),
(854,694,l),
(768,645,l),
(807,654,o),
(846,666,o),
(876,684,c),
(883,772,l),
(538,772,l),
(531,682,l),
(655,653,l),
(675,699,l),
(400,430,l),
(400,363,l),
(659,0,l)
);
},
{
closed = 1;
nodes = (
(366,6,l),
(366,654,l),
(134,654,l),
(134,6,l)
);
},
{
closed = 1;
nodes = (
(456,333,l),
(456,455,l),
(255,455,l),
(255,333,l)
);
},
{
closed = 1;
nodes = (
(366,622,l),
(366,781,l),
(302,781,l),
(207,773,o),
(114,751,o),
(42,719,c),
(36,651,l),
(174,575,l),
(134,643,l),
(134,515,l)
);
},
{
closed = 1;
nodes = (
(447,0,l),
(454,88,l),
(333,114,l),
(366,25,l),
(366,182,l),
(134,182,l),
(134,25,l),
(171,123,l),
(132,114,o),
(94,102,o),
(57,84,c),
(50,0,l)
);
}
);
width = 917;
}
);
metricLeft = n;
metricRight = k;
unicode = 312;
},
{
color = 4;
glyphname = l;
kernLeft = h;
kernRight = d;
layers = (
{
anchors = (
{
name = bottom;
pos = (246,0);
},
{
name = top;
pos = (226,1086);
},
{
name = topright;
pos = (326,746);
}
);
color = 4;
layerId = "8D9E6227-A940-4CC2-85D6-810E74B12C63";
shapes = (
{
closed = 1;
nodes = (
(326,6,l),
(326,1005,l),
(166,1034,l),
(166,6,l)
);
},
{
closed = 1;
nodes = (
(439,0,l),
(444,62,l),
(310,91,l),
(326,25,l),
(326,162,l),
(166,162,l),
(166,25,l),
(185,99,l),
(134,87,o),
(93,75,o),
(57,60,c),
(52,0,l)
);
},
{
pos = (40,0);
ref = _serif.headtop;
}
);
width = 490;
},
{
anchors = (
{
name = bottom;
pos = (254,0);
},
{
name = top;
pos = (225,1092);
},
{
name = topright;
pos = (370,746);
}
);
color = 4;
layerId = "106916A4-8C74-485A-AD82-F5ABB18EF495";
shapes = (
{
closed = 1;
nodes = (
(370,6,l),
(370,1005,l),
(138,1034,l),
(138,6,l)
);
},
{
closed = 1;
nodes = (
(463,0,l),
(470,86,l),
(336,115,l),
(370,25,l),
(370,182,l),
(138,182,l),
(138,25,l),
(175,123,l),
(124,111,o),
(83,99,o),
(49,84,c),
(42,0,l)
);
},
{
pos = (58,0);
ref = _serif.headtop;
}
);
width = 506;
}
);
metricRight = "=n+4";
unicode = 108;
},
{
color = 4;
glyphname = lslash;
kernLeft = lslash;
kernRight = lslash;
layers = (
{
layerId = "8D9E6227-A940-4CC2-85D6-810E74B12C63";
shapes = (
{
closed = 1;
nodes = (
(266,526,l),
(274,521,l),
(505,635,l),
(512,741,l),
(274,623,l),
(266,628,l),
(35,514,l),
(28,408,l)
);
},
{
alignment = -1;
pos = (24,0);
ref = l;
}
);
width = 534;
},
{
layerId = "106916A4-8C74-485A-AD82-F5ABB18EF495";
shapes = (
{
closed = 1;
nodes = (
(278,521,l),
(286,516,l),
(536,638,l),
(544,764,l),
(286,634,l),
(278,639,l),
(28,517,l),
(20,391,l)
);
},
{
alignment = -1;
pos = (28,0);
ref = l;
}
);
width = 558;
}
);
unicode = 322;
},
{
color = 4;
glyphname = m;
kernLeft = n;
kernRight = n;
layers = (
{
anchors = (
{
name = bottom;
pos = (684,0);
}
);
layerId = "8D9E6227-A940-4CC2-85D6-810E74B12C63";
shapes = (
{
closed = 1;
nodes = (
(1208,6,l),
(1208,541,ls),
(1208,684,o),
(1131,763,o),
(995,763,cs),
(884,763,o),
(775,709,o),
(693,613,c),
(713,563,l),
(786,620,o),
(853,647,o),
(919,647,cs),
(1005,647,o),
(1048,603,o),
(1048,510,cs),
(1048,6,l)
);
},
{
closed = 1;
nodes = (
(419,0,l),
(424,62,l),
(306,91,l),
(322,25,l),
(322,162,l),
(162,162,l),
(162,25,l),
(181,99,l),
(142,90,o),
(104,78,o),
(65,60,c),
(60,0,l)
);
},
{
closed = 1;
nodes = (
(322,6,l),
(322,632,l),
(162,674,l),
(162,6,l)
);
},
{
closed = 1;
nodes = (
(861,0,l),
(866,62,l),
(748,91,l),
(764,25,l),
(764,162,l),
(604,162,l),
(604,25,l),
(623,99,l),
(584,90,o),
(553,78,o),
(525,64,c),
(520,0,l)
);
},
{
closed = 1;
nodes = (
(764,6,l),
(764,545,ls),
(764,688,o),
(687,763,o),
(552,763,cs),
(442,763,o),
(333,709,o),
(252,613,c),
(272,563,l),
(344,620,o),
(412,647,o),
(477,647,cs),
(561,647,o),
(604,603,o),
(604,510,cs),
(604,6,l)
);
},
{
pos = (-2,0);
ref = _serif.head;
},
{
pos = (875,0);
ref = _serif.right;
}
);
width = 1356;
},
{
anchors = (
{
name = bottom;
pos = (714,0);
}
);
layerId = "106916A4-8C74-485A-AD82-F5ABB18EF495";
shapes = (
{
closed = 1;
nodes = (
(1296,6,l),
(1296,567,ls),
(1296,710,o),
(1212,789,o),
(1061,789,cs),
(932,789,o),
(815,732,o),
(734,629,c),
(754,559,l),
(826,616,o),
(889,643,o),
(949,643,cs),
(1027,643,o),
(1064,598,o),
(1064,506,cs),
(1064,6,l)
);
},
{
closed = 1;
nodes = (
(451,0,l),
(458,86,l),
(333,114,l),
(366,25,l),
(366,182,l),
(134,182,l),
(134,25,l),
(171,123,l),
(132,114,o),
(94,102,o),
(57,84,c),
(50,0,l)
);
},
{
closed = 1;
nodes = (
(366,6,l),
(366,638,l),
(134,680,l),
(134,6,l)
);
},
{
closed = 1;
nodes = (
(907,0,l),
(914,86,l),
(796,115,l),
(830,25,l),
(830,182,l),
(598,182,l),
(598,25,l),
(635,122,l),
(596,114,o),
(559,102,o),
(531,88,c),
(524,0,l)
);
},
{
closed = 1;
nodes = (
(830,6,l),
(830,567,ls),
(830,710,o),
(746,789,o),
(596,789,cs),
(468,789,o),
(352,732,o),
(270,629,c),
(290,559,l),
(362,616,o),
(425,643,o),
(484,643,cs),
(561,643,o),
(598,598,o),
(598,506,cs),
(598,6,l)
);
},
{
pos = (6,0);
ref = _serif.head;
},
{
pos = (917,0);
ref = _serif.right;
}
);
width = 1416;
}
);
metricLeft = n;
metricRight = n;
unicode = 109;
},
{
color = 4;
glyphname = n;
kernLeft = n;
kernRight = n;
layers = (
{
anchors = (
{
name = apostrophe;
pos = (83,746);
},
{
name = bottom;
pos = (479,0);
},
{
name = top;
pos = (452,746);
}
);
layerId = "8D9E6227-A940-4CC2-85D6-810E74B12C63";
shapes = (
{
closed = 1;
nodes = (
(774,6,l),
(774,541,ls),
(774,684,o),
(697,763,o),
(558,763,cs),
(442,763,o),
(333,709,o),
(252,613,c),
(272,563,l),
(344,620,o),
(412,647,o),
(482,647,cs),
(571,647,o),
(614,603,o),
(614,510,cs),
(614,6,l)
);
},
{
closed = 1;
nodes = (
(322,6,l),
(322,632,l),
(162,674,l),
(162,6,l)
);
},
{
pos = (-7,0);
ref = _serif.left;
},
{
pos = (441,0);
ref = _serif.right;
},
{
pos = (-2,0);
ref = _serif.head;
}
);
width = 922;
},
{
anchors = (
{
name = apostrophe;
pos = (81,746);
},
{
name = bottom;
pos = (497,0);
},
{
name = top;
pos = (470,746);
}
);
layerId = "106916A4-8C74-485A-AD82-F5ABB18EF495";
shapes = (
{
closed = 1;
nodes = (
(838,6,l),
(838,567,ls),
(838,710,o),
(754,789,o),
(600,789,cs),
(473,789,o),
(352,736,o),
(270,629,c),
(290,559,l),
(362,616,o),
(426,643,o),
(488,643,cs),
(568,643,o),
(606,598,o),
(606,506,cs),
(606,6,l)
);
},
{
closed = 1;
nodes = (
(366,6,l),
(366,638,l),
(134,680,l),
(134,6,l)
);
},
{
pos = (11,0);
ref = _serif.left;
},
{
pos = (459,0);
ref = _serif.right;
},
{
pos = (6,0);
ref = _serif.head;
}
);
width = 958;
}
);
unicode = 110;
},
{
color = 4;
glyphname = nhookleft;
layers = (
{
layerId = "8D9E6227-A940-4CC2-85D6-810E74B12C63";
shapes = (
{
closed = 1;
nodes = (
(751,126,l),
(751,561,ls),
(751,691,o),
(677,763,o),
(543,763,cs),
(427,763,o),
(318,709,o),
(237,613,c),
(257,563,l),
(329,620,o),
(397,647,o),
(467,647,cs),
(551,647,o),
(591,609,o),
(591,530,cs),
(591,126,l)
);
},
{
closed = 1;
nodes = (
(307,206,l),
(307,632,l),
(147,674,l),
(147,206,l)
);
},
{
closed = 1;
nodes = (
(194,-298,o),
(258,-220,o),
(286,-119,cs),
(300,-68,o),
(307,4,o),
(307,105,cs),
(307,378,l),
(147,378,l),
(147,70,ls),
(147,-90,o),
(127,-193,o),
(67,-265,cs),
(38,-300,l),
(89,-342,l)
);
},
{
pos = (-17,0);
ref = _serif.head;
},
{
pos = (418,0);
ref = _serif.right;
}
);
width = 899;
},
{
layerId = "106916A4-8C74-485A-AD82-F5ABB18EF495";
shapes = (
{
closed = 1;
nodes = (
(815,106,l),
(815,587,ls),
(815,717,o),
(733,789,o),
(585,789,cs),
(458,789,o),
(337,736,o),
(255,629,c),
(275,559,l),
(347,616,o),
(411,643,o),
(473,643,cs),
(547,643,o),
(583,605,o),
(583,526,cs),
(583,106,l)
);
},
{
closed = 1;
nodes = (
(351,206,l),
(351,638,l),
(119,680,l),
(119,206,l)
);
},
{
closed = 1;
nodes = (
(228,-293,o),
(302,-215,o),
(330,-119,cs),
(345,-67,o),
(351,8,o),
(351,113,cs),
(351,311,l),
(119,311,l),
(119,62,ls),
(119,-107,o),
(97,-203,o),
(45,-265,cs),
(25,-289,l),
(97,-348,l)
);
},
{
pos = (-9,0);
ref = _serif.head;
},
{
pos = (436,0);
ref = _serif.right;
}
);
width = 935;
}
);
metricLeft = j;
metricRight = n;
unicode = 626;
},
{
color = 4;
glyphname = eng;
kernLeft = n;
kernRight = n;
layers = (
{
layerId = "8D9E6227-A940-4CC2-85D6-810E74B12C63";
shapes = (
{
closed = 1;
nodes = (
(766,126,l),
(766,561,ls),
(766,691,o),
(692,763,o),
(558,763,cs),
(442,763,o),
(333,709,o),
(252,613,c),
(272,563,l),
(344,620,o),
(412,647,o),
(482,647,cs),
(566,647,o),
(606,609,o),
(606,530,cs),
(606,126,l)
);
},
{
closed = 1;
nodes = (
(322,6,l),
(322,632,l),
(162,674,l),
(162,6,l)
);
},
{
closed = 1;
nodes = (
(653,-298,o),
(717,-220,o),
(745,-119,cs),
(759,-68,o),
(766,4,o),
(766,105,cs),
(766,378,l),
(606,378,l),
(606,70,ls),
(606,-90,o),
(586,-193,o),
(526,-265,cs),
(497,-300,l),
(548,-342,l)
);
},
{
pos = (-7,0);
ref = _serif.left;
},
{
pos = (-2,0);
ref = _serif.head;
}
);
width = 879;
},
{
layerId = "106916A4-8C74-485A-AD82-F5ABB18EF495";
shapes = (
{
closed = 1;
nodes = (
(830,206,l),
(830,587,ls),
(830,717,o),
(748,789,o),
(600,789,cs),
(473,789,o),
(352,736,o),
(270,629,c),
(290,559,l),
(362,616,o),
(426,643,o),
(488,643,cs),
(562,643,o),
(598,605,o),
(598,526,cs),
(598,206,l)
);
},
{
closed = 1;
nodes = (
(366,6,l),
(366,638,l),
(134,680,l),
(134,6,l)
);
},
{
closed = 1;
nodes = (
(707,-293,o),
(781,-215,o),
(809,-119,cs),
(824,-67,o),
(830,8,o),
(830,113,cs),
(830,311,l),
(598,311,l),
(598,62,ls),
(598,-107,o),
(576,-203,o),
(524,-265,cs),
(504,-289,l),
(576,-348,l)
);
},
{
pos = (11,0);
ref = _serif.left;
},
{
pos = (6,0);
ref = _serif.head;
}
);
width = 917;
}
);
metricLeft = n;
metricRight = j;
unicode = 331;
},
{
color = 4;
glyphname = o;
kernLeft = o;
kernRight = o;
layers = (
{
anchors = (
{
name = bottom;
pos = (425,0);
},
{
name = horn;
pos = (640,746);
},
{
name = ogonek;
pos = (571,0);
},
{
name = top;
pos = (425,746);
}
);
layerId = "8D9E6227-A940-4CC2-85D6-810E74B12C63";
shapes = (
{
closed = 1;
nodes = (
(647,-18,o),
(788,134,o),
(788,374,cs),
(788,612,o),
(648,764,o),
(427,764,cs),
(204,764,o),
(62,611,o),
(62,371,cs),
(62,133,o),
(203,-18,o),
(424,-18,cs)
);
},
{
closed = 1;
nodes = (
(311,76,o),
(238,191,o),
(238,399,cs),
(238,582,o),
(294,670,o),
(409,670,cs),
(539,670,o),
(612,555,o),
(612,347,cs),
(612,164,o),
(556,76,o),
(441,76,cs)
);
}
);
width = 850;
},
{
anchors = (
{
name = bottom;
pos = (441,0);
},
{
name = horn;
pos = (656,746);
},
{
name = ogonek;
pos = (588,0);
},
{
name = top;
pos = (441,746);
}
);
layerId = "106916A4-8C74-485A-AD82-F5ABB18EF495";
shapes = (
{
closed = 1;
nodes = (
(688,-18,o),
(846,139,o),
(846,387,cs),
(846,633,o),
(689,790,o),
(443,790,cs),
(194,790,o),
(36,632,o),
(36,384,cs),
(36,138,o),
(193,-18,o),
(440,-18,cs)
);
},
{
closed = 1;
nodes = (
(351,106,o),
(292,216,o),
(292,413,cs),
(292,584,o),
(336,666,o),
(426,666,cs),
(531,666,o),
(590,556,o),
(590,359,cs),
(590,188,o),
(546,106,o),
(456,106,cs)
);
}
);
width = 882;
}
);
unicode = 111;
},
{
color = 4;
glyphname = oogonek;
kernLeft = o;
kernRight = o;
layers = (
{
layerId = "8D9E6227-A940-4CC2-85D6-810E74B12C63";
shapes = (
{
closed = 1;
nodes = (
(517,-343,o),
(566,-332,o),
(604,-311,c),
(609,-239,l),
(573,-248,o),
(540,-253,o),
(516,-253,cs),
(463,-253,o),
(437,-229,o),
(437,-179,cs),
(437,-73,o),
(550,-8,o),
(601,20,cs),
(727,90,o),
(788,210,o),
(788,374,c),
(591,51,l),
(405,-4,o),
(301,-97,o),
(301,-209,cs),
(301,-295,o),
(361,-343,o),
(468,-343,cs)
);
},
{
ref = o;
}
);
width = 850;
},
{
layerId = "106916A4-8C74-485A-AD82-F5ABB18EF495";
shapes = (
{
closed = 1;
nodes = (
(542,-349,o),
(596,-336,o),
(635,-312,c),
(641,-227,l),
(605,-235,o),
(574,-239,o),
(554,-239,cs),
(507,-239,o),
(485,-217,o),
(485,-172,cs),
(485,-100,o),
(538,-33,o),
(635,20,cs),
(698,54,o),
(846,136,o),
(846,387,c),
(622,57,l),
(416,5,o),
(301,-90,o),
(301,-209,cs),
(301,-299,o),
(366,-349,o),
(484,-349,cs)
);
},
{
ref = o;
}
);
width = 882;
}
);
metricLeft = o;
metricRight = o;
unicode = 491;
},
{
color = 4;
glyphname = oslash;
kernLeft = o;
kernRight = o;
layers = (
{
anchors = (
{
name = top;
pos = (425,746);
}
);
guides = (
{
angle = 270;
pos = (62,371);
},
{
angle = 270;
pos = (788,371);
}
);
layerId = "8D9E6227-A940-4CC2-85D6-810E74B12C63";
shapes = (
{
closed = 1;
nodes = (
(647,-18,o),
(788,134,o),
(788,374,cs),
(788,608,o),
(644,764,o),
(427,764,cs),
(204,764,o),
(62,611,o),
(62,371,cs),
(62,137,o),
(207,-18,o),
(424,-18,cs)
);
},
{
closed = 1;
nodes = (
(307,76,o),
(236,189,o),
(236,399,cs),
(236,582,o),
(294,670,o),
(409,670,cs),
(543,670,o),
(614,557,o),
(614,347,cs),
(614,164,o),
(556,76,o),
(441,76,cs)
);
},
{
closed = 1;
nodes = (
(648,588,l),
(658,601,l),
(778,752,l),
(716,805,l),
(202,158,l),
(192,145,l),
(72,-6,l),
(134,-59,l)
);
}
);
width = 850;
},
{
anchors = (
{
name = top;
pos = (441,746);
}
);
guides = (
{
angle = 270;
pos = (54,384);
},
{
angle = 270;
pos = (864,387);
}
);
layerId = "106916A4-8C74-485A-AD82-F5ABB18EF495";
shapes = (
{
closed = 1;
nodes = (
(688,-18,o),
(846,139,o),
(846,387,cs),
(846,627,o),
(683,790,o),
(443,790,cs),
(194,790,o),
(36,632,o),
(36,384,cs),
(36,144,o),
(199,-18,o),
(440,-18,cs)
);
},
{
closed = 1;
nodes = (
(343,102,o),
(286,209,o),
(286,413,cs),
(286,586,o),
(332,670,o),
(426,670,cs),
(539,670,o),
(596,563,o),
(596,359,cs),
(596,186,o),
(550,102,o),
(456,102,cs)
);
},
{
closed = 1;
nodes = (
(655,582,l),
(673,600,l),
(810,772,l),
(736,835,l),
(227,190,l),
(209,172,l),
(72,0,l),
(146,-63,l)
);
}
);
width = 882;
}
);
metricLeft = o;
metricRight = o;
unicode = 248;
},
{
color = 4;
glyphname = oe;
kernLeft = o;
kernRight = o;
layers = (
{
layerId = "8D9E6227-A940-4CC2-85D6-810E74B12C63";
shapes = (
{
closed = 1;
nodes = (
(615,-18,o),
(730,122,o),
(730,374,cs),
(730,625,o),
(616,764,o),
(411,764,cs),
(198,764,o),
(62,611,o),
(62,371,cs),
(62,133,o),
(196,-18,o),
(408,-18,cs)
);
},
{
closed = 1;
nodes = (
(1039,-16,o),
(1118,5,o),
(1187,47,c),
(1194,140,l),
(1119,112,o),
(1054,99,o),
(995,99,cs),
(828,99,o),
(748,204,o),
(748,419,cs),
(748,590,o),
(798,673,o),
(900,673,cs),
(1004,673,o),
(1047,587,o),
(1047,383,c),
(1213,352,l),
(1216,371,o),
(1217,390,o),
(1217,410,cs),
(1217,638,o),
(1112,764,o),
(923,764,cs),
(718,764,o),
(604,620,o),
(604,362,cs),
(604,107,o),
(715,-16,o),
(945,-16,cs)
);
},
{
closed = 1;
nodes = (
(304,75,o),
(236,192,o),
(236,401,cs),
(236,582,o),
(287,671,o),
(393,671,cs),
(514,671,o),
(582,554,o),
(582,345,cs),
(582,164,o),
(531,75,o),
(425,75,cs)
);
},
{
closed = 1;
nodes = (
(1213,352,l),
(1197,432,l),
(641,432,l),
(641,352,l)
);
}
);
width = 1275;
},
{
layerId = "106916A4-8C74-485A-AD82-F5ABB18EF495";
shapes = (
{
closed = 1;
nodes = (
(647,-18,o),
(770,127,o),
(770,387,cs),
(770,646,o),
(648,790,o),
(429,790,cs),
(189,790,o),
(36,632,o),
(36,384,cs),
(36,138,o),
(188,-18,o),
(426,-18,cs)
);
},
{
closed = 1;
nodes = (
(1076,-16,o),
(1183,9,o),
(1250,53,c),
(1260,181,l),
(1191,155,o),
(1116,140,o),
(1059,140,cs),
(890,140,o),
(808,242,o),
(808,454,cs),
(808,598,o),
(846,668,o),
(925,668,cs),
(1008,668,o),
(1043,588,o),
(1043,396,c),
(1279,349,l),
(1282,367,o),
(1283,403,o),
(1283,423,cs),
(1283,659,o),
(1164,790,o),
(949,790,cs),
(727,790,o),
(586,629,o),
(586,375,cs),
(586,124,o),
(724,-16,o),
(971,-16,cs)
);
},
{
closed = 1;
nodes = (
(344,106,o),
(290,216,o),
(290,414,cs),
(290,584,o),
(330,666,o),
(413,666,cs),
(510,666,o),
(564,556,o),
(564,358,cs),
(564,188,o),
(524,106,o),
(441,106,cs)
);
},
{
closed = 1;
nodes = (
(1279,349,l),
(1263,449,l),
(697,449,l),
(697,349,l)
);
}
);
width = 1319;
}
);
metricLeft = o;
metricRight = e;
unicode = 339;
},
{
color = 4;
glyphname = p;
kernLeft = n;
kernRight = o;
layers = (
{
layerId = "8D9E6227-A940-4CC2-85D6-810E74B12C63";
shapes = (
{
closed = 1;
nodes = (
(657,-18,o),
(807,144,o),
(807,398,cs),
(807,622,o),
(691,764,o),
(509,764,cs),
(404,764,o),
(315,716,o),
(231,616,c),
(250,573,l),
(315,624,o),
(376,648,o),
(437,648,cs),
(564,648,o),
(635,546,o),
(635,363,cs),
(635,179,o),
(563,76,o),
(433,76,cs),
(367,76,o),
(299,103,o),
(242,151,c),
(210,76,l),
(250,13,o),
(319,-18,o),
(422,-18,cs)
);
},
{
closed = 1;
nodes = (
(442,-320,l),
(447,-258,l),
(285,-230,l),
(301,-295,l),
(301,-158,l),
(141,-158,l),
(141,-295,l),
(160,-221,l),
(121,-230,o),
(83,-242,o),
(44,-260,c),
(39,-320,l)
);
},
{
closed = 1;
nodes = (
(301,-309,l),
(301,631,l),
(141,672,l),
(141,-309,l)
);
},
{
pos = (-23,0);
ref = _serif.head;
}
);
width = 863;
},
{
layerId = "106916A4-8C74-485A-AD82-F5ABB18EF495";
shapes = (
{
closed = 1;
nodes = (
(711,-18,o),
(867,149,o),
(867,411,cs),
(867,643,o),
(744,790,o),
(551,790,cs),
(438,790,o),
(340,739,o),
(249,632,c),
(268,569,l),
(331,620,o),
(388,644,o),
(443,644,cs),
(554,644,o),
(615,548,o),
(615,375,cs),
(615,202,o),
(553,106,o),
(442,106,cs),
(382,106,o),
(317,133,o),
(260,181,c),
(228,76,l),
(281,13,o),
(359,-18,o),
(465,-18,cs)
);
},
{
closed = 1;
nodes = (
(474,-320,l),
(481,-234,l),
(312,-208,l),
(345,-295,l),
(345,-138,l),
(113,-138,l),
(113,-295,l),
(150,-197,l),
(111,-206,o),
(73,-218,o),
(36,-236,c),
(29,-320,l)
);
},
{
closed = 1;
nodes = (
(345,-309,l),
(345,631,l),
(113,672,l),
(113,-309,l)
);
},
{
pos = (-15,0);
ref = _serif.head;
}
);
width = 897;
}
);
metricRight = "=o-6";
unicode = 112;
},
{
color = 4;
glyphname = thorn;
kernLeft = b;
kernRight = o;
layers = (
{
layerId = "8D9E6227-A940-4CC2-85D6-810E74B12C63";
shapes = (
{
closed = 1;
nodes = (
(640,-18,o),
(790,144,o),
(790,398,cs),
(790,622,o),
(674,764,o),
(492,764,cs),
(387,764,o),
(298,716,o),
(214,616,c),
(233,573,l),
(298,624,o),
(359,648,o),
(420,648,cs),
(547,648,o),
(618,546,o),
(618,363,cs),
(618,179,o),
(546,76,o),
(416,76,cs),
(350,76,o),
(282,103,o),
(225,151,c),
(193,76,l),
(233,13,o),
(302,-18,o),
(405,-18,cs)
);
},
{
closed = 1;
nodes = (
(425,-320,l),
(430,-258,l),
(268,-230,l),
(284,-295,l),
(284,-158,l),
(124,-158,l),
(124,-295,l),
(143,-221,l),
(104,-230,o),
(66,-242,o),
(27,-260,c),
(22,-320,l)
);
},
{
closed = 1;
nodes = (
(284,-309,l),
(284,1031,l),
(124,1072,l),
(124,-309,l)
);
},
{
pos = (-2,0);
ref = _serif.headtop;
}
);
width = 846;
},
{
layerId = "106916A4-8C74-485A-AD82-F5ABB18EF495";
shapes = (
{
closed = 1;
nodes = (
(694,-18,o),
(850,149,o),
(850,411,cs),
(850,643,o),
(727,790,o),
(534,790,cs),
(421,790,o),
(323,739,o),
(232,632,c),
(251,569,l),
(314,620,o),
(371,644,o),
(426,644,cs),
(537,644,o),
(598,548,o),
(598,375,cs),
(598,202,o),
(536,106,o),
(425,106,cs),
(365,106,o),
(300,133,o),
(243,181,c),
(211,76,l),
(264,13,o),
(342,-18,o),
(448,-18,cs)
);
},
{
closed = 1;
nodes = (
(457,-320,l),
(464,-234,l),
(295,-208,l),
(328,-295,l),
(328,-138,l),
(96,-138,l),
(96,-295,l),
(133,-197,l),
(94,-206,o),
(56,-218,o),
(19,-236,c),
(12,-320,l)
);
},
{
closed = 1;
nodes = (
(328,-309,l),
(328,1031,l),
(96,1072,l),
(96,-309,l)
);
},
{
pos = (16,0);
ref = _serif.headtop;
}
);
width = 880;
}
);
metricLeft = b;
metricRight = p;
unicode = 254;
},
{
color = 4;
glyphname = q;
kernLeft = o;
kernRight = q;
layers = (
{
color = 4;
layerId = "8D9E6227-A940-4CC2-85D6-810E74B12C63";
shapes = (
{
closed = 1;
nodes = (
(459,-18,o),
(548,30,o),
(632,130,c),
(613,173,l),
(548,122,o),
(487,98,o),
(426,98,cs),
(299,98,o),
(228,200,o),
(228,383,cs),
(228,567,o),
(300,670,o),
(430,670,cs),
(496,670,o),
(564,643,o),
(621,595,c),
(653,670,l),
(613,733,o),
(544,764,o),
(441,764,cs),
(206,764,o),
(56,602,o),
(56,348,cs),
(56,124,o),
(172,-18,o),
(354,-18,cs)
);
},
{
closed = 1;
nodes = (
(823,-320,l),
(828,-258,l),
(706,-229,l),
(722,-295,l),
(722,-158,l),
(562,-158,l),
(562,-295,l),
(581,-223,l),
(524,-231,o),
(468,-244,o),
(425,-260,c),
(420,-320,l)
);
},
{
closed = 1;
nodes = (
(722,-311,l),
(722,644,l),
(728,746,l),
(660,746,l),
(645,736,o),
(629,722,o),
(616,706,c),
(562,659,l),
(562,-311,l)
);
}
);
width = 848;
},
{
color = 4;
layerId = "106916A4-8C74-485A-AD82-F5ABB18EF495";
shapes = (
{
closed = 1;
nodes = (
(459,-18,o),
(557,33,o),
(648,140,c),
(629,203,l),
(566,152,o),
(509,128,o),
(454,128,cs),
(343,128,o),
(282,224,o),
(282,397,cs),
(282,570,o),
(344,666,o),
(455,666,cs),
(515,666,o),
(580,639,o),
(637,591,c),
(669,696,l),
(616,759,o),
(538,790,o),
(432,790,cs),
(186,790,o),
(30,623,o),
(30,361,cs),
(30,129,o),
(153,-18,o),
(346,-18,cs)
);
},
{
closed = 1;
nodes = (
(873,-320,l),
(880,-234,l),
(751,-206,l),
(784,-295,l),
(784,-138,l),
(552,-138,l),
(552,-295,l),
(589,-200,l),
(532,-209,o),
(477,-222,o),
(435,-236,c),
(428,-320,l)
);
},
{
closed = 1;
nodes = (
(784,-311,l),
(784,628,l),
(792,772,l),
(694,772,l),
(672,757,o),
(649,737,o),
(630,714,c),
(552,696,l),
(552,-311,l)
);
}
);
width = 888;
}
);
metricLeft = "=o-6";
unicode = 113;
},
{
color = 4;
glyphname = r;
kernLeft = n;
kernRight = r;
layers = (
{
anchors = (
{
name = bottom;
pos = (262,0);
},
{
name = top;
pos = (337,746);
}
);
guides = (
{
angle = 265.3893;
pos = (575,750);
}
);
layerId = "8D9E6227-A940-4CC2-85D6-810E74B12C63";
shapes = (
{
closed = 1;
nodes = (
(322,6,l),
(322,595,l),
(162,646,l),
(162,6,l)
);
},
{
closed = 1;
nodes = (
(463,0,l),
(468,62,l),
(306,90,l),
(322,26,l),
(322,162,l),
(162,162,l),
(162,26,l),
(181,99,l),
(142,90,o),
(104,78,o),
(65,60,c),
(60,0,l)
);
},
{
closed = 1;
nodes = (
(344,583,o),
(405,617,o),
(495,617,cs),
(515,617,o),
(543,615,o),
(564,612,c),
(575,750,l),
(560,755,o),
(539,756,o),
(522,756,cs),
(416,756,o),
(341,693,o),
(270,540,c),
(290,500,l)
);
},
{
pos = (-2,0);
ref = _serif.head;
}
);
width = 599;
},
{
anchors = (
{
name = bottom;
pos = (270,0);
},
{
name = top;
pos = (351,746);
}
);
guides = (
{
angle = 265.3893;
pos = (619,776);
}
);
layerId = "106916A4-8C74-485A-AD82-F5ABB18EF495";
shapes = (
{
closed = 1;
nodes = (
(366,6,l),
(366,595,l),
(134,646,l),
(134,6,l)
);
},
{
closed = 1;
nodes = (
(495,0,l),
(502,86,l),
(333,112,l),
(366,25,l),
(366,182,l),
(134,182,l),
(134,25,l),
(171,123,l),
(132,114,o),
(94,102,o),
(57,84,c),
(50,0,l)
);
},
{
closed = 1;
nodes = (
(358,569,o),
(414,603,o),
(491,603,cs),
(513,603,o),
(551,600,o),
(586,594,c),
(601,776,l),
(589,780,o),
(573,782,o),
(554,782,cs),
(433,782,o),
(352,707,o),
(278,526,c),
(298,486,l)
);
},
{
pos = (6,0);
ref = _serif.head;
}
);
width = 621;
}
);
metricLeft = n;
unicode = 114;
},
{
color = 4;
glyphname = s;
kernLeft = s;
kernRight = s;
layers = (
{
anchors = (
{
name = bottom;
pos = (322,0);
},
{
name = top;
pos = (318,746);
}
);
color = 4;
guides = (
{
angle = 67.8807;
pos = (264,311);
}
);
layerId = "8D9E6227-A940-4CC2-85D6-810E74B12C63";
shapes = (
{
closed = 1;
nodes = (
(485,-16,o),
(600,76,o),
(600,221,cs),
(600,328,o),
(538,399,o),
(409,440,cs),
(327,466,ls),
(249,491,o),
(216,524,o),
(216,579,cs),
(216,640,o),
(255,674,o),
(326,674,cs),
(377,674,o),
(436,657,o),
(491,627,c),
(393,721,l),
(475,549,l),
(557,549,l),
(559,607,o),
(554,667,o),
(543,716,c),
(485,746,o),
(413,762,o),
(342,762,cs),
(176,762,o),
(70,673,o),
(70,533,cs),
(70,424,o),
(133,352,o),
(264,311,cs),
(346,285,ls),
(419,261,o),
(450,228,o),
(450,175,cs),
(450,109,o),
(404,72,o),
(321,72,cs),
(263,72,o),
(204,90,o),
(156,121,c),
(221,61,l),
(139,233,l),
(61,233,l),
(57,165,o),
(63,97,o),
(74,48,c),
(133,7,o),
(216,-16,o),
(305,-16,cs)
);
}
);
width = 662;
},
{
anchors = (
{
name = bottom;
pos = (340,0);
},
{
name = top;
pos = (336,746);
}
);
color = 4;
guides = (
{
angle = 67.8807;
pos = (259,292);
}
);
layerId = "106916A4-8C74-485A-AD82-F5ABB18EF495";
shapes = (
{
closed = 1;
nodes = (
(528,-16,o),
(658,87,o),
(658,249,cs),
(658,359,o),
(595,440,o),
(450,485,cs),
(350,516,ls),
(282,537,o),
(252,562,o),
(252,604,cs),
(252,648,o),
(285,672,o),
(344,672,cs),
(395,672,o),
(454,655,o),
(509,625,c),
(413,712,l),
(505,540,l),
(615,540,l),
(617,612,o),
(611,681,o),
(599,735,c),
(529,769,o),
(443,788,o),
(360,788,cs),
(169,788,o),
(48,688,o),
(48,531,cs),
(48,414,o),
(117,336,o),
(259,292,cs),
(359,261,ls),
(423,241,o),
(450,216,o),
(450,176,cs),
(450,127,o),
(410,100,o),
(339,100,cs),
(281,100,o),
(222,118,o),
(174,149,c),
(237,97,l),
(145,269,l),
(39,269,l),
(35,194,o),
(40,119,o),
(54,56,c),
(124,10,o),
(220,-16,o),
(323,-16,cs)
);
}
);
width = 698;
}
);
unicode = 115;
},
{
color = 4;
glyphname = germandbls;
kernLeft = f;
kernRight = s;
layers = (
{
layerId = "8D9E6227-A940-4CC2-85D6-810E74B12C63";
shapes = (
{
closed = 1;
nodes = (
(780,-16,o),
(883,70,o),
(883,226,cs),
(883,487,o),
(597,457,o),
(597,613,cs),
(597,727,o),
(752,763,o),
(752,923,cs),
(752,1052,o),
(651,1134,o),
(493,1134,cs),
(275,1134,o),
(137,978,o),
(137,732,cs),
(137,6,l),
(297,6,l),
(297,792,ls),
(297,951,o),
(361,1040,o),
(477,1040,cs),
(560,1040,o),
(600,995,o),
(600,901,cs),
(600,721,o),
(449,738,o),
(449,568,cs),
(449,334,o),
(731,377,o),
(731,180,cs),
(731,107,o),
(692,72,o),
(612,72,cs),
(562,72,o),
(512,85,o),
(471,107,c),
(554,38,l),
(472,210,l),
(398,210,l),
(394,142,o),
(400,73,o),
(411,23,c),
(465,-3,o),
(525,-16,o),
(596,-16,cs)
);
},
{
closed = 1;
nodes = (
(297,0,l),
(297,162,l),
(137,162,l),
(137,26,l),
(156,99,l),
(117,90,o),
(79,78,o),
(40,60,c),
(35,0,l)
);
}
);
width = 945;
},
{
layerId = "106916A4-8C74-485A-AD82-F5ABB18EF495";
shapes = (
{
closed = 1;
nodes = (
(824,-16,o),
(941,79,o),
(941,251,cs),
(941,518,o),
(661,492,o),
(661,637,cs),
(661,746,o),
(818,777,o),
(818,929,cs),
(818,1058,o),
(705,1140,o),
(527,1140,cs),
(271,1140,o),
(109,970,o),
(109,702,cs),
(109,6,l),
(341,6,l),
(341,792,ls),
(341,936,o),
(396,1016,o),
(494,1016,cs),
(560,1016,o),
(592,979,o),
(592,901,cs),
(592,739,o),
(455,741,o),
(455,569,cs),
(455,328,o),
(731,352,o),
(731,186,cs),
(731,128,o),
(698,100,o),
(630,100,cs),
(583,100,o),
(533,113,o),
(489,135,c),
(602,64,l),
(510,236,l),
(408,236,l),
(404,161,o),
(409,83,o),
(423,19,c),
(480,-5,o),
(542,-16,o),
(614,-16,cs)
);
},
{
closed = 1;
nodes = (
(341,0,l),
(341,182,l),
(109,182,l),
(109,25,l),
(146,123,l),
(107,114,o),
(69,102,o),
(32,84,c),
(25,0,l)
);
}
);
width = 981;
}
);
metricLeft = f;
metricRight = s;
unicode = 223;
},
{
color = 4;
glyphname = t;
kernLeft = t;
kernRight = t;
layers = (
{
anchors = (
{
name = bar;
pos = (265,434);
},
{
name = bottom;
pos = (319,0);
},
{
name = top;
pos = (254,866);
},
{
name = topright;
pos = (301,746);
}
);
layerId = "8D9E6227-A940-4CC2-85D6-810E74B12C63";
shapes = (
{
closed = 1;
nodes = (
(406,-12,o),
(467,3,o),
(514,29,c),
(520,115,l),
(475,104,o),
(434,98,o),
(405,98,cs),
(332,98,o),
(301,135,o),
(301,223,cs),
(301,936,l),
(187,936,l),
(150,746,l),
(141,675,l),
(141,193,ls),
(141,55,o),
(207,-12,o),
(343,-12,cs)
);
},
{
closed = 1;
nodes = (
(508,650,l),
(516,746,l),
(150,746,l),
(104,745,o),
(58,739,o),
(22,730,c),
(15,650,l)
);
}
);
width = 554;
},
{
anchors = (
{
name = bar;
pos = (273,447);
},
{
name = bottom;
pos = (327,0);
},
{
name = top;
pos = (271,896);
},
{
name = topright;
pos = (345,746);
}
);
layerId = "106916A4-8C74-485A-AD82-F5ABB18EF495";
shapes = (
{
closed = 1;
nodes = (
(435,-12,o),
(502,3,o),
(547,29,c),
(555,145,l),
(510,134,o),
(469,128,o),
(440,128,cs),
(373,128,o),
(345,162,o),
(345,243,cs),
(345,964,l),
(182,964,l),
(122,772,l),
(113,701,l),
(113,213,ls),
(113,61,o),
(193,-12,o),
(359,-12,cs)
);
},
{
closed = 1;
nodes = (
(540,646,l),
(550,772,l),
(122,772,l),
(84,763,o),
(44,750,o),
(12,736,c),
(5,646,l)
);
}
);
width = 576;
}
);
note = "wider? ";
unicode = 116;
},
{
color = 4;
glyphname = tcaron;
kernLeft = t;
kernRight = tcaron;
layers = (
{
layerId = "8D9E6227-A940-4CC2-85D6-810E74B12C63";
shapes = (
{
closed = 1;
nodes = (
(568,1095,l),
(571,1125,l),
(523,1140,o),
(468,1144,o),
(416,1136,c),
(397,829,l),
(475,819,l)
);
},
{
ref = t;
}
);
width = 554;
},
{
layerId = "106916A4-8C74-485A-AD82-F5ABB18EF495";
shapes = (
{
closed = 1;
nodes = (
(632,1079,l),
(637,1129,l),
(577,1148,o),
(507,1152,o),
(440,1142,c),
(421,835,l),
(519,822,l)
);
},
{
pos = (4,0);
ref = t;
}
);
width = 576;
}
);
unicode = 357;
},
{
color = 4;
glyphname = u;
kernLeft = u;
kernRight = u;
layers = (
{
anchors = (
{
name = bottom;
pos = (418,0);
},
{
name = ogonek;
pos = (813,0);
},
{
name = top;
pos = (400,746);
}
);
layerId = "8D9E6227-A940-4CC2-85D6-810E74B12C63";
shapes = (
{
closed = 1;
nodes = (
(438,-17,o),
(538,34,o),
(629,141,c),
(610,186,l),
(535,126,o),
(465,97,o),
(396,97,cs),
(310,97,o),
(273,142,o),
(273,249,cs),
(273,659,l),
(113,670,l),
(113,217,ls),
(113,59,o),
(180,-17,o),
(322,-17,cs)
);
},
{
closed = 1;
nodes = (
(273,591,l),
(273,755,l),
(229,755,l),
(154,753,o),
(81,742,o),
(23,723,c),
(18,673,l),
(137,616,l),
(113,656,l),
(113,553,l)
);
},
{
closed = 1;
nodes = (
(719,658,l),
(559,668,l),
(559,99,l),
(719,59,l)
);
},
{
closed = 1;
nodes = (
(719,593,l),
(719,755,l),
(675,755,l),
(600,753,o),
(523,742,o),
(459,720,c),
(455,676,l),
(583,615,l),
(559,656,l),
(559,553,l)
);
},
{
pos = (435,0);
ref = _serif.base;
}
);
width = 867;
},
{
anchors = (
{
name = bottom;
pos = (450,0);
},
{
name = ogonek;
pos = (861,0);
},
{
name = top;
pos = (432,746);
}
);
layerId = "106916A4-8C74-485A-AD82-F5ABB18EF495";
shapes = (
{
closed = 1;
nodes = (
(470,-17,o),
(570,34,o),
(661,141,c),
(642,216,l),
(567,156,o),
(497,127,o),
(418,127,cs),
(350,127,o),
(321,163,o),
(321,249,cs),
(321,659,l),
(89,670,l),
(89,217,ls),
(89,59,o),
(172,-17,o),
(344,-17,cs)
);
},
{
closed = 1;
nodes = (
(321,622,l),
(321,781,l),
(257,781,l),
(166,779,o),
(81,765,o),
(17,741,c),
(10,665,l),
(129,598,l),
(89,643,l),
(89,515,l)
);
},
{
closed = 1;
nodes = (
(787,658,l),
(555,668,l),
(555,99,l),
(787,59,l)
);
},
{
closed = 1;
nodes = (
(787,622,l),
(787,781,l),
(723,781,l),
(630,779,o),
(540,763,o),
(473,738,c),
(467,668,l),
(595,597,l),
(555,643,l),
(555,515,l)
);
},
{
pos = (467,0);
ref = _serif.base;
}
);
width = 907;
}
);
unicode = 117;
},
{
color = 4;
glyphname = uhorn;
kernLeft = u;
kernRight = ohorn;
layers = (
{
anchors = (
{
name = bottom;
pos = (418,0);
},
{
name = ogonek;
pos = (813,0);
},
{
name = top;
pos = (390,746);
}
);
layerId = "8D9E6227-A940-4CC2-85D6-810E74B12C63";
shapes = (
{
closed = 1;
nodes = (
(438,-17,o),
(538,34,o),
(629,141,c),
(610,186,l),
(535,126,o),
(465,97,o),
(396,97,cs),
(310,97,o),
(273,142,o),
(273,249,cs),
(273,659,l),
(113,670,l),
(113,217,ls),
(113,59,o),
(180,-17,o),
(322,-17,cs)
);
},
{
closed = 1;
nodes = (
(273,591,l),
(273,755,l),
(229,755,l),
(154,753,o),
(81,742,o),
(23,723,c),
(18,673,l),
(137,616,l),
(113,656,l),
(113,553,l)
);
},
{
closed = 1;
nodes = (
(719,658,l),
(559,668,l),
(559,99,l),
(719,59,l)
);
},
{
closed = 1;
nodes = (
(719,593,l),
(719,735,l),
(675,735,l),
(460,720,l),
(455,676,l),
(583,615,l),
(559,656,l),
(559,553,l)
);
},
{
closed = 1;
nodes = (
(805,679,o),
(900,747,o),
(900,868,cs),
(900,925,o),
(880,978,o),
(845,1017,c),
(799,1000,o),
(754,975,o),
(716,943,c),
(746,908,o),
(760,872,o),
(760,834,cs),
(760,780,o),
(731,761,o),
(651,754,cs),
(578,748,o),
(532,744,o),
(460,720,c),
(635,679,l)
);
},
{
pos = (435,0);
ref = _serif.base;
}
);
width = 887;
},
{
anchors = (
{
name = bottom;
pos = (450,0);
},
{
name = ogonek;
pos = (861,0);
},
{
name = top;
pos = (422,746);
}
);
layerId = "106916A4-8C74-485A-AD82-F5ABB18EF495";
shapes = (
{
closed = 1;
nodes = (
(470,-17,o),
(570,34,o),
(661,141,c),
(642,216,l),
(567,156,o),
(497,127,o),
(418,127,cs),
(350,127,o),
(321,163,o),
(321,249,cs),
(321,659,l),
(89,670,l),
(89,217,ls),
(89,59,o),
(172,-17,o),
(344,-17,cs)
);
},
{
closed = 1;
nodes = (
(321,622,l),
(321,781,l),
(257,781,l),
(166,779,o),
(81,765,o),
(17,741,c),
(10,665,l),
(129,598,l),
(89,643,l),
(89,515,l)
);
},
{
closed = 1;
nodes = (
(787,658,l),
(555,668,l),
(555,99,l),
(787,59,l)
);
},
{
closed = 1;
nodes = (
(787,622,l),
(787,751,l),
(723,751,l),
(473,738,l),
(467,668,l),
(595,597,l),
(555,643,l),
(555,515,l)
);
},
{
closed = 1;
nodes = (
(846,684,o),
(952,760,o),
(952,897,cs),
(952,957,o),
(931,1012,o),
(894,1050,c),
(836,1029,o),
(779,996,o),
(735,958,c),
(760,927,o),
(772,894,o),
(772,857,cs),
(772,805,o),
(747,786,o),
(675,779,cs),
(603,772,o),
(541,763,o),
(473,738,c),
(655,684,l)
);
},
{
pos = (467,0);
ref = _serif.base;
}
);
width = 927;
}
);
metricLeft = u;
unicode = 432;
},
{
color = 4;
glyphname = v;
kernLeft = v;
kernRight = v;
layers = (
{
layerId = "8D9E6227-A940-4CC2-85D6-810E74B12C63";
shapes = (
{
closed = 1;
nodes = (
(740,679,l),
(695,643,l),
(734,652,o),
(773,664,o),
(805,682,c),
(810,746,l),
(520,746,l),
(515,680,l),
(626,651,l),
(620,680,l),
(385,0,l),
(489,-1,l)
);
},
{
closed = 1;
nodes = (
(392,-10,o),
(444,-8,o),
(489,-1,c),
(467,63,l),
(261,670,l),
(249,645,l),
(288,654,o),
(329,666,o),
(357,680,c),
(362,746,l),
(14,746,l),
(9,680,l),
(131,651,l),
(86,679,l),
(339,-6,l)
);
}
);
width = 826;
},
{
layerId = "106916A4-8C74-485A-AD82-F5ABB18EF495";
shapes = (
{
closed = 1;
nodes = (
(784,681,l),
(721,645,l),
(760,654,o),
(799,666,o),
(829,684,c),
(836,772,l),
(544,772,l),
(537,682,l),
(655,654,l),
(632,682,l),
(406,0,l),
(537,-1,l)
);
},
{
closed = 1;
nodes = (
(378,-10,o),
(479,-8,o),
(537,-1,c),
(505,62,l),
(307,672,l),
(285,647,l),
(324,656,o),
(362,668,o),
(391,682,c),
(398,772,l),
(6,772,l),
(-1,682,l),
(128,654,l),
(58,681,l),
(307,-6,l)
);
}
);
width = 842;
}
);
unicode = 118;
},
{
color = 4;
glyphname = w;
kernLeft = v;
kernRight = v;
layers = (
{
anchors = (
{
name = top;
pos = (626,736);
}
);
guides = (
{
pos = (169,175);
}
);
layerId = "8D9E6227-A940-4CC2-85D6-810E74B12C63";
shapes = (
{
closed = 1;
nodes = (
(353,-10,o),
(406,-8,o),
(447,-1,c),
(427,77,l),
(259,675,l),
(247,645,l),
(286,654,o),
(327,666,o),
(355,680,c),
(360,746,l),
(16,746,l),
(11,680,l),
(133,651,l),
(89,680,l),
(305,-6,l)
);
},
{
closed = 1;
nodes = (
(447,-1,l),
(664,726,l),
(558,727,l),
(351,14,l)
);
},
{
closed = 1;
nodes = (
(803,-10,o),
(857,-8,o),
(898,-1,c),
(876,77,l),
(692,733,l),
(649,736,o),
(595,734,o),
(558,727,c),
(565,663,l),
(756,-6,l)
);
},
{
closed = 1;
nodes = (
(898,-1,l),
(1111,678,l),
(1068,643,l),
(1107,652,o),
(1146,664,o),
(1178,682,c),
(1183,746,l),
(897,746,l),
(892,680,l),
(1003,651,l),
(995,679,l),
(802,14,l)
);
}
);
width = 1201;
},
{
anchors = (
{
name = top;
pos = (638,736);
}
);
guides = (
{
pos = (195,175);
}
);
layerId = "106916A4-8C74-485A-AD82-F5ABB18EF495";
shapes = (
{
closed = 1;
nodes = (
(321,-10,o),
(454,-8,o),
(495,-1,c),
(462,76,l),
(305,677,l),
(283,647,l),
(322,656,o),
(363,668,o),
(389,682,c),
(396,772,l),
(8,772,l),
(1,682,l),
(123,653,l),
(61,682,l),
(273,-6,l)
);
},
{
closed = 1;
nodes = (
(495,-1,l),
(699,742,l),
(568,743,l),
(376,14,l)
);
},
{
closed = 1;
nodes = (
(781,-10,o),
(915,-8,o),
(956,-1,c),
(921,76,l),
(750,749,l),
(694,753,o),
(617,750,o),
(568,743,c),
(581,576,l),
(734,-6,l)
);
},
{
closed = 1;
nodes = (
(956,-1,l),
(1165,680,l),
(1104,645,l),
(1143,654,o),
(1182,666,o),
(1212,684,c),
(1217,772,l),
(931,772,l),
(924,682,l),
(1035,653,l),
(1017,681,l),
(837,14,l)
);
}
);
width = 1225;
}
);
metricLeft = "=v+2";
metricRight = "=v+2";
unicode = 119;
},
{
color = 4;
glyphname = x;
kernLeft = x;
kernRight = x;
layers = (
{
layerId = "8D9E6227-A940-4CC2-85D6-810E74B12C63";
shapes = (
{
closed = 1;
nodes = (
(320,0,l),
(325,62,l),
(214,91,l),
(213,61,l),
(476,396,l),
(357,401,l),
(81,61,l),
(141,99,l),
(102,90,o),
(63,78,o),
(31,60,c),
(26,0,l)
);
},
{
closed = 1;
nodes = (
(798,0,l),
(803,62,l),
(681,91,l),
(746,55,l),
(487,410,l),
(358,342,l),
(555,72,l),
(559,97,l),
(520,88,o),
(479,76,o),
(451,62,c),
(446,0,l)
);
},
{
closed = 1;
nodes = (
(41,746,l),
(36,680,l),
(158,651,l),
(93,691,l),
(352,336,l),
(481,404,l),
(284,674,l),
(278,645,l),
(317,654,o),
(358,666,o),
(386,680,c),
(391,746,l)
);
},
{
closed = 1;
nodes = (
(497,746,l),
(492,680,l),
(603,651,l),
(602,685,l),
(339,350,l),
(458,345,l),
(734,685,l),
(674,643,l),
(713,652,o),
(752,664,o),
(784,682,c),
(789,746,l)
);
}
);
width = 823;
},
{
layerId = "106916A4-8C74-485A-AD82-F5ABB18EF495";
shapes = (
{
closed = 1;
nodes = (
(322,0,l),
(329,86,l),
(211,114,l),
(224,85,l),
(503,409,l),
(344,414,l),
(52,85,l),
(131,123,l),
(92,114,o),
(53,102,o),
(23,84,c),
(16,0,l)
);
},
{
closed = 1;
nodes = (
(836,0,l),
(843,86,l),
(714,114,l),
(802,79,l),
(545,423,l),
(332,355,l),
(527,96,l),
(541,121,l),
(502,112,o),
(464,100,o),
(435,86,c),
(428,0,l)
);
},
{
closed = 1;
nodes = (
(33,772,l),
(26,682,l),
(155,654,l),
(67,693,l),
(324,349,l),
(537,417,l),
(342,676,l),
(326,647,l),
(365,656,o),
(403,668,o),
(432,682,c),
(439,772,l)
);
},
{
closed = 1;
nodes = (
(525,772,l),
(518,682,l),
(636,654,l),
(621,687,l),
(342,363,l),
(501,358,l),
(793,687,l),
(714,645,l),
(753,654,o),
(792,666,o),
(822,684,c),
(829,772,l)
);
}
);
width = 853;
}
);
unicode = 120;
},
{
color = 4;
glyphname = y;
kernLeft = v;
kernRight = v;
layers = (
{
anchors = (
{
name = bottom;
pos = (616,0);
},
{
name = top;
pos = (444,746);
}
);
layerId = "8D9E6227-A940-4CC2-85D6-810E74B12C63";
shapes = (
{
closed = 1;
nodes = (
(754,677,l),
(709,643,l),
(748,652,o),
(787,664,o),
(815,682,c),
(820,746,l),
(534,746,l),
(529,680,l),
(640,651,l),
(634,678,l),
(400,48,l),
(368,22,l),
(197,-308,l),
(242,-329,o),
(297,-345,o),
(350,-352,c)
);
},
{
closed = 1;
nodes = (
(471,-1,l),
(471,63,l),
(259,670,l),
(247,645,l),
(286,654,o),
(327,666,o),
(355,680,c),
(360,746,l),
(12,746,l),
(7,680,l),
(129,651,l),
(84,679,l),
(364,-52,l)
);
}
);
width = 832;
},
{
anchors = (
{
name = bottom;
pos = (660,0);
},
{
name = top;
pos = (452,746);
}
);
layerId = "106916A4-8C74-485A-AD82-F5ABB18EF495";
shapes = (
{
closed = 1;
nodes = (
(798,679,l),
(735,645,l),
(774,654,o),
(813,666,o),
(839,684,c),
(846,772,l),
(558,772,l),
(551,682,l),
(669,654,l),
(646,680,l),
(420,48,l),
(384,22,l),
(181,-296,l),
(237,-327,o),
(312,-349,o),
(392,-358,c)
);
},
{
closed = 1;
nodes = (
(485,-1,l),
(509,62,l),
(305,672,l),
(283,647,l),
(322,656,o),
(360,668,o),
(389,682,c),
(396,772,l),
(4,772,l),
(-3,682,l),
(126,654,l),
(56,681,l),
(349,-89,l)
);
}
);
width = 848;
}
);
metricLeft = "=v-2";
metricRight = "=v-4";
unicode = 121;
},
{
color = 4;
glyphname = z;
kernLeft = z;
kernRight = z;
layers = (
{
anchors = (
{
name = bottom;
pos = (355,0);
},
{
name = top;
pos = (365,746);
}
);
layerId = "8D9E6227-A940-4CC2-85D6-810E74B12C63";
shapes = (
{
closed = 1;
nodes = (
(175,0,l),
(655,674,l),
(661,746,l),
(522,746,l),
(42,72,l),
(36,0,l)
);
},
{
closed = 1;
nodes = (
(639,0,l),
(638,84,l),
(137,84,l),
(36,0,l)
);
},
{
closed = 1;
nodes = (
(560,662,l),
(661,746,l),
(83,746,l),
(79,662,l)
);
},
{
closed = 1;
nodes = (
(137,515,l),
(219,687,l),
(83,746,l),
(66,676,o),
(59,594,o),
(63,515,c)
);
},
{
closed = 1;
nodes = (
(658,87,o),
(666,178,o),
(662,255,c),
(594,255,l),
(507,73,l),
(639,0,l)
);
}
);
width = 714;
},
{
anchors = (
{
name = bottom;
pos = (375,0);
},
{
name = top;
pos = (385,746);
}
);
guides = (
{
pos = (854,772);
}
);
layerId = "106916A4-8C74-485A-AD82-F5ABB18EF495";
shapes = (
{
closed = 1;
nodes = (
(227,0,l),
(711,676,l),
(719,772,l),
(510,772,l),
(26,96,l),
(18,0,l)
);
},
{
closed = 1;
nodes = (
(695,0,l),
(658,106,l),
(157,106,l),
(18,0,l)
);
},
{
closed = 1;
nodes = (
(580,666,l),
(719,772,l),
(67,772,l),
(98,666,l)
);
},
{
closed = 1;
nodes = (
(149,511,l),
(241,683,l),
(67,772,l),
(48,684,o),
(40,591,o),
(45,511,c)
);
},
{
closed = 1;
nodes = (
(715,96,o),
(724,198,o),
(720,285,c),
(622,285,l),
(525,103,l),
(695,0,l)
);
}
);
width = 754;
}
);
unicode = 122;
},
{
color = 4;
glyphname = f_f;
kernLeft = f;
kernRight = f;
layers = (
{
layerId = "8D9E6227-A940-4CC2-85D6-810E74B12C63";
shapes = (
{
closed = 1;
nodes = (
(826,650,l),
(826,746,l),
(375,746,l),
(375,650,l)
);
},
{
ref = f;
},
{
alignment = -1;
pos = (536,0);
ref = f;
}
);
width = 1082;
},
{
layerId = "106916A4-8C74-485A-AD82-F5ABB18EF495";
shapes = (
{
closed = 1;
nodes = (
(826,646,l),
(826,772,l),
(375,772,l),
(375,646,l)
);
},
{
ref = f;
},
{
alignment = -1;
pos = (564,0);
ref = f;
}
);
width = 1138;
}
);
metricLeft = f;
metricRight = f;
},
{
color = 4;
glyphname = ordfeminine;
layers = (
{
anchors = (
{
name = bottom;
pos = (259,507);
},
{
name = ogonek;
pos = (499,507);
},
{
name = top;
pos = (253,955);
}
);
layerId = "8D9E6227-A940-4CC2-85D6-810E74B12C63";
shapes = (
{
closed = 1;
nodes = (
(444,586,l),
(444,634,o),
(448,797,o),
(448,843,cs),
(448,933,o),
(393,977,o),
(281,977,cs),
(210,977,o),
(138,959,o),
(78,928,c),
(72,897,o),
(69,858,o),
(71,820,c),
(126,873,l),
(160,897,o),
(195,908,o),
(233,908,cs),
(291,908,o),
(319,880,o),
(319,823,cs),
(319,771,l),
(319,710,o),
(316,638,o),
(316,572,c)
);
},
{
closed = 1;
nodes = (
(136,820,l),
(194,923,l),
(79,889,l),
(71,820,l)
);
},
{
closed = 1;
nodes = (
(254,498,o),
(315,529,o),
(371,593,c),
(359,624,l),
(312,594,o),
(273,579,o),
(241,579,cs),
(196,579,o),
(172,606,o),
(172,654,cs),
(172,705,o),
(199,730,o),
(265,737,cs),
(359,747,l),
(350,808,l),
(236,786,ls),
(103,760,o),
(39,708,o),
(39,625,cs),
(39,548,o),
(95,498,o),
(183,498,cs)
);
},
{
closed = 1;
nodes = (
(410,504,o),
(464,507,o),
(500,512,c),
(504,559,l),
(424,580,l),
(444,544,l),
(444,618,l),
(322,589,l),
(350,504,l)
);
}
);
userData = {
RMXScaler = {
adjustSpace = 10;
height = 60;
verticalShift = 507;
weight = -30;
width = 66;
};
};
width = 542;
},
{
anchors = (
{
name = bottom;
pos = (267,522);
},
{
name = ogonek;
pos = (518,522);
},
{
name = top;
pos = (260,970);
}
);
layerId = "106916A4-8C74-485A-AD82-F5ABB18EF495";
shapes = (
{
closed = 1;
nodes = (
(472,601,l),
(472,649,o),
(476,824,o),
(476,869,cs),
(476,960,o),
(416,1004,o),
(293,1004,cs),
(213,1004,o),
(133,985,o),
(70,951,c),
(63,915,o),
(60,871,o),
(61,830,c),
(134,887,l),
(168,911,o),
(201,922,o),
(235,922,cs),
(289,922,o),
(315,895,o),
(315,837,cs),
(315,786,l),
(315,725,o),
(312,653,o),
(312,587,c)
);
},
{
closed = 1;
nodes = (
(140,830,l),
(201,933,l),
(68,900,l),
(61,830,l)
);
},
{
closed = 1;
nodes = (
(256,513,o),
(321,545,o),
(378,613,c),
(366,653,l),
(320,622,o),
(283,608,o),
(255,608,cs),
(215,608,o),
(194,633,o),
(194,679,cs),
(194,727,o),
(218,749,o),
(275,755,cs),
(369,765,l),
(356,836,l),
(234,812,ls),
(95,785,o),
(28,731,o),
(28,646,cs),
(28,565,o),
(88,513,o),
(181,513,cs)
);
},
{
closed = 1;
nodes = (
(422,518,o),
(481,521,o),
(519,527,c),
(524,585,l),
(446,606,l),
(472,559,l),
(472,642,l),
(321,609,l),
(355,518,l)
);
}
);
userData = {
RMXScaler = {
adjustSpace = 10;
height = 60;
verticalShift = 522;
weight = -70;
width = 66;
};
};
width = 558;
}
);
unicode = 170;
userData = {
RMXScaler = {
source = a;
};
};
},
{
color = 4;
glyphname = ordmasculine;
layers = (
{
anchors = (
{
name = bottom;
pos = (286,507);
},
{
name = horn;
pos = (424,955);
},
{
name = ogonek;
pos = (381,507);
},
{
name = top;
pos = (286,955);
}
);
layerId = "8D9E6227-A940-4CC2-85D6-810E74B12C63";
shapes = (
{
closed = 1;
nodes = (
(438,496,o),
(535,590,o),
(535,738,cs),
(535,884,o),
(439,978,o),
(288,978,cs),
(135,978,o),
(38,884,o),
(38,736,cs),
(38,589,o),
(134,496,o),
(286,496,cs)
);
},
{
closed = 1;
nodes = (
(223,567,o),
(181,633,o),
(181,753,cs),
(181,857,o),
(213,907,o),
(277,907,cs),
(350,907,o),
(392,840,o),
(392,721,cs),
(392,617,o),
(360,567,o),
(296,567,cs)
);
}
);
userData = {
RMXScaler = {
adjustSpace = 10;
height = 60;
verticalShift = 507;
weight = -30;
width = 64;
};
};
width = 573;
},
{
anchors = (
{
name = bottom;
pos = (296,522);
},
{
name = horn;
pos = (434,970);
},
{
name = ogonek;
pos = (390,522);
},
{
name = top;
pos = (296,970);
}
);
layerId = "106916A4-8C74-485A-AD82-F5ABB18EF495";
shapes = (
{
closed = 1;
nodes = (
(459,511,o),
(563,607,o),
(563,758,cs),
(563,908,o),
(460,1004,o),
(297,1004,cs),
(133,1004,o),
(29,908,o),
(29,757,cs),
(29,606,o),
(132,511,o),
(295,511,cs)
);
},
{
closed = 1;
nodes = (
(243,595,o),
(208,660,o),
(208,774,cs),
(208,873,o),
(234,920,o),
(287,920,cs),
(349,920,o),
(384,856,o),
(384,741,cs),
(384,642,o),
(358,595,o),
(305,595,cs)
);
}
);
userData = {
RMXScaler = {
adjustSpace = 10;
height = 60;
verticalShift = 522;
weight = -70;
width = 64;
};
};
width = 592;
}
);
unicode = 186;
userData = {
RMXScaler = {
source = o;
};
};
},
{
color = 4;
glyphname = pi;
layers = (
{
layerId = "8D9E6227-A940-4CC2-85D6-810E74B12C63";
shapes = (
{
closed = 1;
nodes = (
(135,596,o),
(249,617,o),
(376,618,c),
(620,618,l),
(714,618,o),
(830,613,o),
(946,604,c),
(958,751,l),
(850,748,o),
(733,746,o),
(630,746,c),
(386,746,l),
(236,746,o),
(84,703,o),
(-5,633,c),
(24,553,l)
);
},
{
closed = 1;
nodes = (
(223,-8,o),
(280,-4,o),
(327,3,c),
(349,191,o),
(369,442,o),
(378,648,c),
(257,637,l),
(240,405,o),
(208,175,o),
(167,-8,c)
);
},
{
closed = 1;
nodes = (
(781,-3,o),
(817,4,o),
(856,18,c),
(861,82,l),
(773,98,o),
(741,122,o),
(741,176,cs),
(741,249,ls),
(741,417,o),
(743,551,o),
(746,651,c),
(623,651,l),
(609,484,o),
(601,308,o),
(601,149,cs),
(601,51,o),
(653,-3,o),
(746,-3,cs)
);
}
);
width = 992;
},
{
layerId = "106916A4-8C74-485A-AD82-F5ABB18EF495";
shapes = (
{
closed = 1;
nodes = (
(126,572,o),
(237,593,o),
(364,594,c),
(648,594,l),
(735,594,o),
(847,589,o),
(963,580,c),
(979,777,l),
(855,774,o),
(742,772,o),
(662,772,c),
(378,772,l),
(237,772,o),
(84,718,o),
(-15,630,c),
(21,529,l)
);
},
{
closed = 1;
nodes = (
(203,-8,o),
(328,-4,o),
(375,3,c),
(397,191,o),
(413,421,o),
(421,648,c),
(242,637,l),
(230,440,o),
(196,210,o),
(147,-8,c)
);
},
{
closed = 1;
nodes = (
(797,-3,o),
(837,4,o),
(876,18,c),
(883,108,l),
(808,122,o),
(781,142,o),
(781,186,cs),
(781,249,ls),
(781,420,o),
(783,556,o),
(786,657,c),
(603,657,l),
(584,462,o),
(573,287,o),
(573,158,cs),
(573,55,o),
(638,-3,o),
(756,-3,cs)
);
}
);
width = 1000;
}
);
metricLeft = "=t-20";
metricRight = t;
unicode = 960;
},
{
color = 6;
glyphname = "hamza-ar";
layers = (
{
anchors = (
{
name = bottom;
pos = (353,116);
},
{
name = top;
pos = (291,580);
}
);
layerId = "8D9E6227-A940-4CC2-85D6-810E74B12C63";
shapes = (
{
closed = 1;
nodes = (
(112,-38,l),
(219,24,o),
(363,92,o),
(579,166,c),
(588,301,l),
(504,270,o),
(447,250,o),
(413,239,cs),
(346,216,o),
(210,287,o),
(210,352,cs),
(210,392,o),
(269,433,o),
(346,433,cs),
(390,433,o),
(440,425,o),
(488,414,c),
(518,519,l),
(463,550,o),
(405,565,o),
(352,565,cs),
(221,565,o),
(113,482,o),
(113,337,cs),
(113,253,o),
(161,162,o),
(278,101,c),
(260,164,l),
(192,130,o),
(135,94,o),
(100,68,c),
(105,-38,l)
);
}
);
width = 648;
},
{
anchors = (
{
name = bottom;
pos = (372,44);
},
{
name = top;
pos = (372,580);
}
);
layerId = "106916A4-8C74-485A-AD82-F5ABB18EF495";
shapes = (
{
closed = 1;
nodes = (
(115,-92,l),
(238,-22,o),
(406,48,o),
(614,116,c),
(628,321,l),
(546,290,o),
(484,268,o),
(437,253,cs),
(342,222,o),
(232,279,o),
(232,321,cs),
(232,361,o),
(279,399,o),
(379,399,cs),
(419,399,o),
(472,394,o),
(523,386,c),
(565,531,l),
(495,573,o),
(441,591,o),
(379,591,cs),
(219,591,o),
(110,478,o),
(110,313,cs),
(110,189,o),
(190,76,o),
(332,27,c),
(269,179,l),
(210,150,o),
(150,113,o),
(96,72,c),
(104,-92,l)
);
}
);
width = 698;
}
);
unicode = 1569;
},
{
color = 1;
glyphname = "alef-ar";
layers = (
{
anchors = (
{
name = bottom;
pos = (289,-43);
},
{
name = top;
pos = (96,1041);
}
);
layerId = "8D9E6227-A940-4CC2-85D6-810E74B12C63";
shapes = (
{
closed = 1;
nodes = (
(287,0,l),
(260,357,o),
(229,676,o),
(189,1048,c),
(60,1038,l),
(108,691,o),
(153,324,o),
(182,0,c)
);
}
);
width = 407;
},
{
anchors = (
{
name = bottom;
pos = (232,0);
},
{
name = top;
pos = (123,1078);
}
);
layerId = "106916A4-8C74-485A-AD82-F5ABB18EF495";
shapes = (
{
closed = 1;
nodes = (
(342,0,l),
(318,332,o),
(287,693,o),
(245,1088,c),
(70,1078,l),
(123,688,o),
(163,329,o),
(192,0,c)
);
}
);
width = 470;
}
);
unicode = 1575;
},
{
color = 1;
glyphname = "alef-ar.fina";
layers = (
{
anchors = (
{
name = bottom;
pos = (362,-43);
},
{
name = top;
pos = (91,1041);
}
);
layerId = "8D9E6227-A940-4CC2-85D6-810E74B12C63";
shapes = (
{
closed = 1;
nodes = (
(407,155,l),
(352,155,o),
(322,163,o),
(303,182,cs),
(276,208,o),
(266,251,o),
(252,401,cs),
(220,737,o),
(203,910,o),
(189,1048,c),
(60,1038,l),
(89,832,o),
(107,692,o),
(142,401,cs),
(174,152,o),
(189,95,o),
(238,49,cs),
(274,15,o),
(326,0,o),
(407,0,c)
);
},
{
pos = (358,0);
ref = connection_r;
}
);
width = 407;
},
{
anchors = (
{
name = bottom;
pos = (332,0);
},
{
name = top;
pos = (150,1078);
}
);
layerId = "106916A4-8C74-485A-AD82-F5ABB18EF495";
shapes = (
{
closed = 1;
nodes = (
(454,235,l),
(404,235,o),
(371,241,o),
(349,260,cs),
(316,287,o),
(307,341,o),
(300,442,cs),
(290,576,o),
(265,868,o),
(242,1088,c),
(70,1078,l),
(108,790,o),
(130,613,o),
(153,401,cs),
(169,249,o),
(177,171,o),
(214,112,cs),
(263,39,o),
(326,0,o),
(454,0,c)
);
},
{
pos = (354,0);
ref = connection_r;
}
);
width = 454;
}
);
unicode = 65166;
},
{
color = 1;
glyphname = "dotlessbeh-ar";
layers = (
{
anchors = (
{
name = bottom;
pos = (736,-35);
},
{
name = top;
pos = (694,402);
}
);
layerId = "8D9E6227-A940-4CC2-85D6-810E74B12C63";
shapes = (
{
closed = 1;
nodes = (
(858,-24,o),
(1086,-10,o),
(1212,11,cs),
(1296,25,o),
(1306,30,o),
(1327,72,cs),
(1346,110,o),
(1356,173,o),
(1356,217,cs),
(1356,318,o),
(1317,447,o),
(1267,563,c),
(1147,553,l),
(1194,431,o),
(1242,299,o),
(1254,216,cs),
(1259,176,o),
(1252,171,o),
(1218,164,cs),
(1121,147,o),
(856,133,o),
(664,135,cs),
(364,138,o),
(201,199,o),
(201,427,cs),
(201,464,o),
(205,505,o),
(214,552,c),
(126,567,l),
(109,488,o),
(100,419,o),
(100,359,cs),
(100,70,o),
(295,-24,o),
(701,-24,cs)
);
}
);
width = 1438;
},
{
anchors = (
{
name = bottom;
pos = (807,0);
},
{
name = top;
pos = (735,436);
}
);
layerId = "106916A4-8C74-485A-AD82-F5ABB18EF495";
shapes = (
{
closed = 1;
nodes = (
(931,-23,o),
(1171,-2,o),
(1298,20,cs),
(1374,33,o),
(1396,44,o),
(1420,92,cs),
(1442,136,o),
(1455,198,o),
(1455,247,cs),
(1455,358,o),
(1414,492,o),
(1362,613,c),
(1193,600,l),
(1237,490,o),
(1282,371,o),
(1293,296,cs),
(1298,252,o),
(1291,244,o),
(1257,239,cs),
(1170,226,o),
(843,215,o),
(681,215,cs),
(395,215,o),
(259,256,o),
(259,467,cs),
(259,503,o),
(263,545,o),
(271,592,c),
(138,607,l),
(119,519,o),
(110,443,o),
(110,377,cs),
(110,70,o),
(314,-23,o),
(742,-23,cs)
);
}
);
width = 1547;
}
);
unicode = 1646;
},
{
color = 1;
glyphname = "dotlessbeh-ar.fina";
layers = (
{
anchors = (
{
name = bottom;
pos = (736,-25);
},
{
name = top;
pos = (694,402);
}
);
layerId = "8D9E6227-A940-4CC2-85D6-810E74B12C63";
shapes = (
{
closed = 1;
nodes = (
(840,-24,o),
(1156,-10,o),
(1292,29,c),
(1192,29,l),
(1274,4,o),
(1337,0,o),
(1477,0,c),
(1477,155,l),
(1262,155,l),
(1331,104,l),
(1336,126,o),
(1339,151,o),
(1339,177,cs),
(1339,226,o),
(1329,281,o),
(1318,341,cs),
(1308,395,o),
(1294,454,o),
(1280,516,c),
(1167,507,l),
(1223,207,ls),
(1229,174,o),
(1224,166,o),
(1192,161,cs),
(1095,146,o),
(822,135,o),
(699,136,cs),
(373,139,o),
(200,188,o),
(200,423,cs),
(200,461,o),
(205,504,o),
(214,552,c),
(126,567,l),
(109,489,o),
(101,421,o),
(101,360,cs),
(101,75,o),
(291,-24,o),
(684,-24,cs)
);
},
{
pos = (1428,0);
ref = connection_r;
}
);
width = 1477;
},
{
anchors = (
{
name = bottom;
pos = (747,0);
},
{
name = top;
pos = (725,436);
}
);
layerId = "106916A4-8C74-485A-AD82-F5ABB18EF495";
shapes = (
{
closed = 1;
nodes = (
(868,-24,o),
(1197,-6,o),
(1308,27,c),
(1208,31,l),
(1288,5,o),
(1349,0,o),
(1500,0,c),
(1500,235,l),
(1279,235,l),
(1383,147,l),
(1386,163,o),
(1387,182,o),
(1387,203,cs),
(1387,247,o),
(1381,301,o),
(1371,361,cs),
(1359,433,o),
(1343,514,o),
(1324,596,c),
(1172,587,l),
(1225,307,ls),
(1236,251,o),
(1227,245,o),
(1193,240,cs),
(1102,226,o),
(840,215,o),
(722,215,cs),
(400,215,o),
(260,238,o),
(260,467,cs),
(260,504,o),
(263,545,o),
(270,592,c),
(138,607,l),
(119,522,o),
(110,447,o),
(110,381,cs),
(110,84,o),
(303,-24,o),
(707,-24,cs)
);
},
{
pos = (1400,0);
ref = connection_r;
}
);
width = 1500;
}
);
},
{
color = 1;
glyphname = "dotlessbeh-ar.medi";
layers = (
{
anchors = (
{
name = bottom;
pos = (186,-15);
},
{
name = top;
pos = (221,507);
}
);
layerId = "8D9E6227-A940-4CC2-85D6-810E74B12C63";
shapes = (
{
closed = 1;
nodes = (
(96,0,ls),
(226,0,o),
(328,10,o),
(381,32,c),
(307,36,l),
(352,15,o),
(410,0,o),
(477,0,cs),
(506,0,l),
(506,155,l),
(364,155,l),
(401,122,l),
(396,236,o),
(371,360,o),
(334,516,c),
(221,507,l),
(276,212,ls),
(285,164,o),
(278,155,o),
(242,155,cs),
(0,155,l),
(0,0,l)
);
},
{
pos = (457,0);
ref = connection_r;
},
{
ref = connection_l;
}
);
width = 506;
},
{
anchors = (
{
name = bottom;
pos = (230,-10);
},
{
name = top;
pos = (260,580);
}
);
layerId = "106916A4-8C74-485A-AD82-F5ABB18EF495";
shapes = (
{
closed = 1;
nodes = (
(101,0,ls),
(294,0,o),
(406,8,o),
(475,44,c),
(361,44,l),
(397,21,o),
(474,0,o),
(553,0,cs),
(576,0,l),
(576,235,l),
(434,235,l),
(490,161,l),
(490,299,o),
(446,465,o),
(409,595,c),
(258,586,l),
(311,314,ls),
(324,246,o),
(322,235,o),
(276,235,cs),
(0,235,l),
(0,0,l)
);
},
{
pos = (476,0);
ref = connection_r;
},
{
ref = connection_l;
}
);
width = 576;
}
);
},
{
color = 1;
glyphname = "dotlessbeh-ar.init";
layers = (
{
anchors = (
{
name = bottom;
pos = (168,-15);
},
{
name = top;
pos = (198,540);
}
);
layerId = "8D9E6227-A940-4CC2-85D6-810E74B12C63";
shapes = (
{
closed = 1;
nodes = (
(300,0,ls),
(343,0,o),
(361,11,o),
(382,58,cs),
(398,94,o),
(407,142,o),
(407,196,cs),
(407,292,o),
(378,412,o),
(318,551,c),
(198,540,l),
(253,401,o),
(291,274,o),
(305,212,cs),
(315,158,o),
(306,155,o),
(272,155,cs),
(0,155,l),
(0,0,l)
);
},
{
ref = connection_l;
}
);
width = 489;
},
{
anchors = (
{
name = bottom;
pos = (231,0);
},
{
name = top;
pos = (260,600);
}
);
guides = (
{
pos = (499,580);
}
);
layerId = "106916A4-8C74-485A-AD82-F5ABB18EF495";
shapes = (
{
closed = 1;
nodes = (
(377,0,ls),
(432,0,o),
(455,13,o),
(483,73,cs),
(503,116,o),
(517,172,o),
(517,231,cs),
(517,348,o),
(484,475,o),
(420,631,c),
(250,620,l),
(302,484,o),
(337,370,o),
(350,312,cs),
(367,240,o),
(360,235,o),
(304,235,cs),
(0,235,l),
(0,0,l)
);
},
{
ref = connection_l;
}
);
width = 609;
}
);
},
{
color = 1;
glyphname = "hah-ar";
layers = (
{
anchors = (
{
name = bottom;
pos = (704,-714);
},
{
name = top;
pos = (423,681);
}
);
layerId = "8D9E6227-A940-4CC2-85D6-810E74B12C63";
shapes = (
{
closed = 1;
nodes = (
(475,-527,o),
(258,-396,o),
(258,-192,cs),
(258,104,o),
(691,289,o),
(1053,320,c),
(1073,467,l),
(1025,467,o),
(980,473,o),
(934,484,cs),
(871,499,o),
(805,522,o),
(727,549,cs),
(610,589,o),
(493,631,o),
(393,631,cs),
(228,631,o),
(100,514,o),
(80,368,c),
(151,325,l),
(199,428,o),
(269,475,o),
(395,475,cs),
(493,475,o),
(645,418,o),
(798,373,c),
(797,405,l),
(440,314,o),
(157,112,o),
(157,-215,cs),
(157,-508,o),
(393,-684,o),
(785,-684,cs),
(878,-684,o),
(980,-674,o),
(1089,-654,c),
(1120,-493,l),
(1013,-516,o),
(910,-527,o),
(813,-527,cs)
);
}
);
width = 1180;
},
{
anchors = (
{
name = bottom;
pos = (779,-749);
},
{
name = top;
pos = (546,745);
}
);
layerId = "106916A4-8C74-485A-AD82-F5ABB18EF495";
shapes = (
{
closed = 1;
nodes = (
(558,-487,o),
(307,-379,o),
(307,-174,cs),
(307,97,o),
(751,277,o),
(1093,319,c),
(1113,517,l),
(1055,520,o),
(989,524,o),
(948,531,cs),
(892,540,o),
(812,569,o),
(728,598,cs),
(656,623,o),
(516,670,o),
(406,670,cs),
(186,670,o),
(110,493,o),
(90,378,c),
(198,315,l),
(235,422,o),
(298,445,o),
(380,445,cs),
(485,445,o),
(587,414,o),
(759,367,c),
(740,421,l),
(411,309,o),
(167,92,o),
(167,-229,cs),
(167,-562,o),
(437,-719,o),
(799,-719,cs),
(891,-719,o),
(988,-709,o),
(1088,-689,c),
(1143,-459,l),
(1049,-478,o),
(954,-487,o),
(864,-487,cs)
);
}
);
width = 1213;
}
);
unicode = 1581;
},
{
color = 1;
glyphname = "hah-ar.fina";
layers = (
{
anchors = (
{
name = bottom;
pos = (704,-714);
},
{
name = top;
pos = (422,681);
}
);
layerId = "8D9E6227-A940-4CC2-85D6-810E74B12C63";
shapes = (
{
closed = 1;
nodes = (
(463,-527,o),
(238,-396,o),
(238,-192,cs),
(238,104,o),
(682,289,o),
(1053,320,c),
(1073,467,l),
(1025,467,o),
(980,473,o),
(934,484,cs),
(871,499,o),
(805,522,o),
(727,549,cs),
(610,589,o),
(493,631,o),
(393,631,cs),
(228,631,o),
(100,514,o),
(80,368,c),
(151,325,l),
(199,428,o),
(269,475,o),
(395,475,cs),
(493,475,o),
(645,418,o),
(798,373,c),
(797,405,l),
(429,314,o),
(137,112,o),
(137,-215,cs),
(137,-508,o),
(381,-684,o),
(785,-684,cs),
(872,-684,o),
(967,-674,o),
(1069,-654,c),
(1100,-493,l),
(1000,-516,o),
(904,-527,o),
(813,-527,cs)
);
},
{
closed = 1;
nodes = (
(1197,0,l),
(1197,155,l),
(1054,155,ls),
(940,155,o),
(903,178,o),
(887,242,c),
(825,186,l),
(855,10,o),
(945,0,o),
(1146,0,cs)
);
},
{
pos = (1148,0);
ref = connection_r;
}
);
width = 1197;
},
{
anchors = (
{
name = bottom;
pos = (779,-749);
},
{
name = top;
pos = (546,745);
}
);
layerId = "106916A4-8C74-485A-AD82-F5ABB18EF495";
shapes = (
{
closed = 1;
nodes = (
(558,-487,o),
(307,-379,o),
(307,-174,cs),
(307,97,o),
(751,277,o),
(1093,319,c),
(1113,517,l),
(1055,520,o),
(989,524,o),
(948,531,cs),
(892,540,o),
(812,569,o),
(728,598,cs),
(656,623,o),
(516,670,o),
(406,670,cs),
(186,670,o),
(110,493,o),
(90,378,c),
(198,315,l),
(235,422,o),
(298,445,o),
(380,445,cs),
(485,445,o),
(587,414,o),
(759,367,c),
(740,421,l),
(411,309,o),
(167,92,o),
(167,-229,cs),
(167,-562,o),
(437,-719,o),
(799,-719,cs),
(891,-719,o),
(988,-709,o),
(1088,-689,c),
(1143,-459,l),
(1049,-478,o),
(954,-487,o),
(864,-487,cs)
);
},
{
closed = 1;
nodes = (
(1207,0,l),
(1207,235,l),
(1135,235,ls),
(1045,235,o),
(974,235,o),
(932,258,c),
(854,186,l),
(885,34,o),
(1013,0,o),
(1172,0,cs)
);
},
{
pos = (1107,0);
ref = connection_r;
}
);
width = 1207;
}
);
unicode = 65186;
},
{
color = 1;
glyphname = "hah-ar.medi";
layers = (
{
anchors = (
{
name = bottom;
pos = (637,0);
},
{
name = top;
pos = (478,673);
}
);
layerId = "8D9E6227-A940-4CC2-85D6-810E74B12C63";
shapes = (
{
closed = 1;
nodes = (
(43,0,ls),
(352,0,o),
(566,95,o),
(753,179,cs),
(898,244,o),
(1027,302,o),
(1171,302,c),
(1191,435,l),
(1055,435,o),
(993,458,o),
(826,523,cs),
(630,599,o),
(536,623,o),
(448,623,cs),
(305,623,o),
(186,529,o),
(131,373,c),
(198,326,l),
(257,433,o),
(326,477,o),
(422,477,cs),
(506,477,o),
(580,454,o),
(753,393,cs),
(776,385,o),
(897,342,o),
(903,340,c),
(911,375,l),
(632,247,o),
(355,155,o),
(73,155,cs),
(0,155,l),
(0,0,l)
);
},
{
closed = 1;
nodes = (
(1320,0,l),
(1320,155,l),
(1177,155,ls),
(1063,155,o),
(1026,178,o),
(1010,242,c),
(948,186,l),
(978,10,o),
(1068,0,o),
(1269,0,cs)
);
},
{
pos = (1271,0);
ref = connection_r;
},
{
ref = connection_l;
}
);
width = 1320;
},
{
anchors = (
{
name = bottom;
pos = (603,30);
},
{
name = top;
pos = (507,787);
}
);
layerId = "106916A4-8C74-485A-AD82-F5ABB18EF495";
shapes = (
{
closed = 1;
nodes = (
(23,0,ls),
(360,0,o),
(586,111,o),
(772,212,cs),
(903,283,o),
(1022,345,o),
(1161,345,c),
(1191,558,l),
(1014,558,o),
(898,583,o),
(724,639,cs),
(634,668,o),
(531,696,o),
(442,696,cs),
(256,696,o),
(155,573,o),
(101,413,c),
(208,350,l),
(264,444,o),
(319,479,o),
(428,479,cs),
(489,479,o),
(565,470,o),
(656,451,cs),
(729,435,o),
(810,413,o),
(900,385,c),
(865,441,l),
(631,320,o),
(316,235,o),
(53,235,cs),
(0,235,l),
(0,0,l)
);
},
{
closed = 1;
nodes = (
(1300,0,l),
(1300,235,l),
(1228,235,ls),
(1137,235,o),
(1065,235,o),
(1022,288,c),
(944,216,l),
(975,40,o),
(1104,0,o),
(1265,0,cs)
);
},
{
pos = (1200,0);
ref = connection_r;
},
{
ref = connection_l;
}
);
width = 1300;
}
);
unicode = 65188;
},
{
color = 1;
glyphname = "hah-ar.init";
layers = (
{
anchors = (
{
name = bottom;
pos = (637,0);
},
{
name = top;
pos = (478,656);
}
);
layerId = "8D9E6227-A940-4CC2-85D6-810E74B12C63";
shapes = (
{
closed = 1;
nodes = (
(43,0,ls),
(350,0,o),
(570,92,o),
(761,171,cs),
(906,232,o),
(1035,285,o),
(1171,285,c),
(1191,418,l),
(1055,418,o),
(993,441,o),
(826,506,cs),
(636,580,o),
(537,606,o),
(448,606,cs),
(305,606,o),
(186,518,o),
(131,373,c),
(198,326,l),
(259,422,o),
(326,460,o),
(422,460,cs),
(520,460,o),
(660,410,o),
(777,368,cs),
(822,352,o),
(863,337,o),
(898,327,c),
(910,361,l),
(637,240,o),
(349,155,o),
(73,155,cs),
(0,155,l),
(0,0,l)
);
},
{
ref = connection_l;
}
);
width = 1271;
},
{
anchors = (
{
name = bottom;
pos = (603,30);
},
{
name = top;
pos = (507,787);
}
);
layerId = "106916A4-8C74-485A-AD82-F5ABB18EF495";
shapes = (
{
closed = 1;
nodes = (
(23,0,ls),
(360,0,o),
(579,107,o),
(765,198,cs),
(904,266,o),
(1024,325,o),
(1161,325,c),
(1191,538,l),
(1064,538,o),
(947,563,o),
(808,609,cs),
(636,666,o),
(544,696,o),
(440,696,cs),
(258,696,o),
(155,574,o),
(101,413,c),
(208,350,l),
(248,417,o),
(294,480,o),
(436,480,cs),
(510,480,o),
(595,465,o),
(692,441,cs),
(722,434,o),
(864,395,o),
(910,381,c),
(878,432,l),
(641,315,o),
(320,235,o),
(53,235,cs),
(0,235,l),
(0,0,l)
);
},
{
ref = connection_l;
}
);
width = 1281;
}
);
unicode = 65187;
},
{
color = 1;
glyphname = "dal-ar";
layers = (
{
anchors = (
{
name = bottom;
pos = (465,-44);
},
{
name = top;
pos = (427,784);
}
);
layerId = "8D9E6227-A940-4CC2-85D6-810E74B12C63";
shapes = (
{
closed = 1;
nodes = (
(528,-13,o),
(659,-5,o),
(704,6,cs),
(737,14,o),
(763,41,o),
(778,75,cs),
(792,106,o),
(799,144,o),
(799,182,cs),
(799,202,o),
(797,222,o),
(793,241,cs),
(756,419,o),
(617,623,o),
(475,783,c),
(369,673,l),
(493,545,o),
(640,365,o),
(693,225,cs),
(700,207,o),
(703,194,o),
(703,184,cs),
(703,163,o),
(689,159,o),
(655,155,cs),
(598,148,o),
(509,146,o),
(446,146,cs),
(304,146,o),
(203,165,o),
(168,298,c),
(90,257,l),
(122,41,o),
(211,-13,o),
(434,-13,cs)
);
}
);
width = 879;
},
{
anchors = (
{
name = bottom;
pos = (482,-51);
},
{
name = top;
pos = (440,857);
}
);
layerId = "106916A4-8C74-485A-AD82-F5ABB18EF495";
shapes = (
{
closed = 1;
nodes = (
(550,-14,o),
(684,0,o),
(744,14,cs),
(771,20,o),
(796,47,o),
(814,85,cs),
(833,123,o),
(845,171,o),
(845,221,cs),
(845,261,o),
(837,304,o),
(823,350,cs),
(772,517,o),
(640,713,o),
(510,857,c),
(370,712,l),
(474,605,o),
(599,452,o),
(666,336,cs),
(685,305,o),
(698,277,o),
(698,261,cs),
(698,246,o),
(686,234,o),
(655,232,cs),
(580,226,o),
(516,223,o),
(463,223,cs),
(299,223,o),
(237,249,o),
(216,383,c),
(100,326,l),
(114,88,o),
(216,-14,o),
(455,-14,cs)
);
}
);
width = 935;
}
);
unicode = 1583;
},
{
color = 1;
glyphname = "dal-ar.fina";
layers = (
{
anchors = (
{
name = bottom;
pos = (465,-44);
},
{
name = top;
pos = (464,780);
}
);
layerId = "8D9E6227-A940-4CC2-85D6-810E74B12C63";
shapes = (
{
closed = 1;
nodes = (
(911,155,ls),
(820,155,o),
(805,163,o),
(782,243,cs),
(723,442,o),
(644,623,o),
(518,773,c),
(404,688,l),
(539,518,o),
(672,308,o),
(703,130,c),
(772,192,l),
(681,158,o),
(553,145,o),
(443,145,cs),
(300,145,o),
(200,168,o),
(168,297,c),
(90,256,l),
(122,52,o),
(208,-14,o),
(415,-14,cs),
(548,-14,o),
(683,9,o),
(812,50,c),
(736,45,l),
(776,10,o),
(822,0,o),
(897,0,cs),
(960,0,l),
(960,155,l)
);
},
{
pos = (911,0);
ref = connection_r;
}
);
width = 960;
},
{
anchors = (
{
name = bottom;
pos = (482,-51);
},
{
name = top;
pos = (440,857);
}
);
layerId = "106916A4-8C74-485A-AD82-F5ABB18EF495";
shapes = (
{
closed = 1;
nodes = (
(923,235,ls),
(856,235,o),
(840,240,o),
(825,294,cs),
(768,497,o),
(682,695,o),
(550,849,c),
(402,738,l),
(558,539,o),
(699,312,o),
(736,106,c),
(801,269,l),
(721,236,o),
(573,223,o),
(466,223,cs),
(299,223,o),
(239,244,o),
(216,382,c),
(100,326,l),
(113,88,o),
(217,-14,o),
(455,-14,cs),
(583,-14,o),
(717,9,o),
(848,52,c),
(763,54,l),
(808,14,o),
(856,0,o),
(936,0,cs),
(1003,0,l),
(1003,235,l)
);
},
{
pos = (903,0);
ref = connection_r;
}
);
width = 1003;
}
);
unicode = 65194;
},
{
color = 1;
glyphname = "reh-ar";
kernLeft = "reh-ar";
kernRight = "reh-ar";
layers = (
{
anchors = (
{
name = bottom;
pos = (246,-474);
},
{
name = top;
pos = (267,555);
}
);
layerId = "8D9E6227-A940-4CC2-85D6-810E74B12C63";
shapes = (
{
closed = 1;
nodes = (
(149,-444,o),
(251,-397,o),
(328,-341,cs),
(445,-256,o),
(510,-147,o),
(510,17,cs),
(510,109,o),
(490,198,o),
(466,288,cs),
(442,376,o),
(420,445,o),
(384,540,c),
(257,505,l),
(301,392,o),
(348,264,o),
(374,188,cs),
(398,117,o),
(416,57,o),
(416,9,cs),
(416,-53,o),
(387,-111,o),
(328,-162,cs),
(246,-233,o),
(115,-286,o),
(-10,-328,c),
(40,-475,l)
);
}
);
width = 592;
},
{
anchors = (
{
name = bottom;
pos = (281,-443);
},
{
name = top;
pos = (274,593);
}
);
layerId = "106916A4-8C74-485A-AD82-F5ABB18EF495";
shapes = (
{
closed = 1;
nodes = (
(154,-470,o),
(261,-423,o),
(347,-357,cs),
(470,-263,o),
(534,-141,o),
(534,31,cs),
(534,132,o),
(512,243,o),
(494,314,cs),
(468,416,o),
(429,526,o),
(402,595,c),
(234,550,l),
(286,414,o),
(335,280,o),
(366,188,cs),
(392,111,o),
(404,58,o),
(404,24,cs),
(404,-25,o),
(380,-73,o),
(326,-118,cs),
(266,-168,o),
(161,-221,o),
(-20,-281,c),
(54,-498,l)
);
}
);
width = 626;
}
);
unicode = 1585;
},
{
color = 1;
glyphname = "reh-ar.fina";
kernLeft = "reh-ar";
layers = (
{
anchors = (
{
name = bottom;
pos = (272,-465);
},
{
name = top;
pos = (282,516);
}
);
guides = (
{
angle = 5;
pos = (581,507);
}
);
layerId = "8D9E6227-A940-4CC2-85D6-810E74B12C63";
shapes = (
{
closed = 1;
nodes = (
(149,-444,o),
(253,-396,o),
(328,-341,cs),
(455,-251,o),
(517,-130,o),
(509,44,c),
(485,19,l),
(523,0,o),
(563,0,o),
(617,0,c),
(617,155,l),
(559,155,o),
(529,158,o),
(510,173,cs),
(498,183,o),
(490,199,o),
(483,223,cs),
(479,238,o),
(474,257,o),
(466,288,cs),
(446,362,o),
(426,426,o),
(397,505,c),
(272,466,l),
(311,364,o),
(350,258,o),
(374,188,cs),
(398,117,o),
(416,57,o),
(416,7,cs),
(416,-52,o),
(389,-110,o),
(327,-162,cs),
(249,-231,o),
(126,-282,o),
(-10,-328,c),
(40,-475,l)
);
},
{
pos = (568,0);
ref = connection_r;
}
);
width = 617;
},
{
anchors = (
{
name = bottom;
pos = (261,-443);
},
{
name = top;
pos = (295,537);
}
);
guides = (
{
pos = (101,527);
}
);
layerId = "106916A4-8C74-485A-AD82-F5ABB18EF495";
shapes = (
{
closed = 1;
nodes = (
(154,-470,o),
(261,-423,o),
(347,-357,cs),
(473,-261,o),
(538,-134,o),
(534,47,c),
(510,20,l),
(545,7,o),
(587,0,o),
(641,0,c),
(641,235,l),
(583,235,o),
(552,240,o),
(530,259,cs),
(521,266,o),
(512,279,o),
(506,292,cs),
(493,320,o),
(490,334,o),
(471,396,cs),
(457,441,o),
(435,508,o),
(422,543,c),
(255,497,l),
(301,377,o),
(346,253,o),
(369,188,cs),
(396,110,o),
(410,59,o),
(410,23,cs),
(410,-25,o),
(385,-71,o),
(325,-119,cs),
(266,-167,o),
(167,-219,o),
(-20,-281,c),
(54,-498,l)
);
},
{
pos = (541,0);
ref = connection_r;
}
);
width = 641;
}
);
unicode = 65198;
},
{
color = 6;
glyphname = "seen-ar";
layers = (
{
anchors = (
{
name = bottom;
pos = (487,-399);
},
{
name = top;
pos = (1172,566);
}
);
layerId = "8D9E6227-A940-4CC2-85D6-810E74B12C63";
shapes = (
{
closed = 1;
nodes = (
(745,-379,o),
(889,-194,o),
(888,40,c),
(863,18,l),
(894,4,o),
(935,-3,o),
(982,-3,cs),
(1079,-3,o),
(1154,10,o),
(1217,66,c),
(1184,61,l),
(1225,9,o),
(1341,-4,o),
(1398,-4,cs),
(1547,-4,o),
(1639,60,o),
(1639,220,cs),
(1639,345,o),
(1590,480,o),
(1516,592,c),
(1414,524,l),
(1489,401,o),
(1528,309,o),
(1543,250,cs),
(1546,236,o),
(1548,224,o),
(1548,213,cs),
(1548,191,o),
(1540,177,o),
(1521,168,cs),
(1500,158,o),
(1465,152,o),
(1406,152,cs),
(1261,152,o),
(1249,186,o),
(1248,276,cs),
(1246,486,l),
(1143,486,l),
(1142,253,ls),
(1142,182,o),
(1121,151,o),
(982,151,cs),
(904,151,o),
(882,168,o),
(876,215,cs),
(841,495,l),
(719,486,l),
(732,402,o),
(746,318,o),
(759,234,cs),
(775,132,o),
(787,41,o),
(787,-21,cs),
(787,-70,o),
(782,-93,o),
(752,-125,cs),
(704,-172,o),
(608,-209,o),
(470,-209,cs),
(279,-209,o),
(191,-108,o),
(191,51,cs),
(191,121,o),
(208,203,o),
(241,292,c),
(157,323,l),
(113,208,o),
(90,98,o),
(90,0,cs),
(90,-221,o),
(209,-379,o),
(467,-379,cs)
);
}
);
width = 1724;
},
{
anchors = (
{
name = bottom;
pos = (502,-408);
},
{
name = top;
pos = (1227,669);
}
);
layerId = "106916A4-8C74-485A-AD82-F5ABB18EF495";
shapes = (
{
closed = 1;
nodes = (
(763,-378,o),
(929,-213,o),
(942,42,c),
(920,18,l),
(952,1,o),
(999,-11,o),
(1069,-11,cs),
(1174,-11,o),
(1239,9,o),
(1299,54,c),
(1252,52,l),
(1324,9,o),
(1400,-6,o),
(1503,-6,cs),
(1706,-6,o),
(1785,111,o),
(1785,261,cs),
(1785,406,o),
(1724,565,o),
(1651,668,c),
(1508,573,l),
(1559,495,o),
(1601,415,o),
(1627,356,cs),
(1645,317,o),
(1656,290,o),
(1656,271,cs),
(1656,251,o),
(1643,240,o),
(1614,234,cs),
(1586,228,o),
(1545,225,o),
(1489,225,cs),
(1369,225,o),
(1342,243,o),
(1341,302,cs),
(1338,559,l),
(1187,559,l),
(1186,303,ls),
(1186,235,o),
(1165,224,o),
(1060,224,cs),
(959,224,o),
(935,230,o),
(928,283,cs),
(891,575,l),
(728,565,l),
(743,466,o),
(759,367,o),
(774,268,cs),
(787,183,o),
(800,86,o),
(800,49,cs),
(800,-3,o),
(793,-42,o),
(753,-69,cs),
(705,-103,o),
(617,-128,o),
(515,-128,cs),
(328,-128,o),
(242,-36,o),
(242,112,cs),
(242,179,o),
(260,258,o),
(295,345,c),
(174,383,l),
(125,262,o),
(101,144,o),
(101,38,cs),
(101,-202,o),
(230,-378,o),
(502,-378,cs)
);
}
);
width = 1880;
}
);
unicode = 1587;
},
{
color = 6;
glyphname = "seen-ar.fina";
layers = (
{
anchors = (
{
name = bottom;
pos = (487,-399);
},
{
name = top;
pos = (1182,566);
}
);
layerId = "8D9E6227-A940-4CC2-85D6-810E74B12C63";
shapes = (
{
closed = 1;
nodes = (
(750,-379,o),
(894,-192,o),
(889,43,c),
(867,21,l),
(898,6,o),
(940,-5,o),
(996,-5,cs),
(1108,-5,o),
(1178,20,o),
(1223,63,c),
(1183,66,l),
(1241,16,o),
(1313,-4,o),
(1400,-4,cs),
(1486,-4,o),
(1570,24,o),
(1605,57,c),
(1571,58,l),
(1611,23,o),
(1672,0,o),
(1763,0,c),
(1763,155,l),
(1724,155,ls),
(1672,155,o),
(1655,180,o),
(1643,229,cs),
(1573,526,l),
(1468,503,l),
(1523,253,ls),
(1528,233,o),
(1531,216,o),
(1531,202,cs),
(1531,159,o),
(1491,152,o),
(1427,152,cs),
(1296,152,o),
(1261,172,o),
(1260,262,cs),
(1258,486,l),
(1155,486,l),
(1154,253,ls),
(1154,180,o),
(1128,151,o),
(996,151,cs),
(900,151,o),
(883,169,o),
(876,229,cs),
(843,495,l),
(721,486,l),
(761,234,ls),
(777,131,o),
(789,41,o),
(789,-21,cs),
(789,-64,o),
(785,-88,o),
(762,-116,cs),
(719,-167,o),
(619,-209,o),
(472,-209,cs),
(279,-209,o),
(193,-106,o),
(193,51,cs),
(193,122,o),
(210,204,o),
(243,292,c),
(159,323,l),
(114,208,o),
(91,98,o),
(91,1,cs),
(91,-222,o),
(211,-379,o),
(469,-379,cs)
);
},
{
pos = (1714,0);
ref = connection_r;
}
);
width = 1763;
},
{
anchors = (
{
name = bottom;
pos = (502,-408);
},
{
name = top;
pos = (1244,670);
}
);
layerId = "106916A4-8C74-485A-AD82-F5ABB18EF495";
shapes = (
{
closed = 1;
nodes = (
(757,-378,o),
(927,-220,o),
(942,41,c),
(920,16,l),
(952,0,o),
(1000,-13,o),
(1071,-14,cs),
(1179,-14,o),
(1252,5,o),
(1308,53,c),
(1265,53,l),
(1326,6,o),
(1400,-11,o),
(1492,-11,cs),
(1580,-11,o),
(1677,12,o),
(1732,65,c),
(1689,67,l),
(1748,13,o),
(1806,0,o),
(1895,0,c),
(1895,235,l),
(1856,235,ls),
(1806,235,o),
(1793,244,o),
(1778,309,cs),
(1708,608,l),
(1562,578,l),
(1621,312,ls),
(1625,293,o),
(1628,278,o),
(1628,266,cs),
(1628,229,o),
(1599,224,o),
(1492,224,cs),
(1397,224,o),
(1357,227,o),
(1357,304,cs),
(1354,560,l),
(1204,560,l),
(1202,302,ls),
(1202,231,o),
(1169,224,o),
(1076,224,cs),
(945,224,o),
(934,235,o),
(923,323,cs),
(891,575,l),
(728,564,l),
(771,267,ls),
(782,188,o),
(792,126,o),
(796,75,cs),
(804,-24,o),
(777,-57,o),
(735,-81,cs),
(679,-113,o),
(596,-128,o),
(515,-128,cs),
(327,-128,o),
(242,-36,o),
(242,111,cs),
(242,178,o),
(260,258,o),
(295,345,c),
(174,383,l),
(126,263,o),
(101,145,o),
(101,39,cs),
(101,-200,o),
(228,-378,o),
(502,-378,cs)
);
},
{
pos = (1795,0);
ref = connection_r;
}
);
width = 1895;
}
);
unicode = 65202;
},
{
color = 6;
glyphname = "seen-ar.medi";
layers = (
{
anchors = (
{
name = bottom;
pos = (673,-30);
},
{
name = top;
pos = (682,566);
}
);
layerId = "8D9E6227-A940-4CC2-85D6-810E74B12C63";
shapes = (
{
closed = 1;
nodes = (
(609,-5,o),
(678,20,o),
(724,63,c),
(683,66,l),
(741,16,o),
(813,-4,o),
(900,-4,cs),
(987,-4,o),
(1071,24,o),
(1106,57,c),
(1071,58,l),
(1112,23,o),
(1172,0,o),
(1263,0,c),
(1263,155,l),
(1219,155,ls),
(1161,155,o),
(1152,189,o),
(1135,262,cs),
(1073,526,l),
(968,503,l),
(1023,253,ls),
(1028,232,o),
(1031,216,o),
(1031,202,cs),
(1031,179,o),
(1021,165,o),
(994,158,cs),
(976,154,o),
(953,152,o),
(920,152,cs),
(793,152,o),
(761,176,o),
(760,262,cs),
(758,486,l),
(655,486,l),
(654,246,ls),
(654,180,o),
(622,151,o),
(496,151,cs),
(455,151,o),
(374,152,o),
(327,163,c),
(339,134,l),
(356,171,o),
(367,215,o),
(375,264,cs),
(417,506,l),
(312,528,l),
(266,288,ls),
(248,192,o),
(228,155,o),
(143,155,cs),
(0,155,l),
(0,0,l),
(88,0,ls),
(199,0,o),
(243,8,o),
(294,26,c),
(252,26,l),
(319,8,o),
(412,-5,o),
(499,-5,cs)
);
},
{
pos = (1214,0);
ref = connection_r;
},
{
ref = connection_l;
}
);
width = 1263;
},
{
anchors = (
{
name = bottom;
pos = (767,-60);
},
{
name = top;
pos = (742,670);
}
);
layerId = "106916A4-8C74-485A-AD82-F5ABB18EF495";
shapes = (
{
closed = 1;
nodes = (
(677,-14,o),
(750,5,o),
(806,53,c),
(763,53,l),
(824,6,o),
(898,-11,o),
(990,-11,cs),
(1088,-11,o),
(1176,15,o),
(1230,65,c),
(1187,67,l),
(1245,15,o),
(1297,-1,o),
(1393,0,c),
(1393,235,l),
(1364,235,ls),
(1302,235,o),
(1292,244,o),
(1276,311,cs),
(1206,610,l),
(1060,578,l),
(1121,304,ls),
(1126,283,o),
(1128,269,o),
(1128,258,cs),
(1128,238,o),
(1119,232,o),
(1096,229,cs),
(1078,227,o),
(1048,224,o),
(990,224,cs),
(883,224,o),
(856,235,o),
(855,304,cs),
(852,560,l),
(702,560,l),
(700,309,ls),
(700,236,o),
(681,224,o),
(574,224,cs),
(516,224,o),
(438,228,o),
(364,236,c),
(398,209,l),
(407,236,o),
(412,263,o),
(417,296,cs),
(463,572,l),
(315,599,l),
(266,340,ls),
(249,248,o),
(241,235,o),
(163,235,cs),
(0,235,l),
(0,0,l),
(91,0,ls),
(223,0,o),
(255,6,o),
(316,27,c),
(269,29,l),
(362,1,o),
(469,-14,o),
(569,-14,cs)
);
},
{
pos = (1293,0);
ref = connection_r;
},
{
ref = connection_l;
}
);
width = 1393;
}
);
unicode = 65204;
},
{
color = 6;
glyphname = "seen-ar.init";
kernLeft = seen;
layers = (
{
anchors = (
{
name = bottom;
pos = (704,-30);
},
{
name = top;
pos = (682,566);
}
);
layerId = "8D9E6227-A940-4CC2-85D6-810E74B12C63";
shapes = (
{
closed = 1;
nodes = (
(606,-3,o),
(681,12,o),
(739,66,c),
(706,61,l),
(749,7,o),
(864,-4,o),
(920,-4,cs),
(1045,-4,o),
(1161,40,o),
(1161,220,cs),
(1161,345,o),
(1112,480,o),
(1038,592,c),
(936,524,l),
(1006,410,o),
(1045,321,o),
(1062,262,cs),
(1067,243,o),
(1070,226,o),
(1070,213,cs),
(1070,193,o),
(1064,180,o),
(1047,170,cs),
(1027,159,o),
(991,152,o),
(928,152,cs),
(791,152,o),
(771,186,o),
(770,262,cs),
(768,486,l),
(665,486,l),
(664,253,ls),
(664,182,o),
(644,151,o),
(495,151,cs),
(441,151,o),
(378,155,o),
(338,163,c),
(350,136,l),
(365,171,o),
(377,212,o),
(386,267,cs),
(427,506,l),
(322,528,l),
(276,288,ls),
(257,187,o),
(245,155,o),
(153,155,cs),
(0,155,l),
(0,0,l),
(128,0,ls),
(216,0,o),
(275,9,o),
(317,55,c),
(155,49,l),
(263,13,o),
(389,-3,o),
(504,-3,cs)
);
},
{
ref = connection_l;
}
);
width = 1246;
},
{
anchors = (
{
name = bottom;
pos = (787,-60);
},
{
name = top;
pos = (744,670);
}
);
layerId = "106916A4-8C74-485A-AD82-F5ABB18EF495";
shapes = (
{
closed = 1;
nodes = (
(682,-11,o),
(754,7,o),
(815,54,c),
(768,52,l),
(843,9,o),
(916,-6,o),
(1023,-6,cs),
(1198,-6,o),
(1301,88,o),
(1301,261,cs),
(1301,402,o),
(1240,565,o),
(1167,668,c),
(1024,573,l),
(1088,476,o),
(1135,378,o),
(1159,320,cs),
(1167,299,o),
(1172,282,o),
(1172,269,cs),
(1172,256,o),
(1167,247,o),
(1156,242,cs),
(1132,231,o),
(1088,225,o),
(1017,225,cs),
(891,225,o),
(858,236,o),
(857,302,cs),
(854,560,l),
(704,560,l),
(702,304,ls),
(702,235,o),
(679,224,o),
(577,224,cs),
(498,224,o),
(436,228,o),
(383,235,c),
(399,206,l),
(407,230,o),
(413,260,o),
(419,296,cs),
(465,572,l),
(317,599,l),
(268,339,ls),
(251,250,o),
(228,235,o),
(163,235,cs),
(0,235,l),
(0,0,l),
(80,0,ls),
(212,0,o),
(258,6,o),
(311,29,c),
(267,30,l),
(362,1,o),
(454,-11,o),
(577,-11,cs)
);
},
{
ref = connection_l;
}
);
width = 1396;
}
);
unicode = 65203;
},
{
color = 1;
glyphname = "sad-ar";
layers = (
{
anchors = (
{
name = bottom;
pos = (487,-399);
},
{
name = top;
pos = (1326,640);
}
);
layerId = "8D9E6227-A940-4CC2-85D6-810E74B12C63";
shapes = (
{
closed = 1;
nodes = (
(766,-378,o),
(939,-221,o),
(932,38,c),
(900,8,l),
(1032,-6,o),
(1155,-12,o),
(1266,-12,cs),
(1450,-12,o),
(1593,4,o),
(1679,22,cs),
(1748,38,o),
(1775,52,o),
(1796,99,cs),
(1812,135,o),
(1823,186,o),
(1823,241,cs),
(1823,470,o),
(1664,610,o),
(1496,610,cs),
(1273,610,o),
(1051,412,o),
(881,193,c),
(907,200,l),
(889,271,o),
(873,328,o),
(817,492,c),
(691,481,l),
(747,326,o),
(810,142,o),
(828,49,cs),
(834,22,o),
(838,-1,o),
(838,-22,cs),
(838,-53,o),
(829,-80,o),
(804,-107,cs),
(746,-171,o),
(619,-208,o),
(513,-208,cs),
(296,-208,o),
(194,-109,o),
(194,56,cs),
(194,120,o),
(209,194,o),
(239,276,c),
(154,304,l),
(112,195,o),
(90,91,o),
(90,-1,cs),
(90,-223,o),
(215,-378,o),
(480,-378,cs)
);
},
{
closed = 1;
nodes = (
(1094,300,o),
(1259,446,o),
(1444,446,cs),
(1627,446,o),
(1731,324,o),
(1731,232,cs),
(1731,209,o),
(1724,190,o),
(1679,178,cs),
(1581,152,o),
(1447,141,o),
(1283,141,cs),
(1179,141,o),
(1064,145,o),
(941,151,c),
(947,123,l)
);
}
);
width = 1903;
},
{
anchors = (
{
name = bottom;
pos = (513,-418);
},
{
name = top;
pos = (1389,710);
}
);
layerId = "106916A4-8C74-485A-AD82-F5ABB18EF495";
shapes = (
{
closed = 1;
nodes = (
(779,-388,o),
(956,-222,o),
(974,37,c),
(935,8,l),
(1079,-11,o),
(1215,-12,o),
(1300,-12,cs),
(1431,-12,o),
(1603,-3,o),
(1713,25,cs),
(1771,40,o),
(1810,60,o),
(1835,115,cs),
(1857,161,o),
(1867,222,o),
(1867,270,cs),
(1867,502,o),
(1717,670,o),
(1519,670,cs),
(1337,670,o),
(1123,527,o),
(917,270,c),
(948,277,l),
(927,360,o),
(894,454,o),
(851,572,c),
(673,560,l),
(730,409,o),
(791,254,o),
(821,148,cs),
(831,111,o),
(838,80,o),
(838,54,cs),
(838,23,o),
(826,-6,o),
(806,-30,cs),
(750,-98,o),
(631,-138,o),
(523,-138,cs),
(334,-138,o),
(249,-47,o),
(249,98,cs),
(249,166,o),
(267,245,o),
(302,332,c),
(174,373,l),
(125,253,o),
(100,136,o),
(100,32,cs),
(100,-210,o),
(233,-388,o),
(513,-388,cs)
);
},
{
closed = 1;
nodes = (
(1187,360,o),
(1335,446,o),
(1485,446,cs),
(1597,446,o),
(1733,376,o),
(1733,284,cs),
(1733,265,o),
(1715,249,o),
(1671,240,cs),
(1602,225,o),
(1475,221,o),
(1317,221,cs),
(1230,221,o),
(1136,225,o),
(1035,228,c),
(1042,200,l)
);
}
);
width = 1957;
}
);
unicode = 1589;
},
{
color = 1;
glyphname = "sad-ar.fina";
layers = (
{
anchors = (
{
name = bottom;
pos = (487,-399);
},
{
name = top;
pos = (1326,640);
}
);
layerId = "8D9E6227-A940-4CC2-85D6-810E74B12C63";
shapes = (
{
closed = 1;
nodes = (
(1953,155,l),
(1755,155,l),
(1387,25,l),
(1652,2,o),
(1883,0,o),
(1953,0,c)
);
},
{
ref = "sad-ar";
},
{
pos = (1904,0);
ref = connection_r;
}
);
width = 1953;
},
{
anchors = (
{
name = bottom;
pos = (513,-418);
},
{
name = top;
pos = (1389,710);
}
);
layerId = "106916A4-8C74-485A-AD82-F5ABB18EF495";
shapes = (
{
closed = 1;
nodes = (
(1983,235,l),
(1788,235,l),
(1244,43,l),
(1589,2,o),
(1902,0,o),
(1983,0,c)
);
},
{
ref = "sad-ar";
},
{
pos = (1883,0);
ref = connection_r;
}
);
width = 1983;
}
);
unicode = 65210;
},
{
color = 1;
glyphname = "sad-ar.medi";
layers = (
{
anchors = (
{
name = bottom;
pos = (682,-42);
},
{
name = top;
pos = (818,620);
}
);
layerId = "8D9E6227-A940-4CC2-85D6-810E74B12C63";
shapes = (
{
closed = 1;
nodes = (
(1442,155,l),
(1244,155,l),
(875,25,l),
(1141,2,o),
(1372,0,o),
(1442,0,c)
);
},
{
ref = "sad-ar.init";
},
{
pos = (1393,0);
ref = connection_r;
}
);
width = 1442;
},
{
anchors = (
{
name = bottom;
pos = (686,-45);
},
{
name = top;
pos = (789,710);
}
);
layerId = "106916A4-8C74-485A-AD82-F5ABB18EF495";
shapes = (
{
closed = 1;
nodes = (
(1440,235,l),
(1247,235,l),
(701,43,l),
(1049,2,o),
(1361,0,o),
(1440,0,c)
);
},
{
ref = "sad-ar.init";
},
{
pos = (1340,0);
ref = connection_r;
}
);
width = 1440;
}
);
unicode = 65212;
},
{
color = 1;
glyphname = "sad-ar.init";
kernLeft = sad;
layers = (
{
anchors = (
{
name = bottom;
pos = (682,-42);
},
{
name = top;
pos = (818,620);
}
);
layerId = "8D9E6227-A940-4CC2-85D6-810E74B12C63";
shapes = (
{
closed = 1;
nodes = (
(948,-12,o),
(1091,6,o),
(1174,25,cs),
(1235,38,o),
(1254,47,o),
(1276,87,cs),
(1296,123,o),
(1310,178,o),
(1310,230,cs),
(1310,482,o),
(1146,610,o),
(978,610,cs),
(790,610,o),
(569,452,o),
(384,214,c),
(422,197,l),
(294,542,l),
(167,532,l),
(298,217,ls),
(320,163,o),
(309,155,o),
(270,155,cs),
(0,155,l),
(0,0,l),
(432,0,ls),
(508,0,o),
(682,-12,o),
(753,-12,cs)
);
},
{
closed = 1;
nodes = (
(609,342,o),
(783,446,o),
(927,446,cs),
(1098,446,o),
(1218,342,o),
(1218,226,cs),
(1218,209,o),
(1211,191,o),
(1166,178,cs),
(1075,152,o),
(933,141,o),
(770,141,cs),
(665,141,o),
(549,146,o),
(423,151,c),
(429,117,l)
);
},
{
ref = connection_l;
}
);
width = 1390;
},
{
anchors = (
{
name = bottom;
pos = (686,-45);
},
{
name = top;
pos = (789,710);
}
);
layerId = "106916A4-8C74-485A-AD82-F5ABB18EF495";
shapes = (
{
closed = 1;
nodes = (
(882,-12,o),
(1049,-4,o),
(1160,23,cs),
(1226,39,o),
(1262,60,o),
(1291,122,cs),
(1310,168,o),
(1320,224,o),
(1320,270,cs),
(1320,502,o),
(1170,670,o),
(972,670,cs),
(795,670,o),
(588,536,o),
(391,295,c),
(426,295,l),
(304,622,l),
(145,609,l),
(276,301,ls),
(299,246,o),
(289,235,o),
(235,235,cs),
(0,235,l),
(0,0,l),
(396,0,ls),
(526,0,o),
(682,-12,o),
(753,-12,cs)
);
},
{
closed = 1;
nodes = (
(640,360,o),
(788,446,o),
(938,446,cs),
(1050,446,o),
(1186,376,o),
(1186,284,cs),
(1186,265,o),
(1171,250,o),
(1121,240,cs),
(1052,225,o),
(927,221,o),
(770,221,cs),
(683,221,o),
(589,225,o),
(488,228,c),
(495,200,l)
);
},
{
ref = connection_l;
}
);
width = 1410;
}
);
unicode = 65211;
},
{
color = 1;
glyphname = "tah-ar";
layers = (
{
anchors = (
{
name = bottom;
pos = (795,-47);
},
{
name = top;
pos = (852,610);
}
);
layerId = "8D9E6227-A940-4CC2-85D6-810E74B12C63";
shapes = (
{
closed = 1;
nodes = (
(961,-11,o),
(1118,6,o),
(1205,25,cs),
(1261,37,o),
(1283,49,o),
(1304,85,cs),
(1324,120,o),
(1338,169,o),
(1338,230,cs),
(1338,462,o),
(1200,610,o),
(995,610,cs),
(815,610,o),
(608,440,o),
(460,273,c),
(478,272,l),
(486,321,o),
(482,400,o),
(475,462,cs),
(410,1048,l),
(281,1038,l),
(374,355,ls),
(389,244,o),
(388,168,o),
(296,124,c),
(368,147,l),
(289,150,o),
(176,157,o),
(97,163,c),
(80,27,l),
(215,4,o),
(534,-11,o),
(813,-11,cs)
);
},
{
closed = 1;
nodes = (
(584,274,o),
(762,446,o),
(956,446,cs),
(1109,446,o),
(1246,344,o),
(1246,230,cs),
(1246,209,o),
(1239,189,o),
(1192,177,cs),
(1102,154,o),
(963,141,o),
(799,141,cs),
(647,141,o),
(554,140,o),
(456,145,c),
(461,120,l)
);
}
);
width = 1428;
},
{
anchors = (
{
name = bottom;
pos = (756,-45);
},
{
name = top;
pos = (879,690);
}
);
layerId = "106916A4-8C74-485A-AD82-F5ABB18EF495";
shapes = (
{
closed = 1;
nodes = (
(977,-12,o),
(1130,-1,o),
(1229,28,cs),
(1281,43,o),
(1311,64,o),
(1332,103,cs),
(1355,145,o),
(1371,206,o),
(1371,270,cs),
(1371,502,o),
(1223,670,o),
(1019,670,cs),
(861,670,o),
(672,555,o),
(490,351,c),
(506,323,l),
(518,400,o),
(513,448,o),
(498,587,cs),
(445,1088,l),
(286,1077,l),
(380,384,ls),
(390,310,o),
(392,249,o),
(311,199,c),
(384,229,l),
(306,231,o),
(195,238,o),
(117,243,c),
(90,30,l),
(354,-4,o),
(545,-12,o),
(804,-12,cs)
);
},
{
closed = 1;
nodes = (
(690,359,o),
(839,446,o),
(989,446,cs),
(1097,446,o),
(1237,377,o),
(1237,286,cs),
(1237,264,o),
(1222,253,o),
(1185,243,cs),
(1115,224,o),
(942,221,o),
(821,221,cs),
(749,221,o),
(672,224,o),
(539,228,c),
(546,200,l)
);
}
);
width = 1472;
}
);
unicode = 1591;
},
{
color = 1;
glyphname = "tah-ar.fina";
layers = (
{
anchors = (
{
name = bottom;
pos = (795,-47);
},
{
name = top;
pos = (852,610);
}
);
layerId = "8D9E6227-A940-4CC2-85D6-810E74B12C63";
shapes = (
{
closed = 1;
nodes = (
(1418,155,l),
(1220,155,l),
(852,25,l),
(1117,2,o),
(1348,0,o),
(1418,0,c)
);
},
{
ref = "tah-ar";
},
{
pos = (1369,0);
ref = connection_r;
}
);
width = 1418;
},
{
anchors = (
{
name = bottom;
pos = (756,-45);
},
{
name = top;
pos = (879,690);
}
);
layerId = "106916A4-8C74-485A-AD82-F5ABB18EF495";
shapes = (
{
closed = 1;
nodes = (
(1498,235,l),
(1303,235,l),
(759,43,l),
(1104,2,o),
(1417,0,o),
(1498,0,c)
);
},
{
ref = "tah-ar";
},
{
pos = (1398,0);
ref = connection_r;
}
);
width = 1498;
}
);
unicode = 65218;
},
{
color = 1;
glyphname = "tah-ar.medi";
layers = (
{
anchors = (
{
name = bottom;
pos = (674,-45);
},
{
name = top;
pos = (699,610);
}
);
layerId = "8D9E6227-A940-4CC2-85D6-810E74B12C63";
shapes = (
{
closed = 1;
nodes = (
(1328,155,l),
(1130,155,l),
(762,25,l),
(1027,2,o),
(1258,0,o),
(1328,0,c)
);
},
{
ref = "tah-ar.init";
},
{
pos = (1279,0);
ref = connection_r;
}
);
width = 1328;
},
{
anchors = (
{
name = bottom;
pos = (606,-45);
},
{
name = top;
pos = (729,690);
}
);
layerId = "106916A4-8C74-485A-AD82-F5ABB18EF495";
shapes = (
{
closed = 1;
nodes = (
(1378,235,l),
(1183,235,l),
(639,43,l),
(984,2,o),
(1297,0,o),
(1378,0,c)
);
},
{
ref = "tah-ar.init";
},
{
pos = (1278,0);
ref = connection_r;
}
);
width = 1378;
}
);
unicode = 65220;
},
{
color = 1;
glyphname = "tah-ar.init";
kernLeft = tah;
layers = (
{
anchors = (
{
name = bottom;
pos = (674,-45);
},
{
name = top;
pos = (699,610);
}
);
layerId = "8D9E6227-A940-4CC2-85D6-810E74B12C63";
shapes = (
{
closed = 1;
nodes = (
(825,-11,o),
(982,6,o),
(1069,25,cs),
(1125,39,o),
(1147,49,o),
(1168,85,cs),
(1188,120,o),
(1202,169,o),
(1202,230,cs),
(1202,462,o),
(1064,610,o),
(859,610,cs),
(679,610,o),
(472,440,o),
(324,273,c),
(342,272,l),
(350,321,o),
(346,400,o),
(339,462,cs),
(274,1048,l),
(145,1038,l),
(238,355,ls),
(254,244,o),
(252,168,o),
(160,124,c),
(237,155,l),
(0,155,l),
(0,0,l),
(252,0,ls),
(390,0,o),
(569,-11,o),
(677,-11,cs)
);
},
{
closed = 1;
nodes = (
(448,274,o),
(626,446,o),
(820,446,cs),
(973,446,o),
(1110,344,o),
(1110,230,cs),
(1110,209,o),
(1103,189,o),
(1056,177,cs),
(966,153,o),
(827,141,o),
(663,141,cs),
(511,141,o),
(418,140,o),
(320,145,c),
(325,120,l)
);
},
{
ref = connection_l;
}
);
width = 1292;
},
{
anchors = (
{
name = bottom;
pos = (606,-45);
},
{
name = top;
pos = (729,690);
}
);
layerId = "106916A4-8C74-485A-AD82-F5ABB18EF495";
shapes = (
{
closed = 1;
nodes = (
(827,-12,o),
(980,0,o),
(1079,28,cs),
(1131,43,o),
(1161,64,o),
(1182,103,cs),
(1205,145,o),
(1221,206,o),
(1221,270,cs),
(1221,502,o),
(1073,670,o),
(869,670,cs),
(711,670,o),
(522,555,o),
(340,351,c),
(356,323,l),
(368,400,o),
(363,448,o),
(348,587,cs),
(295,1088,l),
(136,1077,l),
(230,384,ls),
(240,310,o),
(242,249,o),
(161,199,c),
(234,235,l),
(0,235,l),
(0,0,l),
(283,0,ls),
(395,0,o),
(577,-12,o),
(654,-12,cs)
);
},
{
closed = 1;
nodes = (
(540,359,o),
(689,446,o),
(839,446,cs),
(947,446,o),
(1087,377,o),
(1087,286,cs),
(1087,264,o),
(1072,253,o),
(1035,243,cs),
(965,223,o),
(792,221,o),
(671,221,cs),
(599,221,o),
(522,224,o),
(389,228,c),
(396,200,l)
);
},
{
ref = connection_l;
}
);
width = 1321;
}
);
unicode = 65219;
},
{
color = 1;
glyphname = "ain-ar";
layers = (
{
anchors = (
{
name = bottom;
pos = (592,-730);
},
{
name = top;
pos = (436,774);
}
);
layerId = "8D9E6227-A940-4CC2-85D6-810E74B12C63";
shapes = (
{
closed = 1;
nodes = (
(789,-700,o),
(884,-691,o),
(980,-673,c),
(1011,-512,l),
(914,-533,o),
(816,-543,o),
(723,-543,cs),
(427,-543,o),
(185,-439,o),
(185,-246,cs),
(185,-83,o),
(331,19,o),
(505,98,cs),
(605,143,o),
(724,183,o),
(843,224,c),
(856,375,l),
(850,379,l),
(752,345,o),
(649,304,o),
(527,256,cs),
(505,247,o),
(486,242,o),
(468,242,cs),
(446,242,o),
(425,249,o),
(398,262,cs),
(311,306,o),
(221,397,o),
(221,469,cs),
(221,556,o),
(323,596,o),
(451,596,cs),
(525,596,o),
(607,583,o),
(684,558,c),
(710,677,l),
(617,724,o),
(534,745,o),
(451,745,cs),
(265,745,o),
(120,622,o),
(120,406,cs),
(120,278,o),
(188,189,o),
(332,103,c),
(375,198,l),
(204,95,o),
(85,-56,o),
(85,-263,cs),
(85,-564,o),
(354,-700,o),
(699,-700,cs)
);
}
);
width = 1041;
},
{
anchors = (
{
name = bottom;
pos = (653,-757);
},
{
name = top;
pos = (420,811);
}
);
layerId = "106916A4-8C74-485A-AD82-F5ABB18EF495";
shapes = (
{
closed = 1;
nodes = (
(814,-730,o),
(907,-721,o),
(1003,-704,c),
(1051,-460,l),
(944,-480,o),
(832,-489,o),
(721,-489,cs),
(468,-489,o),
(228,-419,o),
(228,-232,cs),
(228,-101,o),
(396,4,o),
(597,87,cs),
(691,125,o),
(792,159,o),
(887,188,c),
(916,423,l),
(906,430,l),
(762,382,o),
(617,321,o),
(573,305,cs),
(556,299,o),
(506,284,o),
(490,284,cs),
(455,284,o),
(420,298,o),
(377,322,cs),
(307,364,o),
(262,413,o),
(262,463,cs),
(262,530,o),
(348,566,o),
(457,566,cs),
(537,566,o),
(627,551,o),
(705,529,c),
(743,700,l),
(648,754,o),
(559,781,o),
(470,781,cs),
(268,781,o),
(130,630,o),
(130,410,cs),
(130,286,o),
(188,183,o),
(286,110,c),
(283,153,l),
(161,43,o),
(95,-102,o),
(95,-263,cs),
(95,-560,o),
(326,-730,o),
(723,-730,cs)
);
}
);
width = 1089;
}
);
unicode = 1593;
},
{
color = 1;
glyphname = "ain-ar.fina";
layers = (
{
anchors = (
{
name = bottom;
pos = (638,-759);
},
{
name = top;
pos = (533,652);
}
);
layerId = "8D9E6227-A940-4CC2-85D6-810E74B12C63";
shapes = (
{
closed = 1;
nodes = (
(852,-718,o),
(950,-708,o),
(1033,-691,c),
(1064,-530,l),
(975,-550,o),
(872,-561,o),
(769,-561,cs),
(477,-561,o),
(181,-471,o),
(181,-235,cs),
(181,-70,o),
(378,69,o),
(577,146,c),
(437,227,l),
(228,122,o),
(80,-41,o),
(80,-249,cs),
(80,-612,o),
(432,-718,o),
(751,-718,cs)
);
},
{
closed = 1;
nodes = (
(565,120,l),
(779,27,o),
(883,0,o),
(1059,0,cs),
(1118,0,l),
(1118,155,l),
(1058,155,ls),
(926,155,o),
(833,167,o),
(691,207,c),
(705,194,l),
(798,250,o),
(895,313,o),
(972,391,c),
(992,529,l),
(865,573,o),
(711,596,o),
(562,596,cs),
(425,596,o),
(292,576,o),
(190,535,c),
(174,382,l),
(278,292,o),
(373,232,o),
(446,187,c)
);
},
{
closed = 1;
nodes = (
(844,426,l),
(750,350,o),
(643,296,o),
(554,247,c),
(597,255,l),
(529,288,o),
(392,365,o),
(301,419,c),
(304,437,l),
(395,454,o),
(490,460,o),
(582,460,cs),
(677,460,o),
(769,452,o),
(844,440,c)
);
},
{
pos = (1069,0);
ref = connection_r;
}
);
width = 1118;
},
{
anchors = (
{
name = bottom;
pos = (718,-760);
},
{
name = top;
pos = (512,758);
}
);
layerId = "106916A4-8C74-485A-AD82-F5ABB18EF495";
shapes = (
{
closed = 1;
nodes = (
(816,-730,o),
(915,-721,o),
(1018,-704,c),
(1065,-461,l),
(967,-478,o),
(852,-489,o),
(739,-489,cs),
(477,-489,o),
(223,-409,o),
(223,-220,cs),
(223,-67,o),
(387,43,o),
(619,154,c),
(415,274,l),
(203,153,o),
(90,-28,o),
(90,-244,cs),
(90,-554,o),
(321,-730,o),
(718,-730,cs)
);
},
{
closed = 1;
nodes = (
(571,135,l),
(703,54,o),
(895,0,o),
(1082,0,cs),
(1147,0,l),
(1147,235,l),
(1072,235,ls),
(967,235,o),
(866,239,o),
(766,258,c),
(765,219,l),
(864,282,o),
(951,345,o),
(1044,438,c),
(1061,630,l),
(920,685,o),
(753,715,o),
(589,715,cs),
(433,715,o),
(280,688,o),
(154,630,c),
(141,438,l),
(244,347,o),
(331,286,o),
(422,235,c)
);
},
{
closed = 1;
nodes = (
(859,484,l),
(770,424,o),
(663,364,o),
(571,322,c),
(620,332,l),
(534,373,o),
(409,434,o),
(330,483,c),
(332,496,l),
(389,518,o),
(477,531,o),
(578,531,cs),
(670,531,o),
(782,520,o),
(861,496,c)
);
},
{
pos = (1047,0);
ref = connection_r;
}
);
width = 1147;
}
);
unicode = 65226;
},
{
color = 1;
glyphname = "ain-ar.medi";
layers = (
{
anchors = (
{
name = bottom;
pos = (568,-20);
},
{
name = top;
pos = (523,652);
}
);
layerId = "8D9E6227-A940-4CC2-85D6-810E74B12C63";
shapes = (
{
closed = 1;
nodes = (
(123,0,ls),
(292,0,o),
(444,27,o),
(630,137,c),
(565,120,l),
(779,27,o),
(883,0,o),
(1059,0,cs),
(1118,0,l),
(1118,155,l),
(1058,155,ls),
(926,155,o),
(833,167,o),
(691,207,c),
(705,194,l),
(798,250,o),
(895,313,o),
(972,391,c),
(992,529,l),
(865,573,o),
(711,596,o),
(562,596,cs),
(425,596,o),
(292,576,o),
(190,535,c),
(174,382,l),
(278,292,o),
(373,232,o),
(446,187,c),
(495,208,l),
(365,167,o),
(225,155,o),
(75,155,cs),
(0,155,l),
(0,0,l)
);
},
{
closed = 1;
nodes = (
(844,426,l),
(750,350,o),
(643,296,o),
(554,247,c),
(597,255,l),
(529,288,o),
(392,365,o),
(301,419,c),
(304,437,l),
(395,454,o),
(490,460,o),
(582,460,cs),
(677,460,o),
(769,452,o),
(847,440,c)
);
},
{
ref = connection_l;
},
{
pos = (1069,0);
ref = connection_r;
}
);
width = 1118;
},
{
anchors = (
{
name = bottom;
pos = (596,-7);
},
{
name = top;
pos = (512,758);
}
);
layerId = "106916A4-8C74-485A-AD82-F5ABB18EF495";
shapes = (
{
closed = 1;
nodes = (
(138,0,ls),
(351,0,o),
(507,55,o),
(664,159,c),
(562,135,l),
(694,54,o),
(886,0,o),
(1073,0,cs),
(1138,0,l),
(1138,235,l),
(1063,235,ls),
(958,235,o),
(857,239,o),
(757,258,c),
(756,219,l),
(855,282,o),
(942,345,o),
(1035,438,c),
(1052,630,l),
(911,685,o),
(744,715,o),
(580,715,cs),
(424,715,o),
(271,688,o),
(145,630,c),
(132,438,l),
(235,347,o),
(322,286,o),
(413,235,c),
(459,267,l),
(331,242,o),
(208,235,o),
(79,235,cs),
(0,235,l),
(0,0,l)
);
},
{
closed = 1;
nodes = (
(850,484,l),
(761,424,o),
(654,364,o),
(562,322,c),
(611,332,l),
(525,373,o),
(400,434,o),
(321,483,c),
(323,496,l),
(380,518,o),
(468,531,o),
(569,531,cs),
(661,531,o),
(773,520,o),
(852,496,c)
);
},
{
ref = connection_l;
},
{
pos = (1038,0);
ref = connection_r;
}
);
width = 1138;
}
);
unicode = 65228;
},
{
color = 1;
glyphname = "ain-ar.init";
layers = (
{
anchors = (
{
name = bottom;
pos = (494,-20);
},
{
name = top;
pos = (425,746);
}
);
layerId = "8D9E6227-A940-4CC2-85D6-810E74B12C63";
shapes = (
{
closed = 1;
nodes = (
(137,0,ls),
(218,0,o),
(296,11,o),
(373,28,cs),
(494,55,o),
(738,139,o),
(864,191,c),
(877,337,l),
(868,340,l),
(792,309,o),
(719,283,o),
(637,257,cs),
(602,246,o),
(575,238,o),
(544,238,cs),
(514,238,o),
(475,248,o),
(443,261,cs),
(362,295,o),
(275,363,o),
(275,440,cs),
(275,523,o),
(375,566,o),
(501,566,cs),
(576,566,o),
(659,552,o),
(738,528,c),
(764,647,l),
(677,691,o),
(594,715,o),
(508,715,cs),
(305,715,o),
(174,583,o),
(174,370,cs),
(174,277,o),
(237,188,o),
(350,128,c),
(405,186,l),
(299,154,o),
(232,155,o),
(176,155,cs),
(0,155,l),
(0,0,l)
);
},
{
ref = connection_l;
}
);
width = 957;
},
{
anchors = (
{
name = bottom;
pos = (567,-7);
},
{
name = top;
pos = (412,810);
}
);
layerId = "106916A4-8C74-485A-AD82-F5ABB18EF495";
shapes = (
{
closed = 1;
nodes = (
(147,0,ls),
(248,0,o),
(344,17,o),
(442,43,cs),
(572,78,o),
(750,145,o),
(897,200,c),
(927,429,l),
(917,433,l),
(837,401,o),
(753,371,o),
(665,342,cs),
(614,325,o),
(586,315,o),
(553,315,cs),
(522,315,o),
(483,325,o),
(452,337,cs),
(374,367,o),
(306,421,o),
(306,482,cs),
(306,551,o),
(393,586,o),
(500,586,cs),
(582,586,o),
(674,570,o),
(748,548,c),
(787,720,l),
(679,779,o),
(602,801,o),
(512,801,cs),
(307,801,o),
(174,645,o),
(174,430,cs),
(174,344,o),
(203,270,o),
(253,212,c),
(316,245,l),
(244,235,o),
(209,235,o),
(173,235,cs),
(0,235,l),
(0,0,l)
);
},
{
ref = connection_l;
}
);
width = 1017;
}
);
unicode = 65227;
},
{
color = 1;
glyphname = "dotlessfeh-ar";
layers = (
{
anchors = (
{
name = bottom;
pos = (693,-19);
},
{
name = top;
pos = (1075,807);
}
);
layerId = "8D9E6227-A940-4CC2-85D6-810E74B12C63";
shapes = (
{
closed = 1;
nodes = (
(1296,432,l),
(1259,429,o),
(1223,428,o),
(1180,428,cs),
(1072,428,o),
(916,448,o),
(916,530,cs),
(916,622,o),
(1000,698,o),
(1090,698,cs),
(1215,698,o),
(1270,546,o),
(1283,414,c),
(1287,309,l),
(1287,233,o),
(1276,211,o),
(1225,189,cs),
(1113,140,o),
(866,140,o),
(682,140,cs),
(368,140,o),
(198,199,o),
(198,429,cs),
(198,474,o),
(205,526,o),
(218,585,c),
(130,601,l),
(110,512,o),
(100,434,o),
(100,366,cs),
(100,78,o),
(286,-19,o),
(693,-19,cs),
(839,-19,o),
(1068,-7,o),
(1186,29,cs),
(1261,52,o),
(1299,73,o),
(1333,136,cs),
(1371,208,o),
(1387,293,o),
(1387,382,cs),
(1387,596,o),
(1305,847,o),
(1105,847,cs),
(945,847,o),
(822,677,o),
(822,510,cs),
(822,348,o),
(957,283,o),
(1136,283,cs),
(1191,283,o),
(1247,288,o),
(1303,295,c)
);
}
);
width = 1478;
},
{
anchors = (
{
name = bottom;
pos = (732,-72);
},
{
name = top;
pos = (1090,909);
}
);
background = {
shapes = (
{
closed = 1;
nodes = (
(929,0,ls),
(1073,0,o),
(1184,11,o),
(1267,43,cs),
(1359,78,o),
(1393,133,o),
(1425,223,cs),
(1445,279,o),
(1456,350,o),
(1456,434,cs),
(1456,696,o),
(1341,939,o),
(1133,939,cs),
(960,939,o),
(826,783,o),
(826,581,cs),
(826,462,o),
(876,324,o),
(1138,324,cs),
(1225,324,o),
(1285,344,o),
(1384,377,c),
(1400,541,l),
(1333,533,o),
(1255,527,o),
(1157,527,cs),
(1057,527,o),
(953,543,o),
(953,614,cs),
(953,670,o),
(1008,735,o),
(1108,735,cs),
(1197,735,o),
(1309,654,o),
(1311,489,c),
(1312,415,l),
(1314,250,o),
(1287,235,o),
(1059,235,cs),
(744,235,l),
(744,0,l)
);
}
);
};
layerId = "106916A4-8C74-485A-AD82-F5ABB18EF495";
shapes = (
{
closed = 1;
nodes = (
(1334,534,l),
(1278,529,o),
(1217,527,o),
(1176,527,cs),
(1057,527,o),
(953,541,o),
(953,615,cs),
(953,674,o),
(1017,735,o),
(1103,735,cs),
(1194,735,o),
(1299,661,o),
(1310,513,c),
(1313,377,l),
(1310,290,o),
(1297,260,o),
(1220,243,cs),
(1104,217,o),
(897,210,o),
(789,210,cs),
(417,210,o),
(258,254,o),
(258,471,cs),
(258,521,o),
(266,580,o),
(282,649,c),
(151,673,l),
(123,559,o),
(108,462,o),
(108,379,cs),
(108,76,o),
(304,-29,o),
(742,-29,cs),
(934,-29,o),
(1135,-7,o),
(1253,34,cs),
(1348,67,o),
(1390,131,o),
(1415,193,cs),
(1449,279,o),
(1456,356,o),
(1456,452,cs),
(1456,684,o),
(1348,939,o),
(1131,939,cs),
(946,939,o),
(826,762,o),
(826,588,cs),
(826,478,o),
(860,324,o),
(1139,324,cs),
(1217,324,o),
(1269,341,o),
(1337,361,c)
);
}
);
width = 1556;
}
);
unicode = 1697;
},
{
color = 1;
glyphname = "dotlessfeh-ar.fina";
layers = (
{
anchors = (
{
name = bottom;
pos = (665,-14);
},
{
name = top;
pos = (1268,705);
}
);
layerId = "8D9E6227-A940-4CC2-85D6-810E74B12C63";
shapes = (
{
closed = 1;
nodes = (
(874,-14,o),
(1246,8,o),
(1449,71,c),
(1214,63,l),
(1375,17,o),
(1531,0,o),
(1659,0,cs),
(1691,0,l),
(1691,155,l),
(1618,155,o),
(1554,158,o),
(1474,171,c),
(1491,150,l),
(1531,186,o),
(1571,245,o),
(1571,341,cs),
(1571,494,o),
(1433,727,o),
(1300,727,cs),
(1172,727,o),
(1010,491,o),
(1010,336,cs),
(1010,243,o),
(1058,180,o),
(1104,143,c),
(1111,161,l),
(996,149,o),
(854,146,o),
(690,146,cs),
(393,146,o),
(215,195,o),
(201,408,cs),
(199,451,o),
(202,502,o),
(213,560,c),
(125,576,l),
(106,492,o),
(98,418,o),
(100,354,cs),
(107,85,o),
(288,-14,o),
(665,-14,cs)
);
},
{
closed = 1;
nodes = (
(1194,220,o),
(1101,287,o),
(1101,346,cs),
(1101,421,o),
(1212,559,o),
(1307,559,cs),
(1387,559,o),
(1481,438,o),
(1481,355,cs),
(1481,263,o),
(1365,220,o),
(1288,220,cs)
);
},
{
pos = (1642,0);
ref = connection_r;
}
);
width = 1691;
},
{
anchors = (
{
name = bottom;
pos = (800,-72);
},
{
name = top;
pos = (1255,758);
}
);
layerId = "106916A4-8C74-485A-AD82-F5ABB18EF495";
shapes = (
{
closed = 1;
nodes = (
(902,-29,o),
(1151,-10,o),
(1321,56,c),
(1269,53,l),
(1376,20,o),
(1554,0,o),
(1664,0,cs),
(1692,0,l),
(1692,235,l),
(1639,235,o),
(1583,238,o),
(1515,247,c),
(1537,222,l),
(1562,261,o),
(1582,313,o),
(1582,384,cs),
(1582,575,o),
(1438,785,o),
(1298,785,cs),
(1153,785,o),
(1001,581,o),
(1001,380,cs),
(1001,296,o),
(1034,237,o),
(1071,200,c),
(1099,226,l),
(961,212,o),
(825,210,o),
(747,210,cs),
(416,210,o),
(257,238,o),
(257,461,cs),
(257,506,o),
(264,560,o),
(276,623,c),
(145,647,l),
(122,545,o),
(110,456,o),
(110,380,cs),
(110,76,o),
(303,-29,o),
(726,-29,cs)
);
},
{
closed = 1;
nodes = (
(1205,297,o),
(1124,350,o),
(1124,409,cs),
(1124,475,o),
(1224,561,o),
(1301,561,cs),
(1382,561,o),
(1466,468,o),
(1466,408,cs),
(1466,346,o),
(1377,289,o),
(1287,293,cs)
);
},
{
pos = (1592,0);
ref = connection_r;
}
);
width = 1692;
}
);
},
{
color = 1;
glyphname = "dotlessfeh-ar.medi";
layers = (
{
anchors = (
{
name = bottom;
pos = (458,0);
},
{
name = top;
pos = (426,705);
}
);
layerId = "8D9E6227-A940-4CC2-85D6-810E74B12C63";
shapes = (
{
closed = 1;
nodes = (
(108,0,ls),
(252,0,o),
(369,16,o),
(511,63,c),
(399,55,l),
(551,18,o),
(700,0,o),
(810,0,cs),
(849,0,l),
(849,155,l),
(779,155,o),
(705,158,o),
(606,179,c),
(640,142,l),
(685,179,o),
(729,245,o),
(729,335,cs),
(729,495,o),
(590,727,o),
(459,727,cs),
(328,727,o),
(168,493,o),
(168,333,cs),
(168,242,o),
(219,173,o),
(273,137,c),
(277,164,l),
(220,158,o),
(158,155,o),
(54,155,cs),
(0,155,l),
(0,0,l)
);
},
{
closed = 1;
nodes = (
(348,220,o),
(259,289,o),
(259,352,cs),
(259,423,o),
(375,559,o),
(463,559,cs),
(537,559,o),
(639,438,o),
(639,355,cs),
(639,263,o),
(523,220,o),
(446,220,cs)
);
},
{
ref = connection_l;
},
{
pos = (800,0);
ref = connection_r;
}
);
width = 849;
},
{
anchors = (
{
name = bottom;
pos = (436,-20);
},
{
name = top;
pos = (415,758);
}
);
layerId = "106916A4-8C74-485A-AD82-F5ABB18EF495";
shapes = (
{
closed = 1;
nodes = (
(109,0,ls),
(250,0,o),
(403,19,o),
(530,78,c),
(403,61,l),
(507,19,o),
(683,0,o),
(812,0,cs),
(849,0,l),
(849,235,l),
(784,235,o),
(708,237,o),
(625,255,c),
(676,197,l),
(708,235,o),
(739,296,o),
(739,384,cs),
(739,575,o),
(596,785,o),
(453,785,cs),
(310,785,o),
(158,577,o),
(158,384,cs),
(158,291,o),
(193,233,o),
(230,197,c),
(250,245,l),
(199,237,o),
(135,235,o),
(45,235,cs),
(0,235,l),
(0,0,l)
);
},
{
closed = 1;
nodes = (
(362,296,o),
(281,350,o),
(281,409,cs),
(281,475,o),
(381,561,o),
(458,561,cs),
(539,561,o),
(623,468,o),
(623,408,cs),
(623,346,o),
(534,289,o),
(444,293,cs)
);
},
{
ref = connection_l;
},
{
pos = (749,0);
ref = connection_r;
}
);
width = 849;
}
);
},
{
color = 1;
glyphname = "dotlessfeh-ar.init";
layers = (
{
anchors = (
{
name = bottom;
pos = (245,0);
},
{
name = top;
pos = (352,797);
}
);
layerId = "8D9E6227-A940-4CC2-85D6-810E74B12C63";
shapes = (
{
closed = 1;
nodes = (
(153,0,ls),
(344,0,o),
(425,6,o),
(471,16,cs),
(544,32,o),
(586,66,o),
(620,143,cs),
(645,200,o),
(661,276,o),
(661,361,cs),
(661,555,o),
(593,827,o),
(374,827,cs),
(224,827,o),
(96,660,o),
(96,490,cs),
(96,383,o),
(158,263,o),
(411,263,cs),
(494,263,o),
(557,271,o),
(593,277,c),
(620,415,l),
(597,413,o),
(542,408,o),
(476,408,cs),
(331,408,o),
(190,429,o),
(190,512,cs),
(190,600,o),
(273,678,o),
(362,678,cs),
(521,678,o),
(561,443,o),
(561,325,c),
(561,259,l),
(561,173,o),
(507,155,o),
(363,155,cs),
(0,155,l),
(0,0,l)
);
},
{
ref = connection_l;
}
);
width = 751;
},
{
anchors = (
{
name = bottom;
pos = (285,-10);
},
{
name = top;
pos = (320,899);
}
);
layerId = "106916A4-8C74-485A-AD82-F5ABB18EF495";
shapes = (
{
closed = 1;
nodes = (
(185,0,ls),
(329,0,o),
(440,11,o),
(523,43,cs),
(615,78,o),
(648,133,o),
(681,223,cs),
(700,279,o),
(712,350,o),
(712,434,cs),
(712,696,o),
(597,939,o),
(389,939,cs),
(216,939,o),
(82,783,o),
(82,581,cs),
(82,462,o),
(132,324,o),
(394,324,cs),
(481,324,o),
(541,344,o),
(640,377,c),
(656,541,l),
(589,533,o),
(511,527,o),
(413,527,cs),
(313,527,o),
(209,543,o),
(209,614,cs),
(209,670,o),
(264,735,o),
(364,735,cs),
(453,735,o),
(565,654,o),
(567,489,c),
(568,415,l),
(570,250,o),
(543,235,o),
(315,235,cs),
(0,235,l),
(0,0,l)
);
},
{
ref = connection_l;
}
);
width = 812;
}
);
},
{
color = 1;
glyphname = "qafDotless-ar";
layers = (
{
anchors = (
{
name = bottom;
pos = (535,-471);
},
{
name = top;
pos = (744,573);
}
);
layerId = "8D9E6227-A940-4CC2-85D6-810E74B12C63";
shapes = (
{
closed = 1;
nodes = (
(755,-421,o),
(963,-310,o),
(1043,-123,cs),
(1069,-63,o),
(1076,3,o),
(1076,86,cs),
(1076,344,o),
(963,593,o),
(774,593,cs),
(619,593,o),
(489,424,o),
(489,245,cs),
(489,64,o),
(625,0,o),
(805,0,cs),
(865,0,o),
(924,7,o),
(997,25,c),
(1004,161,l),
(934,156,o),
(865,155,o),
(805,157,cs),
(660,161,o),
(583,188,o),
(583,275,cs),
(583,356,o),
(660,445,o),
(755,445,cs),
(891,445,o),
(974,257,o),
(974,95,c),
(974,75,l),
(979,8,o),
(978,-41,o),
(966,-67,cs),
(930,-149,o),
(758,-251,o),
(547,-251,cs),
(305,-251,o),
(195,-125,o),
(195,80,cs),
(195,138,o),
(204,204,o),
(222,274,c),
(135,294,l),
(108,202,o),
(95,114,o),
(95,34,cs),
(95,-232,o),
(241,-421,o),
(535,-421,cs)
);
}
);
width = 1171;
},
{
anchors = (
{
name = bottom;
pos = (598,-461);
},
{
name = top;
pos = (733,649);
}
);
layerId = "106916A4-8C74-485A-AD82-F5ABB18EF495";
shapes = (
{
closed = 1;
nodes = (
(764,-431,o),
(936,-375,o),
(1039,-252,cs),
(1119,-156,o),
(1147,-56,o),
(1147,107,cs),
(1147,427,o),
(1007,629,o),
(823,629,cs),
(659,629,o),
(513,478,o),
(513,265,cs),
(513,83,o),
(635,2,o),
(801,2,cs),
(890,2,o),
(997,20,o),
(1066,37,c),
(1023,235,l),
(963,230,o),
(904,227,o),
(852,227,cs),
(726,227,o),
(638,250,o),
(638,320,cs),
(638,371,o),
(687,425,o),
(780,425,cs),
(898,425,o),
(978,336,o),
(1006,191,c),
(1011,67,l),
(1011,44,o),
(1010,-8,o),
(1001,-35,cs),
(976,-103,o),
(827,-182,o),
(603,-182,cs),
(368,-182,o),
(255,-95,o),
(255,88,cs),
(255,152,o),
(270,227,o),
(299,313,c),
(171,353,l),
(127,232,o),
(105,118,o),
(105,16,cs),
(105,-249,o),
(263,-431,o),
(585,-431,cs)
);
}
);
width = 1252;
}
);
unicode = 1647;
},
{
color = 1;
glyphname = "qafDotless-ar.fina";
layers = (
{
anchors = (
{
name = bottom;
pos = (535,-471);
},
{
name = top;
pos = (744,563);
}
);
layerId = "8D9E6227-A940-4CC2-85D6-810E74B12C63";
shapes = (
{
closed = 1;
nodes = (
(816,-421,o),
(1066,-244,o),
(1075,31,c),
(1027,0,l),
(1201,0,l),
(1201,155,l),
(1029,155,l),
(1076,119,l),
(1066,365,o),
(955,593,o),
(774,593,cs),
(619,593,o),
(489,424,o),
(489,245,cs),
(489,64,o),
(625,0,o),
(805,0,cs),
(1022,0,l),
(976,37,l),
(977,-7,o),
(974,-38,o),
(966,-63,cs),
(940,-145,o),
(758,-251,o),
(547,-251,cs),
(305,-251,o),
(195,-125,o),
(195,80,cs),
(195,138,o),
(204,204,o),
(222,274,c),
(135,294,l),
(108,202,o),
(95,114,o),
(95,33,cs),
(95,-233,o),
(241,-421,o),
(535,-421,cs)
);
},
{
closed = 1;
nodes = (
(1003,155,l),
(933,150,o),
(864,149,o),
(805,151,cs),
(660,155,o),
(583,183,o),
(583,275,cs),
(583,356,o),
(660,445,o),
(755,445,cs),
(884,445,o),
(966,276,o),
(974,120,c)
);
},
{
pos = (1152,0);
ref = connection_r;
}
);
width = 1201;
},
{
anchors = (
{
name = bottom;
pos = (598,-461);
},
{
name = top;
pos = (774,659);
}
);
layerId = "106916A4-8C74-485A-AD82-F5ABB18EF495";
shapes = (
{
closed = 1;
nodes = (
(886,-431,o),
(1137,-263,o),
(1143,32,c),
(1096,0,l),
(1270,0,l),
(1270,235,l),
(1094,235,l),
(1144,195,l),
(1120,462,o),
(991,629,o),
(824,629,cs),
(660,629,o),
(513,480,o),
(513,263,cs),
(513,26,o),
(713,0,o),
(861,0,cs),
(1058,0,l),
(1011,56,l),
(1010,34,o),
(1009,12,o),
(1008,-10,cs),
(1003,-96,o),
(840,-182,o),
(606,-182,cs),
(367,-182,o),
(255,-93,o),
(255,87,cs),
(255,150,o),
(270,224,o),
(299,310,c),
(171,350,l),
(127,229,o),
(105,116,o),
(105,14,cs),
(105,-251,o),
(269,-431,o),
(588,-431,cs)
);
},
{
closed = 1;
nodes = (
(1033,236,l),
(963,229,o),
(897,227,o),
(842,227,cs),
(720,227,o),
(638,252,o),
(638,321,cs),
(638,365,o),
(684,425,o),
(780,425,cs),
(895,425,o),
(974,339,o),
(1003,204,c)
);
},
{
pos = (1170,0);
ref = connection_r;
}
);
width = 1270;
}
);
},
